<svg height="320" viewBox="0 0 320 320" width="320" xmlns="http://www.w3.org/2000/svg"><g fill="#262626" transform="matrix(.8660254 -.5 .5 .8660254 32.899692 40.329529)"><path d="m31.9285649 109.97795c.1032295.111994.2485987.175704.4009112.175704s.2976816-.06371.4009111-.175704c4.7066971-4.73877 11.2896584-11.1052393 10.952893-18.4419136-.1202734-2.6460136-2.9587244-3.592164-5.1637358-3.664328-2.9025968-.0882004-5.388246 1.9564465-7.2164009 4.0812757-2.5177221-4.810934-10.4236902-8.8200456-12.9574487-1.9163554-1.2989522 3.4959453 2.0767198 8.2908428 4.0091116 10.8566743 2.694123 3.52 6.1900683 6.326378 9.5737585 9.084647z"/><path d="m63.6887472 100.620683c-2.3493395-.553257-4.1694761.368839-5.781139 1.94041-1.2428246-1.956446-2.9025968-4.5302957-5.388246-4.6265144-2.2119479-.1237075-4.2125829 1.3067465-4.810934 3.4398174-.8820045 3.143144.4971299 5.997631 1.9644647 8.731845 1.9992117 3.670819 4.4007512 7.107737 7.1602734 10.24729.1032295.111994.2485987.175704.4009111.175704.1523125 0 .2976817-.06371.4009112-.175704 4.0091116-4.169476 7.9620957-9.854397 8.691754-15.763827.2013479-1.788115-.9113984-3.462308-2.6379954-3.969021z"/><path d="m40.6844647 141.874442c-.5612756-1.755991-3.303508-2.469613-4.8750797-2.16492-1.6574369.266151-3.1035079 1.272498-3.9289294 2.734214-.8932654-1.94663-2.6214694-3.382868-4.6986788-3.904875-2.1569021-.489112-3.8487472 1.018314-4.6505695 2.838451-1.042369 2.349339.1603645 5.091572 1.0984966 7.256492 1.6758086 3.840729 4.1534396 7.31262 6.5348519 10.736401.0981798.16568.2764804.267277.4690661.267277s.3708862-.101597.469066-.267277c3.2072893-4.578405 11.6665148-10.984966 9.5817768-17.495763z"/><path d="m61.6521185 154.9682c0-1.355079-.3768565-3.431799-1.9404101-3.904874-2.4054669-.713622-4.3619134.593348-6.214123 1.988519-1.6998633-3.327563-7.5210934-6.18205-9.4214123-1.603645-1.2428246 3.006834.2325285 5.909431 1.6036447 8.595536 1.8261851 3.394849 4.1324464 6.508572 6.8475626 9.245011.1019298.114276.2477818.179623.4009112.179623s.2989813-.065347.4009111-.179623c1.7880638-2.213029 3.5520729-4.434077 5.1156265-6.81549 1.2989521-2.012574 3.1752164-5.003371 3.2072893-7.505057z"/><path d="m52.118451 185.261048c-2.0446469-.737677-4.1614578.801822-5.6127562 2.293212-1.9083372-4.009112-8.4431891-4.810934-9.7902506.104237-.8659681 3.207289 1.9885194 6.607016 3.664328 8.98041 2.4307896 3.382972 5.1627849 6.53899 8.1625513 9.42943.1197012.116837.2864082.172264.452238.150362s.3124303-.118709.3976936-.262617c1.7550177-2.558045 3.2460211-5.287522 4.4501139-8.146515.9942597-2.405467 2.405467-5.476446 1.8522096-8.170569-.2816822-2.012313-1.6605204-3.700308-3.5761276-4.37795z"/><path d="m40.9330296 250.272802c2.0051586-2.683645 3.7427127-5.557189 5.1877904-8.579499 1.0343508-2.269157 2.5818679-5.973576 1.7800456-8.53139-1.435262-4.586423-6.5669248-3.207289-9.0205011-.256583-2.3252848-2.341321-5.5566287-3.928929-8.4431891-1.459316-.0668954.051054-.117127.120821-.144328.200455-1.8923007 2.71016-.4971299 5.612757 1.0904783 8.146515 2.405467 3.840729 5.7330297 7.17631 8.691754 10.592073.1211727.116962.2890223.172364.4560123.150515s.3149357-.11857.4019376-.26277z"/><path d="m70.8329841 249.775672c-.1095642-1.850761-1.4084458-3.415914-3.2072893-3.864784-2.0205923-.633439-4.0091117.737677-5.3561732 2.172939-1.475353-2.333303-3.2954897-4.313804-6.3343963-3.832711-.0886399.015674-.1715976.054387-.2405467.112255-3.5681094 1.643736-3.4398178 6.021686-2.2210478 9.204921 1.7158997 4.46615 5.5646469 8.595535 8.6917539 12.115535.1019298.114276.2477818.179622.4009112.179622s.2989814-.065346.4009112-.179622c1.9542892-2.423834 3.6903196-5.015805 5.1877904-7.745604 1.3230068-2.485649 2.7823235-5.267972 2.6780866-8.162551z"/><path d="m52.7919818 275.77877c-2.3012301-.441002-4.3538952 1.098497-5.8933941 2.654032-1.6998633-2.501686-4.3538952-5.035444-7.4088383-3.038907-.0920317.028528-.1731584.084477-.2325284.160365-2.6780866 3.415763-1.2668793 6.310341.505148 9.806287 2.2782301 4.374358 5.3132301 8.310628 8.9643736 11.626423.1211727.116963.2890223.172365.4560123.150515.16699-.021849.3149357-.11857.4019376-.26277 2.5979043-5.428337 7.6333485-11.049111 6.8796355-17.471708-.2454127-1.908644-1.7606325-3.404014-3.6723462-3.624237z"/><path d="m82.4994989 285.745421c-.8659681-2.100774-3.6322552-1.723918-5.2759909-1.050387-1.6437358.673531-2.405467 1.996538-3.0629613 3.439818-.8900228-2.07672-2.1007745-4.289749-4.3057859-5.019408-2.6540319-.882004-4.8109339.144328-5.9094305 2.71016-1.2267882 2.838451.537221 6.13394 1.8923007 8.57148 2.0769726 3.49148 4.6602075 6.655673 7.6654214 9.38934.1055697.107746.2500658.168464.4009112.168464.1508453 0 .2953414-.060718.4009111-.168464 2.6079497-2.777646 4.87448-5.857113 6.751344-9.172848 1.2829157-2.509704 2.5898861-6.093849 1.4432802-8.868155z"/><path d="m54.523918 66.1022323c2.4959081-2.6210737 4.8257254-5.3954309 6.9758542-8.3068792 1.8441914-2.6059226 4.2496583-6.3744875 4.3538952-9.6860137.1122552-2.6059225-1.1786788-4.2656948-3.8407289-4.2656948-2.405467 0-4.5142597 1.8281549-5.9334852 3.696401-1.2748975-3.1110707-3.2954897-5.7410479-6.895672-6.069795-.0760596-.0212021-.1564689-.0212021-.2325285 0-.0823209-.0082713-.1653581.0055682-.2405466.0400911-12.2037358 1.6036446 2.0606833 20.3101594 4.9712984 24.5036902.0932623.1328357.2394611.218796.4008836.2357069.1614225.016911.3222622-.0368834.4410298-.1475065z"/><path d="m28.4005467 66.7116173c3.1671982-5.997631 8.4271526-11.6825512 9.0124829-18.714533.1603645-1.8602278-1.1065148-4.0091116-3.2072893-4.0091116-2.694123.0561275-4.2095672 1.8281549-5.6127562 3.8246924-1.4192256-2.3092482-3.2634169-4.0652391-6.0938497-4.3378587-.0808479-.0257914-.1677171-.0257914-.2485649 0-.07869-.0218771-.1618567-.0218771-.2405467 0-12.12355355 1.6437357 2.5578132 19.4602278 5.5405922 23.3089749.1140665.1206677.2769033.1827802.4423558.1687323.1654524-.0140478.3154863-.1027248.4075759-.2408963z"/><path d="m97.8223235 309.270888c-3.3355809-11.273621-8.0182233-22.130296-11.77877-33.251571-7.7616401-22.779773-11.7627335-46.850479-15.0261503-70.560365-.0481094-.400911-5.5405923-32.602096-2.8143964-48.582414 2.6460137-15.579408 2.3573577-31.271071 3.15918-46.986789 1.7319362-34.1415941 6.2301594-68.0747148 10.6562187-101.951708.0532914-.20739925.0214096-.42749816-.0885411-.61125143s-.2888342-.31589218-.4967892-.3669718c-.1134072-.11174278-.2503951-.19667529-.4009112-.24856492-10.0548519-3.87280182-20.5186332-5.42833713-31.1989066-6.09384966-10.6802733-.66551253-21.9378588-1.1385877-32.6020957.46505695-.3195339.04532239-.5927356.25304488-.7218355.54883075s-.0956437.6373535.0883959.90246765c-5.2791366 36.06261906-6.2749663 72.62302346-2.9667426 108.91954446 1.6036446 18.008929 2.1248292 36.14615.537221 54.187153-.7561178 9.349494-3.8107141 18.367301-8.89220961 26.251662-7.47298406 11.883007-4.81093394 22.451026-4.81093394 23.292939.14529915 3.943426 1.02923342 7.824578 2.60592255 11.442005 2.64601367 5.700956 6.63908884 10.383599 10.7925285 15.02615 4.9712984 5.556629 9.9185421 11.05713 12.2358086 18.289567 1.1947153 3.696401 1.4913896 7.705513 2.4615946 11.474077 1.2049787 4.239078 2.6615322 8.402572 4.3619134 12.468338.1202733.31271 8.7478816 21.168109 12.8291572 31.439453 1.8281549 4.60246 3.4638724 9.34123 5.9655581 13.630979 2.3333029 4.009112 6.4145786 6.839545 9.8944874 9.742142 6.751344 5.612756 13.2380866 11.361822 22.2746242 12.476355 8.3389521 1.042369 14.4328018-5.332118 16.9505235-12.572574 3.223326-9.156811-.416947-20.48656-3.0148515-29.330661zm-18.0891117-300.73949848c-.876659 6.67650718-1.7372817 13.35835988-2.5818678 20.04555808h-1.0744419c1.176006-6.6978891 2.3573576-13.3797418 3.5440546-20.04555808zm-1.1546241-.39289294c-1.2027335 6.81548972-2.405467 13.63365222-3.6082005 20.45448752h-1.7800455c1.0263326-7.0453455 2.239757-14.0639636 3.6402733-21.05585426.5933486.19243736 1.1706606.40091116 1.7479727.60136674zm-2.7903417-.92209567c-1.4165528 7.09345479-2.6486864 14.22432799-3.6964009 21.39261959h-1.94041c-.3528018-1.4272437.8018223-4.8991344 1.0744419-5.9575399.4891116-2.012574.9782232-4.0091116 1.4112073-6.0617767.6895672-3.2634169 1.1947152-6.5589066 1.6036446-9.87043283zm-2.6139408-.80182232c-.5731209 4.68827841-1.4083235 9.34078551-2.5016856 13.93567201-.3608201 1.4994077-.7216401 2.9907972-1.0343508 4.4982232.2565831-2.1809567.5211845-4.3619134.8018223-6.5428702.4891116-4.0572209.8018223-8.1946241 1.8923007-12.13958993zm-1.9243735-.51316629c-.8289404 3.38738875-1.3866356 6.8354465-1.6677905 10.3114351-.4971298 4.1587851-.9915869 8.3042065-1.4833713 12.4362642h-2.9025968c1.9558262-7.6131593 3.3599856-15.3574734 4.201549-23.17266513zm-2.9186333-.67353075c-.8394128 7.89351075-2.262534 15.71397735-4.2576765 23.39717535h-1.2588611c.3528018-3.9610022.743022-7.916659 1.1706606-11.8669703.4329841-3.9369476.5131663-8.28282464 1.9083371-12.02733489.8098406.17640091 1.6276994.35280182 2.4375399.52920273zm-3.52-.70560365c-1.2748975 3.49594533-1.3791344 7.505057-1.796082 11.1934396-.4730752 4.3298406-.9060592 8.61959-1.2748975 12.9414123h-1.5475171c.8018223-8.1144419 1.2267882-16.4373576 3.2874715-24.3433257.4410023.06414579.8820046.16036446 1.3310251.2405467zm-2.405467-.43298405c-2.0606833 7.97011385-2.4856492 16.34113895-3.3035079 24.50369025l-2.9106151-.0561276c.9948714-3.3053821 1.7452635-6.6794664 2.2451025-10.0949431.6174032-4.8991344.4329841-9.87043276 1.6036447-14.6813667.7911313.1176006 1.57959.23787395 2.3653758.36082004zm-3.9209111-.54523918c-.2909423 1.33932068-.454707 2.70313201-.4891116 4.0732574-.2886561 2.46961273-.4971299 4.94724373-.8018224 7.41685653-.533667 4.578684-1.5578621 9.0867557-3.054943 13.4465603l-2.0205923-.0320729c.5692939-3.5280182 1.3069704-6.9437813 1.6036447-10.56.316341-4.9132506.9646237-9.79948065 1.94041-14.62523914.9461503.08820045 1.8842825.19243735 2.8224146.3127107zm-3.9209112-.33676538c-.8368215 3.87589894-1.4180584 7.80259611-1.7399544 11.75471531-.1844192 2.30123-.3287472 4.6104783-.5612757 6.9036902-.2325284 2.2932118-.8018223 4.3779498-1.2187699 6.5669248l-1.9243736-.1042369c1.0690965-8.4512073 2.2745027-16.8783599 3.6162187-25.28145787.609385 0 1.2187699.06414579 1.8281549.16036446zm-4.6986788-.40091116c.5933485 0 1.186697.08018223 1.7800456.12027335-1.363098 8.40844342-2.5658315 16.84094152-3.6082005 25.29749432l-.609385-.0400911c-.5532574 0-1.1065148-.0962187-1.6597722-.144328.6013668-4.2336219 2.1408656-8.25877 2.8625057-12.4683372.6403982-4.229759 1.0525969-8.49093011 1.2348064-12.76501137zm-2.012574-.11225512.9220956.05612756c-.7043631 8.50310873-2.1668177 16.92631033-4.3699316 25.16920273l-1.9564465-.1764009c.6895672-3.6563098 1.3069704-7.328656 1.8041002-11.0170387.6494761-4.6425513.6494761-9.5817768 2.0767198-14.08000003zm-2.6540319-.08820046c-1.0584055 3.57612756-1.2027335 7.37676538-1.6036447 11.07316625-.5532574 4.6746242-1.3069704 9.3251937-2.1809567 13.9517085l-1.6036446-.1683827c.1924373-.7296583.2966742-1.5154442.4009111-2.0366287.4490205-2.405467.6414579-4.810934.9541686-7.2164009.6842217-5.2225361 1.3630979-10.44239943 2.0366287-15.65959001zm-3.087016-.11225512c-.4971298 3.81132877-.9915869 7.61731207-1.4833713 11.41794987-.2833105 2.1381929-.5505846 4.2763857-.8018223 6.4145786-.144328 1.0744419-.2806378 2.1488838-.4169476 3.2072893-.0956744 1.2840085-.3104162 2.5563537-.6414579 3.8006378l-1.8842824-.1924374c.3928929-8.3389521 2.5818679-16.4373576 3.592164-24.70414574zm-3.3596355-.08820046c-1.4005163 8.14651483-2.5578132 16.33044803-3.4718907 24.55179953l-2.3573576-.2726196c1.6691724-8.0279406 2.7252789-16.1712184 3.15918-24.35936216zm-4.2095672-.08018223c-.6334396 8.13849656-1.3791344 16.18879266-3.2714351 24.13485196l-1.4031891-.1603645c.5452392-8.0182232.7456948-16.1567198 2.405467-24.05466969.7697494.04810934 1.5154442.06414578 2.2691572.06414578zm-3.4718907 0c-.6013667 3.7284738-1.2989521 7.47298405-1.7319362 11.22551256-.4891116 4.2576765-.1042369 8.4191344-.9621868 12.6287016l-1.9724829-.2084738c.0590725-1.4846105.2198135-2.9634279.4810934-4.4260593.1844191-2.0927562.4249658-4.1774943.681549-6.2702505.4971298-4.345877 1.2428246-8.65968113 2.1007745-12.95744879zm-2.549795 0c-.7483675 3.94496583-1.3844798 7.90329536-1.9083371 11.87498856-.3287471 2.405467-.5853303 4.8750798-.8018223 7.3126196-.2507392 1.4320192-.4140785 2.8779732-.4891116 4.3298406l-.9862415-.0882005c.0400911-1.2107517.1122551-2.4054669.1844192-3.6322551.1122551-.6975854.2245102-1.3550797.2726195-1.8842825.1683827-2.0687016.3367654-4.1374031.5211846-6.2061047.2855167-3.9329895.9623941-7.82772096 2.0205922-11.62642373.3928929-.05612756.7938041-.04810934 1.186697-.06414579zm-2.8625056.12829157c-1.1873437 6.78250794-1.9478967 13.63284109-2.2771754 20.51061499-.1702497.8889371-.2721122 1.7896162-.3046925 2.6941231l-1.9885194-.1363098c.5692939-7.7295672 2.477631-15.2907518 3.087016-23.01230073zm-2.5658315.16838269c-.6414578 7.6814579-2.5177221 15.1865148-3.0950342 22.8759909l-1.2428246-.0641458c.3287472-7.5692027 1.6758087-15.1624601 2.6780866-22.66751708zm-4.3779499.4490205c.537221-.07216401 1.0824602-.12027335 1.6036447-.18441914-.9942597 7.46496584-2.3252848 15.00209564-2.6780866 22.52318904-.505148 0-1.0102961-.0400911-1.5154442-.0400911-.050713-.0037448-.1016332-.0037448-.1523462 0 .732331-7.4409111 1.6437357-14.8738041 2.7342141-22.2986788zm-10.82460134 227.7175395c-5.0755353-7.384783-9.32519362-26.08328-.36082004-38.487471l.80182232.489111c-4.0732574 6.767381-4.65056948 16.477449-3.20728929 24.05467 1.91407554 8.909745 6.90815905 16.859395 14.10405465 22.451025-.6574943.914078-1.3390433 1.812119-2.0526651 2.686105-3.2233258-3.632255-6.534852-7.160273-9.29312076-11.177403zm3.01485194-25.522004c.1920339 3.618699.6991007 7.213775 1.5154442 10.744419 1.6036446 6.414579 4.9632802 13.759271 9.9025057 18.353713-.3848747.681549-.8018223 1.35508-1.1947153 2.012574-4.6777317-5.730813-8.2158915-12.303625-10.4236902-19.364009-2.14888381-7.080091-.6174032-15.146424.6895672-22.282643l.6975854.449021c-.577312 3.359636-1.3791344 6.727289-1.186697 10.086925zm9.6218679 9.34123c.8018223 2.333303.6895672 4.810934 1.4432802 7.144237.7136218 2.180956 2.2611389 4.265695 3.4799088 6.238177-.072164.176401-.1523462.36082-.2325284.529203-.2004556.473075-.4249659.938132-.6334397 1.411207-1.4719261-1.741127-2.7716104-3.620836-3.88082-5.612756-1.2909339-2.405467-1.6998633-5.356173-2.2771754-8.018223-1.3887851-5.973584-2.0510742-12.093028-1.9724829-18.225421.4089294.280637.8018223.537221 1.2267881.801822l.5452392.376856c-.0024801.02667-.0024801.053513 0 .080183-.4730752 5.420319.5292027 10.255307 2.2932119 15.306788zm6.6070159 9.573758-1.1466059 2.581868c-.8900228-1.499407-1.796082-2.998815-2.6139408-4.530296-1.258861-2.341321-.9782232-5.372209-1.796082-7.913986-1.5394988-4.810934-2.6139408-9.277084-2.3172665-14.344602.8018223.577313 1.7399545 1.186698 2.6379955 1.820137-.1523463 7.753622 1.9885193 15.499226 5.2278815 22.418952zm-.4810934-12.115535c.4169476 2.405467 1.6036447 4.634533 2.5097039 6.847563v.048109c-.4089294 1.226788-.8900228 2.453576-1.3951708 3.664328-.9621868-3.070979-1.9323918-6.133941-2.8464693-9.212938-1.0022779-3.359636-1.1546241-6.879636-1.3550797-10.359545.6735307.513166 1.331025 1.050387 1.9564465 1.603645-.0082275.058512-.0082275.117888 0 .176401.3768564 2.453576.6975854 4.867061 1.1225512 7.26451zm.8018224-5.468428c2.0526651 2.349339 3.3355808 5.067517 2.7903416 8.266788-.0882004.49713-.2084738.99426-.3287471 1.49139-.2485649-.954169-.6174032-1.884283-.9301139-2.84647-.6886973-2.24841-1.1928443-4.549251-1.507426-6.879635zm-10.9849659 8.563462c1.6036447 6.198087 2.6700684 11.682552 7.5371299 16.036447-.3046925.625421-.6174032 1.250843-.9381322 1.860228-1.1786788-2.028611-2.8625056-3.712438-4.0091116-5.789158-1.5496585-3.105733-2.8007759-6.351658-3.736492-9.694032-2.3111802-6.878405-2.8922493-14.220254-1.6918451-21.376583.4570387.296675.898041.609385 1.3550797.914078.1042369 6.101868-.0400911 12.09148 1.4833713 18.04902zm-6.78341683 2.172939c1.86022783 7.216401 6.11790433 14.296492 10.81658313 20.045558-.2245102.344783-.4410023.697585-.6735307 1.042369-6.9598178-5.2359-11.61038728-13.502688-13.63097954-21.865695-.89002278-3.640273-.51316629-7.865877-.27261959-11.570296.17816894-4.079037 1.32720001-8.056664 3.35161731-11.602369l1.20273352.801822c-1.41922554 7.553167-2.77430527 15.507244-.79380413 23.148611zm36.60318903 93.4123c-3.9690205-9.990706-16.2850114-42.881457-17.5759453-49.4564-1.1546241-5.837267-4.5383143-10.824602-8.2106606-15.370934-.6254214-.801823-1.258861-1.531481-1.9003189-2.277176 3.8217035-4.760696 6.9305772-10.051993 9.2289749-15.707699 2.1649203-5.027426 4.8590433-10.640182 4.8911162-16.252939 0-4.867061-5.9174487-8.467243-9.1728474-11.041093-4.7752346-3.743369-9.7892191-7.171735-15.01011386-10.263326.76173121-1.427243 1.52346246-2.846469 2.25312076-4.273713 3.2874715-6.414578 4.7708428-13.302232 5.5245558-20.454487 1.9003189-17.944784 1.042369-36.258406-.5292028-54.187153-2.4669288-27.668525-2.4883939-55.500732-.0641457-83.1730294 10.311435.7376765 20.5426879 2.2771754 30.8380865 3.2072893 10.054852.8739863 20.0455581-.0801823 30.1084283.8659681-3.3275627 26.4601366-6.2622324 53.0084738-7.6173121 79.677084-.4249658 8.290843-.537221 16.597722-.8018223 24.896583-.2886561 8.53139-1.9003189 16.782142-3.0789977 25.209294-.9862415 6.991891-.2084739 13.847472.8018223 20.783235 1.2936067 9.007137 2.5925588 18.011602 3.8968565 27.013394.0481093.36082 5.749066 37.156446 10.5199089 54.972938 4.2737129 15.956265 11.2255125 31.030524 15.8520273 46.858497-14.8978588 2.982779-30.3569932 5.845285-43.7955353 13.206014-2.4455581-4.418041-4.1614579-9.204921-6.1579955-14.232347zm7.8498406 17.030707c.2726196-.072164 14.6813667-6.149978 21.5690205-8.018224 7.0319818-1.916355 14.5931663-2.148883 21.4728018-4.506241.0962187.36082.1764009.713622.2726196 1.074442-3.0469248.288656-6.1820501.513166-8.9964465 1.739954-3.9369476 1.7159-7.6974943 3.600183-11.7948064 4.955262-6.8796355 2.285194-13.9677448 4.009112-20.1417767 7.930023-.8523752-1.013184-1.6474206-2.073245-2.3814123-3.175216zm3.1030524 4.009111c6.0377221-3.792619 12.9734852-5.532574 19.7087927-7.713531 3.2201702-1.037421 6.3586259-2.313173 9.3893394-3.816674 3.7284738-1.860228 7.3527107-2.405467 11.3778588-2.854487.1683826.633439.3367653 1.266879.4891116 1.900319l.0481093.216492c-6.3372067 1.070432-12.509109 2.95704-18.3617312 5.612756-3.52 1.603645-6.8475626 3.38369-10.5118907 4.650569-3.664328 1.26688-7.2885649 2.188975-10.9448747 3.20729-.4089294-.376857-.8178587-.785786-1.1947152-1.210752zm4.1855125 3.936948-.8900228-.745695c-.2084738-.176401-.4009111-.36082-.5933485-.537221 6.2542141-2.036629 12.3961731-4.15344 18.4419134-6.799453 6.5206194-2.767805 13.2998436-4.881612 20.2379955-6.310342.0801822.416948.1523462.801822.2245102 1.250843-12.8371754 3.111071-25.0810022 8.371025-37.4210478 13.13385zm.9301139.801822c12.0273348-4.682642 24.0947608-9.798269 36.6833713-12.829157.0882004.529203.1523462 1.058405.2245102 1.603645-6.1106475.662982-12.1006077 2.165869-17.8004555 4.46615-6.0297039 2.405467-12.13959 4.682642-17.7603645 7.962096zm2.2130296 1.924374c5.171754-2.966743 10.7444191-5.107608 16.2850114-7.31262 5.9226669-2.450019 12.1557684-4.069007 18.5220957-4.810934.0641458.601367.1122551 1.210752.144328 1.820137-11.3938952 3.006834-23.1165376 5.356173-33.1312984 11.826879-.6414579-.489111-1.2267882-1.010296-1.8201367-1.53148zm24.3753986 10.118997c-1.5065943.522726-3.0969566.76196-4.6906606.705604 3.0426815-1.272077 6.1594285-2.35919 9.3332119-3.255399-1.386434 1.113034-2.9579139 1.973412-4.6425513 2.541777zm6.3023235-4.137403c-4.5153885 1.169996-8.9269143 2.709337-13.1899772 4.60246-.7549263-.13966-1.4996233-.329852-2.2290661-.569293 5.3401367-2.501686 10.704328-4.618497 16.5656492-5.50852-.3459218.516409-.7291458 1.006828-1.1466059 1.467335zm1.8842825-2.670068c-6.6871982.873986-12.7008656 3.311526-18.746606 6.190068-.8018223-.328747-1.6036446-.681549-2.4054669-1.090478 3.5728815-1.613118 7.2445984-2.997712 10.992984-4.145422 3.5119818-1.026332 7.1682916-1.451298 10.7524374-2.221047-.1603645.424965-.3688383.841913-.5933485 1.258861zm1.1065148-2.493667c-3.8246925.906059-7.7295672 1.371116-11.5221868 2.405466-4.0764599 1.214258-8.0565481 2.731247-11.9070615 4.538315-.2966743-.176401-.5933485-.352802-.8820046-.537221 3.7126312-2.564273 7.8069146-4.526174 12.1315718-5.813212 4.1614578-1.234806 8.5073348-1.162642 12.6768109-2.205011-.1122551.529202-.3046925 1.074442-.4971298 1.603644zm.9140774-3.463873c-4.5944419 1.21877-9.3813212 1.226788-13.9677449 2.750251-4.4553676 1.595687-8.7310879 3.654268-12.7569931 6.141959-.9541686-.649476-1.9003189-1.339044-2.8224146-2.052666 3.716867-1.108685 7.3547083-2.466848 10.8887472-4.065239l3.1190888-1.066423c2.156902-.729659 4.3218223-1.515445 6.502779-2.245103 3.075246-.825357 6.1972814-1.465294 9.3492483-1.916355-.0400911.817859-.1764009 1.643736-.3127107 2.445558zm.4089294-4.097312c-3.3772466.595368-6.6999279 1.466935-9.9345786 2.605923-1.7720273.489111-3.5360364 1.002277-5.2840091 1.603644-1.4753531.505148-2.9186333 1.08246-4.345877 1.675809-3.8728018 1.323007-7.7375854 2.670068-11.5622779 4.113348l-1.1706606-.930114c9.7902506-6.254214 21.2001822-8.595535 32.3054214-11.474077.0240547.785786.0160365 1.595626-.0080182 2.397449z"/></g></svg>