<svg height="320" viewBox="0 0 320 320" width="320" xmlns="http://www.w3.org/2000/svg"><g fill="#262626" transform="translate(61 4)"><path d="m94.55 143.11c.1835172-.106497.3489187-.241519.49-.4.1911406-.161583.3447138-.362935.45-.59 6.59-8.29 6-20.68-1.18-28.62-8.86-9.78-21.55-10.46-31.42-1.78-21.15 18.63 12.51 47.54 31.66 31.39zm-26.44-7.2c-2.2417797-2.467465-3.3888602-5.737548-3.179733-9.064743.2091272-3.327194 1.7566373-6.427912 4.289733-8.595257 11.77-9.8 31.62 8.58 18.14 19.14-.1927365.184395-.403836.348583-.63.49-6.12 3.86-13.61 3.29-18.62-1.97z"/><path d="m124.07 190.38c.1638-.105522.314809-.229684.45-.37.180703-.152022.333056-.334845.45-.54 5.76-6.76 3.81-16.89-.52-24.34-.16-.27-.33-.54-.49-.82-.004853-.029804-.004853-.060196 0-.09-.605235-.940375-1.259471-1.848293-1.96-2.72-8.21-10.4-22.34-8.74-31.62-1.18-10.79 8.76-3.84 23.4 4.66 30.56 9.07 7.64 20.14 6.82 29.03-.5z"/><path d="m59.33 53.730046c1.6653444-.0193894 3.120676-1.1291813 3.58-2.730046.3622052-1.3605871-.0175904-2.8114063-1-3.82-.8098394-.8616026-2.0319082-1.200852-3.17-.88-1.1420099-.0059249-2.1947904.616522-2.74 1.62-.7004744 1.1965992-.7053417 2.6769645-.0127511 3.8781439.6925905 1.2011795 1.9762201 1.9386077 3.3627511 1.9319021z"/><path d="m47.54 84c-.9538871-1.6074111-3.0264177-2.1434104-4.64-1.2-.3303369.194885-.624639.4452109-.87.74-.291923.2443855-.5418919.53489-.74.86-.9350574 1.6225959-.39121 3.695457 1.22 4.65 1.4349833.8099671 3.2338914.5642235 4.3990575-.6009425 1.165166-1.1651661 1.4109096-2.9640742.6009425-4.3990575z"/><path d="m67.29 96.35h.45c1.2568828.0682393 2.4486226-.5635059 3.0975943-1.6420451.6489717-1.0785393.6489717-2.4273705 0-3.5059098-.6489717-1.0785392-1.8407115-1.7102844-3.0975943-1.6420451h-.45c-1.2568828-.0682393-2.4486226.5635059-3.0975943 1.6420451-.6489717 1.0785393-.6489717 2.4273705 0 3.5059098.6489717 1.0785392 1.8407115 1.7102844 3.0975943 1.6420451z"/><path d="m49.17 144.37h-.45c-1.2568828-.068239-2.4486226.563506-3.0975943 1.642045s-.6489717 2.427371 0 3.50591 1.8407115 1.710284 3.0975943 1.642045h.45c1.2568828.068239 2.4486226-.563506 3.0975943-1.642045s.6489717-2.427371 0-3.50591-1.8407115-1.710284-3.0975943-1.642045z"/><path d="m78.62 160.67c-4.39 0-4.39 6.8 0 6.8s4.38-6.8 0-6.8z"/><path d="m87.22 198.73h-.45c-1.2568828-.068239-2.4486226.563506-3.0975943 1.642045s-.6489717 2.427371 0 3.50591 1.8407115 1.710284 3.0975943 1.642045h.45c1.2568828.068239 2.4486226-.563506 3.0975943-1.642045s.6489717-2.427371 0-3.50591-1.8407115-1.710284-3.0975943-1.642045z"/><path d="m118.93 211.41c-4.38 0-4.38 6.79 0 6.79s4.38-6.79 0-6.79z"/><path d="m108.51 259.43c-4.38 0-4.38 6.79 0 6.79s4.38-6.79 0-6.79z"/><path d="m170.57 246.74c1.870977-.016294 3.383706-1.529023 3.4-3.4v-.45c0-1.877768-1.522232-3.4-3.4-3.4s-3.4 1.522232-3.4 3.4v.45c.016294 1.870977 1.529023 3.383706 3.4 3.4z"/><path d="m93.56 101.33c4.39 0 4.39-6.79 0-6.79s-4.38 6.79 0 6.79z"/><path d="m35.58 49.69c-4.38 0-4.38 6.8 0 6.8s4.42-6.8 0-6.8z"/><path d="m193.4 253c-3.76-7-8.84-13.07-14.23-18.9-.63-.69-1.29-1.39-1.93-2.08-1.53-1.64-3.08-3.26-4.62-4.91-.19-.19-.36-.38-.54-.57-.62-.65-1.24-1.3-1.86-2l-1-1.11c-4.029768-4.266422-7.708393-8.851326-11-13.71-1.25-1.91-2.49-3.83-3.7-5.76-1.333333-2.113333-2.666667-4.233333-4-6.36-.72-1.17-1.43-2.34-2.13-3.52s-1.54-2.57-2.3-3.86c-5-8.43-9.84-16.95-14.71-25.43-.44-.79-.91-1.58-1.35-2.36l-1.58-2.74c-.45-.78-.9-1.56-1.36-2.33l-2.08-3.59c-4.106091-6.703675-7.822257-13.638515-11.13-20.77-1-2.19-1.84-4.41-2.6-6.68-.32-.91-.62-1.83-.9-2.77-2-7-3.56-14.17-5.13-21.32-.19-.88-.4-1.78-.59-2.66-.42-1.84-.84-3.66-1.27-5.48-.07-.26-.13-.53-.21-.8-.19-.83-.42-1.7-.65-2.62-.3-1.16-.63-2.4-1-3.67-1.73-6.49-4.04-14.48-6.53-22.77-1.07-3.66-2.17-7.35-3.27-11-.47-1.57-.94-3.1-1.39-4.64-4.91-16.38-9.34-30.83-10.14-33.68-.91-3.45-1.3-8.32-3.31-11.36-3.51-5.3-8.8-3.44-14.22-2.17-9.9237069 2.35410599-19.6978078 5.2993595-29.27 8.82-5 1.8-10.11 3.31-15.51 2.8-2.1-.21-4.18-.65-6.27-1-.1779762-.1324855-.4093953-.1698111-.62-.1-1.60234331-.2700356-3.22509614-.400525-4.85-.39-5.07.07-5.3 4.87-5.15 8.7.37 7.2 0 15.71 3.2 22.36.38093067.8321821 1.00499685 1.5294628 1.79 2 2.38 1.92 2.08 5.41 1.54 8.8-.43204108 2.0182873-.6532284 4.0759997-.66 6.14.06.68.14 1.36.22 2 .40184344 3.238802 1.16664954 6.4221396 2.28 9.49.23.65.48 1.31.72 2 1.05 2.85 2.12 5.69 3.18 8.53s2.18 5.81 3.2 8.73c.34 1 .66 1.91 1 2.88.85 2.63 1.67 5.28 2.37 8 .37 1.38.71 2.76 1 4.14.2.87.42 1.74.59 2.63.0099057.029182.0099057.060818 0 .09.48 2.13.91 4.28 1.31 6.42.17.89.34 1.8.49 2.7 1.3310814 7.944756 2.2224383 15.956953 2.67 24v.78c.22 4.12.36 8.23.41 12.38s0 8.08-.08 12.17c-.35 16.29 2.21 31.35 17 40.62 7.65 4.79 16.79 8.14 23.49 14.32.72.65 1.4 1.33 2.07 2 1.5211941 1.574454 2.9597892 3.226669 4.31 4.95.63.79 1.24 1.6 1.84 2.42 3.57 4.88 6.68 10.14 9.88 15.26 1.49 2.39 3 4.85 4.36 7.34.22.37.42.72.62 1.09.84 1.48 1.68 3 2.51 4.46 2.6 4.63 5.18 9.31 7.87 13.9.48.8.95 1.6 1.44 2.4.78 1.32 1.58 2.63 2.38 3.92.5.79 1 1.57 1.52 2.35 2.731654 4.270675 5.73799 8.359292 9 12.24 10.79 12.64 25.73 18.78 42.38 18.13 14.48-.57 29.84-6.09 36.58-20 5.92-11.96 6.32-26.91-.08-38.85zm-45.63-54.67c1.39 2.38 2.8 4.74 4.25 7.08 3.736737 6.137528 7.949688 11.972131 12.6 17.45l1.74 2c-5 2-10.25 2.2-14.57-1.34-4.7-3.86-9.29-10.45-9-16.84.061007-3.111169.874158-6.161346 2.37-8.89.354106-.644285.791165-1.239358 1.3-1.77zm-72.7-192.1c.42 1.41.81 2.82 1.16 4.26 1.12 4.28 2.25 8.58 3.36 12.87.68 2.57 1.35 5.15 2 7.72-.3202287.5241476-.7067535 1.0047828-1.15 1.43-1.1225879-2.524609-2.0975636-5.1123016-2.92-7.75-.88-2.69-2.23-5.54-2.65-8.34s-.17-4.88-1.23-7.5c-.8133333-2-1.6166667-4-2.41-6 1.8545954.17224843 3.3961896 1.50107053 3.84 3.31zm-5.29-3.4c1.22 2.77 2.8 5.75 3.36 8.64.5 2.6.24 4.94 1.08 7.5 1.59 4.83 2.92 9.83 5.17 14.41-.7465398.4530531-1.576137.752252-2.44.88-2.36-4.94-2.59-10.91-4-16.17-1.4123659-5.1424479-3.1696807-10.18386988-5.26-15.09.6917632-.10607708 1.3901871-.16288668 2.09-.17zm-3.44.46c2.4546502 5.6906412 4.4249667 11.5781745 5.89 17.6 1.06 4.43 1.44 9.24 3.28 13.45-.1830271.0149854-.3669729.0149854-.55 0-.48 0-1 .05-1.44.07-1.4678915-6.9734379-3.3750258-13.8471375-5.71-20.58-1.13-3.3-2.33-6.57-3.53-9.83-.0244177-.05500932-.0444793-.11185059-.06-.17zm-3.29.79c.86 2 2.37 7 2.6 7.64.85 2.46 1.71 4.93 2.5 7.42 1.56 5.0533333 2.8933333 10.1633333 4 15.33-.81 0-1.63 0-2.43 0-1.34-5.21-2.08-10.42-3.27-15.64-1.233931-4.9124007-2.8145596-9.73114574-4.73-14.42zm-2.65.65c2 5.1 4 10.29 5 15.7.84 4.77 1.71 9.39 2.92 14h-2.45c-1.45-4.94-1.81-10.09-3.31-15-1.44-4.73-3.24-9.35-4.26-14.2zm-3.4.86c1 4.88 2.91 9.46 4.26 14.24s1.85 9.81 3.21 14.62h-1.47c-1-4.62-3.89-8.5-4.62-13.26-.7385934-5.0927252-1.8686066-10.1209493-3.38-15.04zm-3.33.91c1.4597107 4.9433228 2.6086229 9.9731535 3.44 15.06.81 4.6 3.46 8.46 4.52 12.93h-.88c-.44 0-.86.08-1.28.11-1.859923-5.1926061-3.4191726-10.4880448-4.67-15.86-.83-4-1.49-8-3-11.71.61-.18 1.2-.37 1.85-.53zm-3.18.91c1.72 4.14 2.25 8.59 3.3 13 1.21 4.83 2.7 9.59 4.27 14.33-.89.11-1.76.22-2.65.35l-.62.11c-.2181986-1.3908195-.5085909-2.7693484-.87-4.13-.54-2.81-1.07-5.64-1.74-8.44-1.1209535-4.9116378-2.7566625-9.691394-4.88-14.26 1.05-.32 2.11-.66 3.17-.96zm-4.49 1.37c2.1605929 4.5376825 3.7913392 9.3091255 4.86 14.22.56 2.41 1 4.83 1.51 7.25.5073759 1.7005586.8752612 3.4396528 1.1 5.2l-.75.12-1 .22c-1.09-4.7-2.34-9.38-3.86-14-1.37-4.1-3.1-8.12-3.85-12.39.63-.18 1.31-.4 1.99-.62zm-3.32 1.06c.8 4.24 2.49 8.22 3.82 12.33 1.4933333 4.5533333 2.7766667 9.1633333 3.85 13.83l-2 .41c-1.83-4.4-2.12-9.15-3.33-13.73-1.1-4.18-2.41-8.31-3.66-12.46zm-2.58.84c1.6296094 4.8059415 3.0114278 9.6923718 4.14 14.64.76 3.89 1.32 7.75 2.76 11.42l-2 .4c-2.0093167-4.4883093-3.4439919-9.2123218-4.27-14.06-.5295591-3.9725637-1.4438547-7.8842754-2.73-11.68zm-3.81 1.32c.15-.05.32-.09.47-.15 1.65 4.51 2.08 9.24 3.09 13.93.8711931 3.9916706 2.1443542 7.884863 3.8 11.62l-.55.11c-.7.08-1.4.15-2.1.2-1.51-4.13-1.82-8.63-2.9-12.89-1.0331535-4.1075541-2.3155277-8.1483686-3.84-12.1.68-.23 1.34-.46 2.03-.72zm-3.29 1.14c1.6913649 4.3095795 3.0617674 8.7383192 4.1 13.25.86 3.81 1.23 7.78 2.52 11.46l-1.68.15c.0078608-.049691.0078608-.100309 0-.15-2-4.4-2.29-9.2-4.11-13.6-1.2917382-3.3826243-2.2953089-6.8683602-3-10.42.68-.21 1.4-.44 2.17-.69zm-3.52 1c.49 2.24.92 4.51 1.59 6.7.57 1.92 1.66 3.71 2.12 5.64.7695731 3.9803753 1.9078118 7.8805167 3.4 11.65-.64.08-1.27.17-1.91.28-2.86-7.79-3.58-16.17-6.51-23.94.42-.05.83-.16 1.29-.28zm-2.64.63c2.94 7.76 3.64 16.11 6.5 23.9-.4860193.098593-.9666527.2220891-1.44.37-2.45-8-5.06-15.86-7.11-23.92.67-.06 1.35-.12 2.03-.3zm-3.41.54c2.07 8.11 4.69 16.1 7.16 24.11l-.8.26-1.9.69c-1.62-8.3866667-3.5366667-16.7-5.75-24.94zm-2.68.2c2.26 8.3733333 4.21 16.81 5.85 25.31-.7423083.2449364-1.4966205.4518716-2.26.62-1.7498101-4.6107692-3.0361558-9.3843179-3.84-14.25-.6-3.81-.47-7.93-1.59-11.65.59.05 1.21.05 1.82.02zm-5.16-.13c.64.07 1.25.09 1.86.12 1.39 4.19 1.13 9 2 13.28.8259037 4.4100478 2.0132422 8.7446692 3.55 12.96-.7619201.065689-1.5280799.065689-2.29 0-1.42-8.82-2.6-17.74-5.19-26.31zm-1.59-.24c2.69 8.63 3.9 17.56 5.27 26.47-.1031098.0096116-.2068902.0096116-.31 0-.67-.12-1.28-.23-1.89-.31-.12 0-.25 0-.38 0 .0153445-.0859875.0153445-.1740125 0-.26-1.4866667-8.74-2.98-17.4766667-4.48-26.21.66.05 1.27.17 1.79.31zm-3.2-.68c1.5066667 8.9 3.0266667 17.7966667 4.56 26.69-.34 0-.67 0-1 0-.4389967.0269737-.8762686.077043-1.31.15-2.4-8.84-3.15-17.94-3.73-27.06.47.07.99.14 1.49.22zm-6.37 15.43c-.36-4-.79-8.08-.75-12.1-.00560073-.7034169.18112444-1.3949917.54-2 1.79705682 8.1529188 2.8315167 16.4553799 3.09 24.8-2.83-2.17-2.57-7.25-2.88-10.7zm1-15.18c.79647457-.3631048 1.6649113-.540895 2.54-.52.6 9.2 1.35 18.39 3.75 27.3-1.0054875.1413869-2.02977893.0594436-3-.24-.24306004-8.9340005-1.35835733-17.8228864-3.33-26.54zm10.64 66.29c-1.18-3-2.4-5.94-3.45-8.94-1.16288-3.1894373-2.0102664-6.4852009-2.53-9.84 2.0711723.6144247 4.0320833 1.552692 5.81 2.78 4.54 3.13 6.15 8.77 6.7 14 .4880257 3.6216226-.9256472 7.2389621-3.74 9.57-.29-.84-.59-1.7-.9-2.54-.58-1.7-1.23-3.35-1.89-5.03zm24.17 120.4c-10.16-9-11.54-21.47-11.38-34.2 1.58-.07 3.29-.07 5.08 0 .89 0 1.78.06 2.71.15 6.25.44 13.17 1.76 18.71 4.53 2.5708668 1.233855 4.8796838 2.951887 6.8 5.06.19.2.36.42.54.64.8779641 1.141768 1.6290532 2.3757 2.24 3.68.3964012.824636.7502003 1.669081 1.06 2.53.28.73.54 1.49.77 2.27s.37 1.29.52 1.94c.05.23.11.46.15.69.7344128 2.907676.7344128 5.952324 0 8.86-.39 1.16-.81 2.26-1.28 3.35-1.8760099 4.254731-4.1777338 8.308714-6.87 12.1-6.47-3.61-13.55-6.68-19.05-11.56zm46.76 42.73c-2.51-4.08-5.08-8.12-7.77-12.07-1.21-1.78-2.45-3.49-3.75-5.15 3.4941457-2.002827 7.5010473-2.931509 11.52-2.67 6.47.57 12.18 3.33 13 10.44s-3.35 12.58-8.57 16.88c-1.4533333-2.486667-2.93-4.963333-4.43-7.43zm23.66 39.53c-.88-1.38-1.75-2.76-2.62-4.16-.5-.8-1-1.6-1.49-2.42-.82-1.35-1.64-2.69-2.44-4.05-.49-.79-1-1.58-1.42-2.38-2.6-4.36-5.14-8.75-7.7-13.13 4.6951023-2.760678 8.387348-6.946859 10.54-11.95.003236-.059956.003236-.120044 0-.18.057916-.099312.108066-.202955.15-.31 3.93-10.6 1.24-23.88-10.87-27.82-8-2.6-17.06-.46-23.92 4.47-1.5574033-1.617129-3.2283213-3.120955-5-4.5 1.4897113-2.352583 2.7329483-4.852461 3.71-7.46 1.3380468-3.648172 2.3421669-7.410276 3-11.24.26-1.35.48-2.7.68-4.07.3889265-2.433384.3313195-4.917263-.17-7.33-.1939552-.887286-.4512817-1.759522-.77-2.61-.3045502-.869186-.6653117-1.717644-1.08-2.54-.41-.81-.86-1.63-1.36-2.46-.35-.6-.74-1.21-1.14-1.82-1.8546344-2.920417-4.1328345-5.54911-6.76-7.8-2.3268683-1.967855-4.9063853-3.615787-7.67-4.9-5.45-2.56-11.51-3.91-18-5.05-.88-.15-1.77-.31-2.66-.45l-4.58-.77c.06-1.72.13-3.43.17-5.11.07-2.84.1-5.64 0-8.36-.05-1.28-.12-2.56-.19-3.82 8-1.69 14.07-8 13.47-17-.53-8.14-6.7-15.73-18.26-16.92-.18-.8-.37-1.6-.57-2.4-1.04-4.313333-2.2266667-8.5733333-3.56-12.78 9.13-3.14 13.3-14.24 10-23.55-2.95-8.26-11.47-12.92-20.15-14.47 0-.2.06-.42.08-.62.42-3 .79-5.9-.19-8.35.49-.13 1-.32 1.47-.47 1.9626404-.6049767 4.0255783-.8156886 6.07-.62.89.09 1.8.22 2.8.37 1.2301003.2258437 2.4794942.3296807 3.73.31 1.049314-.0151952 2.0842127-.2466857 3.04-.68 1.16-.53 2.3-1 3.41-1.38 4.1908089-1.4069647 8.5351068-2.3067112 12.94-2.68.0499448.0033222.1000552.0033222.15 0h.2c3.23-.61 6.41-1.75 9.66-2.32.3596896-.0827038.7235417-.1461275 1.09-.19.56-.07 1.1-.14 1.64-.19 1.81-.18 3.61-.24 5.39-.25h2.82 3.74c5.38 0 10.25-.37 15.15-2.34 1.6533333 4.78 3.2533333 9.5766667 4.8 14.39-1.25.42-2.52.89-3.78 1.31-5.37 1.79-10.07 4.25-13.44 8.78-.2297171.1879643-.411391.427911-.53.7-.1769412.2461272-.2934197.5304719-.34.83-7.28 17.37 13.86 31.3 29.1 27.01.3 1.22.59 2.46.86 3.69.2.87.39 1.74.58 2.61.47 2.12.9 4.26 1.35 6.39l.57 2.66c1.558527 8.13341 3.666694 16.151797 6.31 24 .78 2.21 1.65 4.4 2.62 6.55.034335.071484.064388.144947.09.22 3.935887 8.510096 8.339273 16.796074 13.19 24.82.44.78.91 1.55 1.37 2.33s1 1.71 1.52 2.55.92 1.55 1.4 2.33l.05.09c.17.27.33.55.49.82 2.79 4.63 5.59 9.24 8.31 13.89 2.05 3.5 4.06 7.08 6.1 10.65-8.41 5.11-13 16.43-9.07 25.72 5.36 12.62 18.69 20.05 31.69 14.64.166961-.044098.32809-.107879.48-.19 1.244718-.704032 2.419965-1.524361 3.51-2.45 1.37 1.44 2.78 2.88 4.18 4.35.68.68 1.35 1.37 2 2.08 3.939956 3.987668 7.557932 8.281089 10.82 12.84-9.017482 1.184259-17.735871 4.036132-25.71 8.41-3.85-8.07-12.83-13.25-21.77-13.63-.195009-.036115-.394991-.036115-.59 0-.198593.002343-.396372.025808-.59.07-12.11 1.3-22.11 10.14-20.4 23 1.15 8.72 5.88 15.63 12.68 19-2.922391 4.191969-5.577655 8.56397-7.95 13.09-4.846477-4.302774-9.040489-9.288427-12.45-14.8zm50.65 25.22c-10.3.77-22-.15-31.12-5.42-1-.61-2-1.27-3-2 .070357-.056561.131137-.124094.18-.2 2.733579-4.913751 5.863989-9.595989 9.36-14 4.965931-6.338378 10.772723-11.970226 17.26-16.74.75-.55 1.49-1.09 2.25-1.63s1.47-1 2.22-1.54c1.64-1.1 3.32-2.17 5-3.15l.16-.1c.77-.42 1.54-.84 2.33-1.22 2.40052-1.230604 4.933553-2.183427 7.55-2.84 6.09-1.5 12.29-2.54 18.43-3.71 1.951031 4.225195 3.08109 8.78276 3.33 13.43 1.01 20.92-12.66 37.5-33.97 39.12z"/></g></svg>