<svg height="320" viewBox="0 0 320 320" width="320" xmlns="http://www.w3.org/2000/svg"><g fill="#262626" transform="translate(71 19)"><path d="m121.47 74c2.387431 1.8578755 5.802706 1.5646856 7.838555-.6729134 2.035848-2.2375991 2.005979-5.6653058-.068555-7.8670866-.68-.75-2.55-2.15-3.62-2.06-1.780002.2102291-3.462795.9249824-4.85 2.06-2.9 2.54-2 5.81.45 8.37.066172.0785148.152657.1373247.25.17z"/><path d="m137.13 100.64c-.08251-.061615-.178479-.102744-.28-.12-.616263-.202595-1.261302-.303911-1.91-.3-1.484699.357741-2.788905 1.242611-3.67 2.49-.94 1.08-.54 2.79-.18 4 .435866 1.171769 1.342536 2.107453 2.5 2.58 1.552319.63236 3.324081.388533 4.64788-.639635 1.3238-1.028168 1.99852-2.684472 1.770001-4.345-.22852-1.660528-1.325562-3.073005-2.877881-3.705365z"/><path d="m139.79 80c-.112873-.0900792-.256182-.1330717-.4-.12-.049529-.009706-.100471-.009706-.15 0-2.367624.1676253-4.515667 1.4475476-5.79 3.45-1.45 2.08 1 5.53 3 6.18 2.57.84 6.36-.37 7.07-3.34.557425-2.7149358-1.066976-5.4019485-3.73-6.17z"/><path d="m121.63 121.83c-2.67 6.41 7.8 10.3 10.79 4.34 0 0 0-.06 0-.09s0 0 .05-.08c2.23-6.53-8.26-10.34-10.84-4.17z"/><path d="m101.72 70.67c2.73051 1.2753757 5.982283.2176755 7.44-2.42 1.68-2.93-.1-6.42-2.83-7.85h-.1-.07c-2.76-1-6.56-.28-7.71 2.78-1.0845846 2.9692882.3550637 6.2668311 3.27 7.49z"/><path d="m124 82.42c-1.59-2.51-4.87-4.15-7.73-2.6-1.308672.6675727-2.283034 1.8465924-2.692129 3.2575909-.409095 1.4109984-.216501 2.9283569.532129 4.1924091 1.31 2.43 5 4.31 7.63 3 3.08-1.54 3.75-4.93 2.26-7.85z"/><path d="m99.94 90.67c2.39-.68 3.45-3.41 3.08-5.66.023713-.0952125.023713-.1947875 0-.29-.810649-2.4001476-3.155885-3.9361118-5.68-3.72-1.2049586.2539115-2.2612894.9725039-2.94 2-.7825602 1.1200478-1.044901 2.5228426-.72 3.85.7485137 2.72814 3.4915553 4.4020088 6.26 3.82z"/><path d="m92.11 103.73c-.9160988-1.199246-2.2922326-1.960429-3.7949617-2.099113-1.5027292-.138685-2.9949295.357785-4.1150383 1.369113-2.75 2.27-3.21 5.62-.91 8.34.0345815.096237.0972954.179855.18.24.0618425.074378.1407508.132702.23.17 2.15 1.67 5.34 2.06 7.49.1 2.4203666-2.029646 2.824923-5.600297.92-8.12z"/><path d="m112.53 96.7c-.70646-.2102352-1.449489-.2681778-2.18-.17-1.212633.345535-2.253427 1.1296947-2.92 2.2-1.65 2.36-.36 5.58 2 6.82 2.66 1.42 5.74-.52 6.83-3s-1.39-5.37-3.73-5.85z"/><path d="m100.81 118.67c-2.18413-.505228-4.4077935.670503-5.22 2.76-.9682266 2.621977.3138456 5.539796 2.9 6.6 1.2211542.405264 2.555176.291046 3.689665-.315906 1.13449-.606951 1.969806-1.65333 2.310335-2.894094.69-2.08-1.13-6.41-3.68-6.15z"/><path d="m92.37 148.41c2.5720138.996909 5.4790324-.141565 6.69-2.62 1.37-2.75-.2-5.54-2.47-7.11-2.56-1.76-6 .68-7.06 3.06v.06c0 .06 0 .06-.05.11-.8349062 2.586609.4102517 5.387137 2.89 6.5z"/><path d="m113.07 140.5c-1.86606-.612411-3.911443.095291-5 1.73-.068976.068389-.123401.150027-.16.24-.050999.085231-.081787.181016-.09.28-.810943 1.886618.032671 4.075576 1.9 4.93 1.77.81 4.56-.16 5.17-2.07s.38-4.37-1.82-5.11z"/><path d="m79.85 139.24c.1046998.028969.2153002.028969.32 0 .1002347-.021456.1953358-.062213.28-.12 5.82-2.27 3.29-11.69-3-10.35-2.8.6-4.08 3.58-3.69 6.15.39 2.73 3.47 4.62 6.09 4.32z"/><path d="m60.42 156.57s0 .06.06.09c.6928975.809379 1.6800706 1.308874 2.7426074 1.38772 1.0625368.078845 2.112622-.269476 2.9173926-.96772 1.83-1.77 1.64-4.29.39-6.37s-4.08-1.39-5.8-.21c-2 1.39-1.63 4.24-.36 6z"/><path d="m81 156.39c-6-1.19-8.48 8.05-2.39 9.54h.12.07c2.88.32 5.06-.81 5.93-3.61.3965391-1.286282.2123982-2.681541-.5042687-3.820907-.7166668-1.139366-1.8945886-1.909531-3.2257313-2.109093z"/><path d="m100.82 166c-.9518896-.088695-1.8997124.20702-2.6322909.821259-.7325785.614238-1.1890492 1.49597-1.2677091 2.448741-.23 2.22 2.15 3.61 4 3.84 2.1.1 3.75-1.06 3.85-3.24.06-1.87-2.23-3.66-3.95-3.87z"/><path d="m93.55 184c-2.68.94-4.38 3.44-3.61 6.25.7 2.53 3.84 4.08 6.31 3.7 3.1-.46 4.34-4.11 3.46-6.8-1.12-2.86-3.11-4.15-6.16-3.15z"/><path d="m75.14 182.08c-1.84 1.84-1.26 4.83.53 6.44h.09v.05c1.77 1.26 4.94 1.45 6.27-.62 1.3139029-2.176627 1.062867-4.954218-.62-6.86-1.62-1.57-4.85-.43-6.27.99z"/><path d="m52.44 184.67c.950519.710242 2.1444264 1.013419 3.3186469.842725 1.1742206-.170693 2.2323937-.801249 2.9413531-1.752725 1.69-2.21.34-5.55-1.58-7.1s0-.06-.09-.08c-2.55-1.52-4.87-.23-6.44 2s-.11 4.71 1.85 6.09z"/><path d="m68.43 208.85c-3.38 1.63-4.51 4.42-2.93 7.94 1.4604619 2.761542 4.7403289 4.014477 7.67 2.93 2.73-1 4.37-4.64 2.89-7.26s-4.61-5.07-7.63-3.61z"/><path d="m50.79 211.58c2.32-1.12 2.92-3.7 2.29-6.12-.83-3.18-3.75-4-6.54-2.79-2.1944536 1.055611-3.3092792 3.538632-2.64 5.88.78 2.93 4 3.9 6.62 3.17.0992926-.026004.1915331-.073832.27-.14z"/><path d="m46.53 227.05c0-2.43-1.83-5.19-4.4-5.24-1.82 0-5.17 1.47-5.12 3.67.06 2.78 1.12 4.28 3.79 5.13 1.1901302.350497 2.4716959.20093 3.54913-.414208 1.077434-.615137 1.8577089-1.642733 2.16087-2.845792.0044983-.036529.0044983-.073471 0-.11 0 0 0-.05 0-.08s0-.06 0-.09z"/><path d="m60 232.89c-1.1066096.561412-1.9415536 1.543528-2.3175583 2.726063-.3760048 1.182534-.2615984 2.46651.3175583 3.563937.0162458.100119.0537543.195595.11.28.0534148.087254.1210089.164987.2.23 1.6165877 1.889756 4.3762951 2.304196 6.476646.972634 2.100351-1.331562 2.9028506-4.00434 1.883354-6.272634-1.35-2.13-4.67-2.58-6.67-1.5z"/><path d="m56 247.66c-4.57-2.2-8.34 5.25-4.06 7.8.0399028.003944.0800972.003944.12 0 2.1388079.833874 4.567587.011631 5.76-1.95.9937348-2.127494.2052965-4.66176-1.82-5.85z"/><path d="m39.93 239s0-.07-.06-.09c-1.9674925-2.2526-5.3463416-2.589609-7.72-.77-1.0820044.782421-1.7952923 1.974788-1.9730034 3.298168-.177711 1.32338.1957444 2.661681 1.0330034 3.701832 1.9 2.43 4.88 3.4 7.68 1.93 3.14-1.65 3-5.51 1.09-8 .02-.07.02-.07-.05-.07z"/><path d="m176.21 30.7c-.067798-.0437362-.137899-.083794-.21-.12-5.514696-1.649061-11.244149-2.4680357-17-2.43-7.41 0-13.3-2.42-20.19-4.95-7.180658-2.4361432-13.599588-6.707386-18.62-12.39-3.58-4-7.07-7.75-11.6-10.62-.365231-.21006988-.806809-.24039932-1.197331-.08223774-.390523.15816158-.686549.48722061-.802669.89223774-2.993805 12.4595151-8.81007 24.0646751-17 33.92-.5181831.5351118-.5181831 1.3848882 0 1.92 1.8241141 1.6067053 3.8116433 3.0177505 5.93 4.21-7.81 17.59-15.52 35.24-21.05 53.74-2.8853541 9.620607-6.7069663 18.935158-11.41 27.81-3.72 7.15-5.92 15-9.42 22.18-.0924293.085669-.1731283.18318-.24.29-12.94 24.06-15.84 51.81-30.48 75.18-9.06 14.48-37.79 42.75-13.2 57.34 8.43 5 20.81 4.25 29.87 1.83 10.94-2.91 19.73-11.32 26.59-19.92 7.93-9.93 13.4-21.59 19.91-32.45 3.7703013-6.418934 8.2811778-12.373023 13.44-17.74 4.43-4.54 14.63-12.75 14.85-12.9 9.86-6.5 21.84-9 30.14-17.79s4.15-19.74 1.42-29.85c-4-14.7-3.33-30.39.5-45 1.7-6.52 4.59-12.66 7-18.95 2.51-6.55 4.06-13.46 5.65-20.28 2-.25 4-.54 5.91-.86.467304-.1178151.832185-.4826959.95-.95 1.823056-10.6762761 5.771071-20.8778665 11.61-30 .286438-.4445361.282299-1.0165368-.010541-1.4568816-.29284-.4403447-.818738-.6653625-1.339459-.5731184zm-17.35.3c-3.86 10.22-7.4 20.58-8.86 31.5-1.38 0-2.74 0-4.08-.12 3.94-10.3 5.77-21.3 10.39-31.34.87-.04 1.69-.04 2.55-.04zm-6-.17c.22 0 .45.08.68.11-4 10.15-6.58 20.73-9.09 31.32-.72-.07-1.44-.13-2.14-.24.7-2.4.48-5.25.8-7.65.13-.9.28-1.79.45-2.68 2.233053-7.1930455 4.836528-14.2658205 7.8-21.19.5.0866667 1 .18 1.5.28zm-6-1.59c-4 10.32-6.67 21.13-11 31.3-1.356961-.4116441-2.69203-.8922691-4-1.44 2.446667-4.98 4.78-10.0133333 7-15.1 2.17-5 3.77-10.53 6.44-15.27.466667.18.976667.3333333 1.53.46zm-3.86-1.37c-2.233333 5.3333333-4.466667 10.6666667-6.7 16-2 4.76-4.48 9.57-5.92 14.56-1.564328-.723924-3.086729-1.5352035-4.56-2.43 4.52-9.79 9.45-19.5 12.87-29.74 1.41.55 2.84 1.09 4.31 1.61zm-6.38-2.49c-3.93 9.88-9.62 19-13.12 29-1-.7-2-1.44-3-2.24 3.08-4.61 6.3-9.16 9-14 2.266585-4.292623 4.176353-8.7643569 5.71-13.37zm-3.42-1.38c-3.23 9.75-8.44 18.57-13.79 27.28-.4-.35-.81-.68-1.21-1s-1.08-.93-1.64-1.36c2.46-9.43 8.77-18 13.78-26.32.926352.5198796 1.881191.9872834 2.86 1.4zm-7.32-4.5c-4.18 9.06-8.47 18.12-14.55 26.07-.77-.4-1.55-.79-2.33-1.15l4.59-9.42c.38-.77.75-1.55 1.13-2.32s.74-1.54 1.12-2.3c2.306471-4.4192074 5.014546-8.6168908 8.09-12.54.63.55 1.28 1.09 1.95 1.63zm-5.46-5c.71.72 1.43 1.43 2.16 2.12-3.5 2.84-5.35 6.71-7 10.85-2.3 5.62-5.4 10.83-7.79 16.4l-2.31-1-.23-.1c6-6.83 9.08-16 13.13-24.28.5-.95 1-1.9 1.46-2.86.16-.45.37-.81.58-1.18zm-3.23-3.32 2.18 2.25c-.2.42-.4.84-.61 1.25s-.47.88-.7 1.32c-2 3.8-4.39 7.43-6.14 11.36-2.27 5.1-5.37 9.9-8.17 14.74l-2-.89c1.970477-4.9651724 4.203631-9.8220319 6.69-14.55 1.33-2.35 2.82-4.6 4.16-6.94 1.59-2.87 2.63-5.97 4.59-8.59zm-22.75 22.09c6.728864-8.8357975 11.599967-18.9419757 14.32-29.71 1.372664.98012637 2.685041 2.04204955 3.93 3.18-1.15 1.76-1.44 4.6-2.09 6.41-1.450622 3.6669353-3.120299 7.2433817-5 10.71-1.55 3.1-2.17 6.42-4.13 9.35-1.06 1.58-3.53 3.66-4.52 5.66-2.57-1.31-4.74-2.74-2.51-5.6zm-84.68 210.28c.78.29 1.55.59 2.33.9-3.77908083 4.973697-6.75830362 10.507022-8.83 16.4.49-5.85 3.31-12.23 6.5-17.3zm-6.39 21.55c2.05344838-7.312657 5.68156987-14.087653 10.63-19.85.54.22 1.06.49 1.59.72-1.44 2.69-2.84 5.47-4.3 8.24-2.55 4-5.15 8-7.71 12-.08-.35-.16-.72-.21-1.11zm.76 3c3.17067988-4.087138 5.933844-8.474708 8.25-13.1 1.72-2.71 3.42-5.44 5-8.21 1 .48 2 1 3 1.52-5 7.49-10.19 14.94-14.6 22.82-.68973616-.927392-1.24520821-1.94744-1.65-3.03zm5.11 6.22c-.88290028-.5728-1.69809425-1.243742-2.43-2 2.73-3.61 5.26-7.34 7.73-11.13s4.61-8.77 8-11.72c.72.4 1.43.81 2.15 1.23-2.68 3.78-5.89 7.1-8.27 11.1s-4.81 8.34-7.18 12.52zm2.9 1.52c2.41-4.76 4.87-9.49 7.64-14.06 1.41-2.33 3-4.57 4.59-6.76.56-.75 1.8-1.81 2.58-2.92.86.55 1.71 1.11 2.56 1.69-2.1846041 2.580186-4.0980071 5.378244-5.71 8.35-.65.87-1.29 1.73-1.91 2.61-1.31 1.88-2.57 3.79-3.82 5.71-1.4277758 1.946064-2.7207925 3.987494-3.87 6.11-.6990826-.206764-1.386714-.45044-2.06-.73zm3.48 1.16c1.45-2.39 2.94-4.74 4.47-7.07 1-1.39 2-2.76 3-4.16.71-1 1.37-2.07 2-3.13 1.95-2.6 4-5.16 5.79-7.84l.87.61c.37.27.71.57 1.06.85-5.9373813 6.380251-10.9832454 13.535287-15 21.27-.68-.19-1.43-.36-2.19-.53zm3.88.84c4.9-6.8 9-14.32 14.74-20.44.51.44 1 .91 1.5 1.38-4.7529158 6.206796-9.0954866 12.717312-13 19.49-1.04-.13-2.13-.27-3.24-.46zm4.87.55c4.012148-6.217155 8.3759125-12.20022 13.07-17.92.45.46.89.93 1.33 1.4-1.82 2.94-3.66 5.86-5.52 8.76-1.9266667 2.666667-3.9266667 5.266667-6 7.8-.93-.02-1.89-.02-2.88-.07zm9.49-.65c-1 .19-2 .36-3 .47 3.3781224-4.639674 6.5059146-9.456541 9.37-14.43.0447065-.080054.0719701-.168661.08-.26.47.52.94 1 1.42 1.54-2.9861657 3.947159-5.606971 8.157852-7.83 12.58-.015059.022304-.0284296.045703-.04.07zm8.14-5.2c-.0601504.038248-.1141058.085459-.16.14-.0342107.048545-.0709271.095275-.11.14-.8408093 1.069468-1.6219955 2.184495-2.34 3.34h-.06c-.0975221.030451-.1889184.077842-.27.14-1.11.37-2.23.7-3.38 1 2.2839183-3.730107 4.7988245-7.313765 7.53-10.73.53.55 1.06 1.1 1.6 1.64-.9066667 1.286667-1.7633333 2.62-2.57 4zm.77 2.35c.34-.5.67-1 1-1.52.9718598-1.136237 1.8293397-2.365515 2.56-3.67.76.7 1.53 1.39 2.34 2-1.8881306 1.208483-3.863587 2.274761-5.91 3.19zm73.64-82.8c-.19-2-.29-3.92-.33-5.86 1.440805 1.217709 2.71508 2.619748 3.79 4.17-1.19.6-2.36 1.11-3.47 1.69zm5.28-2.53c-.011546-.075381-.031677-.149194-.06-.22-1.336922-2.416678-3.237404-4.474961-5.54-6 0-1.33.07-2.66.17-4l.21.19c1.34595 1.346192 2.761206 2.621258 4.24 3.82 1.732458 1.624321 3.689072 2.991593 5.81 4.06-1.63.74-3.25 1.44-4.84 2.15zm6.82-3.05c-4.39525-3.163014-8.38221-6.857754-11.87-11 .1-.76.21-1.52.33-2.27 5.063921 3.567529 9.796358 7.583742 14.14 12-.86.47-1.74.87-2.61 1.27zm3.88-1.87c-4.639398-4.752918-9.718771-9.055485-15.17-12.85.13-.68.25-1.36.4-2 6.278327 3.667459 11.907484 8.347161 16.66 13.85-.62.36-1.28.67-1.9 1zm3.12-1.76c-4.52-6.47-10.78-11.14-17.4-15.29.2-.78.39-1.57.61-2.34.022055-.091303.048756-.18142.08-.27 6.58 5.333333 13.276667 10.526667 20.09 15.58-1.08164.84173-2.213754 1.61651-3.39 2.32zm4.49-3.26c-6.6-5.93-14.1-10.78-20.42-17 .17-.48.34-.95.52-1.42 8.38 4 15 10.44 21.37 17-.473333.5-.963333.973333-1.47 1.42zm2.37-2.43c-6.49-6.7-13.22-13.28-21.75-17.26.32-.77.66-1.53 1-2.28 8.020322 4.965733 15.56857 10.656208 22.55 17-.532055.895263-1.137465 1.744843-1.81 2.54zm3-4.71c-7.24-6-14.61-11.93-23.06-16.18.52-1 1-2 1.62-3 8.85 3.34 15.85 9.72 22.36 16.42-.245688.945474-.570156 1.868703-.97 2.76zm1.23-4.42c-6.42-6.54-13.34-12.64-22-16l.26-.44c.31-.52.63-1 1-1.48l20.93 14.69c.015729 1.081647-.064586 2.162555-.24 3.23zm-.49-8.21c.23 1.09.41 2.17.53 3.26l-20-14c.512687-.649152 1.060155-1.270062 1.64-1.86 1.454247 1.069153 2.992597 2.018916 4.6 2.84 4.69627 2.822973 9.10995 6.091373 13.18 9.76zm-2.11-7.85c.39 1.41.8 2.8 1.18 4.19-1.94-1.47-3.91-2.88-6-4.17-1.66-1-3.43-1.91-5.17-2.82-1.58-1-3.146667-2-4.7-3 .698852-.619216 1.433448-1.196876 2.2-1.73 4 2.74 8.43 4.79 12.49 7.53zm-4-8.09c.83.7 1.72 1.25 2.56 1.88.2.93.4 1.86.61 2.79-.92-.54-1.9-1-2.9-1.5l-7.2-3.58c1.290621-.769581 2.626366-1.46083 4-2.07zm-1.59-3.07c1-.42 2-.83 3-1.25.2 1.43.45 2.86.72 4.28-.28-.19-.56-.39-.84-.61-1-.79-1.96-1.61-2.93-2.43zm6.88-42.46c-4.09 11.6-5.23 24.16-4.38 36.37v.48c-26.54 5.71-29.14 36.63-28.6 58.94-7.5 7.42-15.81 13.59-22.29 22.08-6.9 9.06-11.92 19.47-17.67 29.26-5.58 9.49-12.68 18.37-21.2 24.49-4.76-5.74-9.24-12.23-15.41-16.49-7.54-5.2-16.1-8.38-23.89-13.07 6.9-9.5 13.89-18.74 19.38-29.17 10.17-19.27 13.13-41.46 22.61-61.09l.06-.06c4.85-8.26 7.25-17.6 11.51-26.15 3.94-7.94 8-15.26 10.39-23.84 5.56-20 13.72-38.91 22.17-57.8 2.58 1.31 5.28 2.46 8 3.63 6.7 2.9 11.39 7.65 17.06 12 9.31 7.15 21.63 8 33.15 6.86-2.85 11.57-6.96 22.29-10.94 33.55zm9.55-36.07c-1.13.09-2.24.17-3.33.2 2.82-10.69 5.72-21.36 9.85-31.6402869h.14c1.27636-.0050869 2.55192.0650355 3.82.2102869-4.32 10.07-9.32 20.22-10.53 31.22zm12.78-16.12c-1.125149 2.9135284-2.073538 5.8922705-2.84 8.92-1 3.79-1.24 5.31-3.51 6.16 1.625051-10.2009716 5.350332-19.9534456 10.94-28.64.045913-.0767156.07648-.1616229.09-.25.67.17 1.33.35 2 .54-2.595511 4.2322497-4.846113 8.6665712-6.73 13.26z"/></g></svg>