<svg height="320" viewBox="0 0 320 320" width="320" xmlns="http://www.w3.org/2000/svg"><path d="m86.06 171.9c-3-56.38 0-113.16 1-169.56.0000115-.42410737-.1949878-.82466645-.5288097-1.08625783-.3338218-.26159137-.7693874-.35515915-1.1811903-.25374217l-10.45 2c-5.08 1-11.65 3.26-16.73 1.59-7.43-2.45-14.53 2.92-21.64-.3-5.53-2.49-8.38-4.08-14.59-2.82-5.11 1.05-9.12.75-14.17-.06-2.06538954-.33950781-4.18421661-.11137961-6.13.66-.28886955-.04855101-.58501308.02344726-.81935002.19919997-.23433695.1757527-.38637547.43989098-.42064998.73080003-1.92 13.39 3.52 28 6.32 40.93 3.13 14.48 8.78 28.13 11.94 42.55 3.4160528 15.393064 4.0527348 31.27286 1.88 46.89-1.1450902 7.638407-3.3111281 15.088367-6.44 22.15-.56 1.28-1.14 2.53-1.74 3.77-1.77 3.71-3.62 7.32-5 11.16-.28.13-7.23 18.84 3.39 35.74 2.5770526 3.936108 6.0437183 7.210942 10.12 9.56 6.46 4 14.09 6.43 20.6 9.75 12.49 6.36 22.87 16.43 31.14 27.61 3.9844587 5.475804 6.8119221 11.705751 8.31 18.31 1.75 7 4.81 13.59 7.72 20.12.5209363 1.951287 1.1895313 3.860126 2 5.71.8593739 1.752474 1.9937233 3.356093 3.36 4.75 1.6017982 1.654927 3.308675 3.204811 5.11 4.64 6.78 5.58 15.33 8.42 24 9.3 8.44.88 17.29-1.07 22.68-7.95 4.47-5.71 6.35-13.06 6.83-20.26.1-1.59.14-3.18.12-4.75-.74-46.98-58.69-66.72-66.68-111.08zm-7.74-166.78 6-1.13c-.2133333 11.34-.4866667 22.6766667-.82 34.01-1.33.7-2.69 1.35-4.08 2 .5947067-4.9804939.6282502-10.0120197.1-15-.71-6.68-2.23-13.2-1.2-19.88zm-9.39 14.56c.21-4.22.55-8.45.34-12.69 1.29-.31 2.56-.64 3.73-.86l2.41-.46c-.278081 5.6117849.1995298 11.2354844 1.42 16.72 1.22 6 1.13 12.24.88 18.36-2.25 1-4.57 1.9-6.9 2.69-.21-4.57-1.24-9-1.73-13.61-.08-1.37-.15-2.75-.17-4.13-.03-2.01 0-4.02.02-6.02zm-8.12-11.79c.517343.06772408 1.0382725.10445628 1.56.11 1.6164935.00342074 3.2277076-.18455423 4.8-.56.4531668 4.3844405.5968559 8.7953618.43 13.2-.07 1.76-.14 3.54-.12 5.32 0 1 .07 2 .15 3 .22 5 .88 10 1.57 14.92-2.06.65-4.14 1.22-6.25 1.67-.2-5.27-1.85-10.33-2.7-15.54-1.25-7.26-.49-14.82.56-22.12zm-1.32-.25c-.9923835 6.2141853-1.3275654 12.5156046-1 18.8.44 6.57 2.91 12.87 3.1 19.44-3.0452672.6000368-6.1368689.9346257-9.24 1 .5-6-.42-12 .08-18 .4912762-7.4539228 1.799105-14.8314187 3.9-22 1.04.22 2.08.52 3.16.76zm-15.81.55c2.15-.32 4.37-1.13 6.31-1.62 1.340058-.315408 2.7274146-.37646526 4.09-.18-2.24 6.68-2.24 13.2-3.37 20.06-.57 3.48-.15 6.62 0 10.1s.12 6.89.11 10.34c-1.8594043-.0116729-3.7162976-.1385829-5.56-.38l-2-.29c.0211072-5.7584274-.3128598-11.5126781-1-17.23-.71-6.99.42-13.86 1.42-20.8zm-8.78 18.9c-.34-7-1.3-13.85-.4-20.79l.66.34c1.9483503 1.00176661 4.0911253 1.56816891 6.28 1.66.0461296-.01001292.0938704-.01001292.14 0-3.06 12.44-.29 25.11.2 37.72-2.66-.37-5.31-.73-8-1.18 1.0474784-5.85478 1.4232439-11.8099914 1.12-17.75zm-2.12-21.59c-1.57 13 1.16 26.12-.31 39.11-1.72-.32-3.45-.66-5.16-1.06 1.235008-6.8362747 1.6346042-13.7973076 1.19-20.73-.1474745-2.6601843-.5018792-5.3048454-1.06-7.91-.81-3.68-2.32-7.1-2.84-10.84 2.8029537-.20685362 5.6134654.28447056 8.18 1.43zm-12.34-.87c.68-.14 1.34-.25 2-.34 1.79 6.07 3.62 11.89 3.9 18.29.14 3.48.23 6.94.14 10.41s-.66 6.79-.54 10.22l-.38-.1-6.33-1.72c.8778581-6.1754128 1.002102-12.4346148.37-18.64-.55-6.18-3-11.7-3.54-17.88 1.4643501.09427241 2.9347172.01370435 4.38-.24zm-12 34.58c-.43333333-2.14-.88-4.26-1.34-6.36-2-9.13-5.26-18.93-4.16-28.33 1.16035507-.31386581 2.35797612-.46861459 3.56-.46034078.31 1.41034078.71 2.79034078 1.14 4.15034078.78 3.74 2 7.31 3.16 11.07.5211725 1.6929906.938614 3.416189 1.25 5.16 0 1.79-.06 3.63 0 5.29.09 3.35.19 6.71.3 10.05-1.3-.23-2.59-.43-3.9-.57zm4.79-15.61c-.06-.87-.08-1.74-.15-2.61-.2-2.75-1.62-5.32-2.57-7.84-.24-.64-.46-1.29-.68-1.93-.68812906-2.3235851-1.17328299-4.70251231-1.45-7.11 1.91.12 3.86.42 5.8.61.33 5.74 2.73 11.06 3.29 16.77.64 6.43.28 13.07.35 19.54-1.36-.35-2.73-.69-4.12-1 .2875822-2.2116796.4312178-4.4397021.43-6.67-.0031297-3.2739072-.3043735-6.5407287-.9-9.76zm4.58 50.66c-.6666667-2.04-1.3133333-4.0833333-1.94-6.13 6-1.3 11.94-.84 18-.31 6.3639995.6272875 12.7766197.5770056 19.13-.15 5.5991281-.7778308 11.148442-1.8796802 16.62-3.3 4.5989972-.9621026 9.0600794-2.4939199 13.28-4.56-.08 3.24-.16 6.46-.25 9.69-5.159084.3221927-10.270269 1.1835531-15.25 2.57-6.4 1.93-13.02 1.33-19.6 1.28l-18.26-.15c-2.83-.03-8.81-.88-11.73 1.06zm21.85 60.06c5 1 9.83 2.49 14.77 3.55 9.15 2 18.55 2.8 27.78 1 0 2.84.12 5.69.19 8.53-5.3628033.665383-10.7924706.574496-16.13-.27-4.8-.76-9.55-1-14.26-2.35-9.77-2.8-20-3.44-30.14-4.08.33-1.41.63-2.83.9-4.25.22-1.09.38-2.18.54-3.26 5.4746626-.204916 10.9555798.173887 16.35 1.13zm-15.38-25c5-.07 9.75 1.4 14.55 2.52 5.1066667 1.206667 10.24 2.296667 15.4 3.27 9.06 1.74 18.62.5 27.8 0v8.87l-14-1.24c-5.34-.47-10.27-1.88-15.45-3.16-9.209673-2.209884-18.6966146-3.038938-28.15-2.46.06-2.55 0-5.12-.15-7.77zm-2.49-20.41c5.61-.45 11.24-1 16.86-1.32 5.35-.33 10.82 1.18 16.11 1.86 5.65.74 11.35 1.17 17 1.43 2.53.12 5 .18 7.58.24.9534937.1101896 1.9165063.1101896 2.87 0 0 2.6-.07 5.19-.11 7.79-4.7588127.1486143-9.5220779-.0586295-14.25-.62-5-.59-9.79-1.69-14.78-1.91-3-.12-5.8.22-8.76-.28-2.18-.37-4.3-.89-6.47-1.17-5-.65-10-.22-15 .16-.25-2.09-.61-4.09-1.05-6.18zm5.94 127.56c-1.5133333-.726667-3.0233333-1.49-4.53-2.29l-.39-.23c-14.81-8.25-17.9-29.15-13.66-40.38 1.4492904-4.380653 3.2484193-8.637699 5.38-12.73.59-1.24 1.19-2.46 1.77-3.71 9.7 6.68 18.7 15.26 23.05 26.43 4.65 11.94-4.24 24.32-11.62 32.91zm8-44.5c-.73-1-1.48-1.9-2.18-2.82-.51-.65-1-1.26-1.54-1.87 1.45-.82 4.1-1.17 5.38-1.55 2-.61 4.09-1.11 6.16-1.58 4.8304735-.985488 9.7677062-1.34511 14.69-1.07 7.77.3 16.94 1.2 24.58-1.2 0 1.13.08 2.26.14 3.4-.14003.84629-.1602282 1.708079-.06 2.56-3.9 1-8.71.58-12.65.7-4.1733333.146667-8.34.28-12.5.4-7.75.19-14.64.15-21.98 3.06zm7.1 15.72c7.482328.884158 15.0511432.725984 22.49-.47 7.19-1.28 14.63 0 21.54-2.7.79 2 1.67 3.92 2.63 5.81-8.49 1.57-17.65 1.07-26.24 1.27-6.81.17-13.94-1.21-20.45 1.12.1589884-1.672033.1823981-3.35419.07-5.03zm8.29 40.66c-1.93-1.24-3.89-2.38-5.89-3.44 1.39-1.7 4.2-3.08 5.85-4.18 1.91-1.29 3.92-2.45 6-3.56 4.3994937-2.348215 8.930296-4.441666 13.57-6.27 8.35-3.42 16.35-7.46 24.81-10.63 1.07 1.58 2.21 3.12 3.37 4.64-3.36 2.12-7.11 2.69-10.74 4.29-4.35 1.93-8.86 3.06-13.29 4.76-4.1301741 1.528092-8.0120477 3.657731-11.52 6.32-3.9 2.89-8.02 5.49-12.12 8.07zm19.09 17.19c-1.17-1.38-2.36-2.74-3.61-4.08 2.93-2 5.7-4.15 8.57-6.23 3.9694047-2.868675 8.4755274-4.909183 13.25-6 4.47-1 9.06-1.78 13.6-2.51 4.26-.68 8.32-2.32 12.36-3.85 1.4 1.506667 2.806667 3.013333 4.22 4.52-3.925378 1.962491-8.005864 3.59803-12.2 4.89-2.13.61-4.35.92-6.51 1.44-2.73.65-5.27 1.7-8.09 2.08-3.71.5-6.6.76-9.81 2.86-3.6990092 2.640889-7.6281915 4.94351-11.74 6.88zm10.65 16.76c-.8600842-2.309101-1.9418012-4.529468-3.23-6.63 4.8747818-.981271 9.8282484-1.520128 14.8-1.61 2.1112436-.16245 4.2032544-.517255 6.25-1.06 2.5-.54 5.08-.48 7.58-1 5-1 9.92-3 14.77-4.45 3.77-1.16 8.32-1.95 11.5-4.43 1.1 1.35 2.16 2.74 3.21 4.14-4.11 1.26-8.21 2.61-12.37 3.61-2.31.56-4.69.74-7 1.32-2.81.71-5.53 1.88-8.27 2.84-5.38 1.92-10.81 2.38-16.42 3-3.68.45-7.42 2.62-10.82 4.27zm6.85 19.44c-1.11-2.74-2.32-5.74-3.19-8.14 10.12-1.68 20.3-3.15 30.36-5.19 2.54-.51 4.8-1.61 7.45-1.72 2.34375-.057543 4.681625-.261272 7-.61 5.31-.9 10.63-1.83 15.94-2.74.64 1.61 1.24 3.31 1.77 5.05-10.28.54-20.45 2.54-30.61 4.17-5.13.83-10.32 1.46-15.28 3.07-4.64 1.51-9.06 3.97-13.44 6.11zm45.24 31c-9.7 2.37-20.53-.89-28.82-5.85-3.013112-1.799953-5.7147662-4.076097-8-6.74-1.1448099-1.286808-2.1691056-2.675967-3.06-4.15l.26-.16c7.898979-6.299886 17.134613-10.709045 27-12.89 9.69-2.21 19.67-1.07 29.49-.34.11 1.51.16 3 .15 4.5-.18 11.89-4.62 22.6-16.97 25.65z" fill="#262626" transform="translate(84 3)"/></svg>