<svg height="320" viewBox="0 0 320 320" width="320" xmlns="http://www.w3.org/2000/svg"><path d="m120.8 134.31c-1.89-10-1.85-20.86-2.32-31.1 0-.56-.06-1.12-.09-1.66-.09-1.73-.16-3.45-.2-5.16-.106667-4.54-.06-9.0633333.14-13.57.1-2.27.24-4.52.43-6.79.15-1.85.34-3.68.54-5.53.36-3.16 1.34-7.1 1.59-10.9.237647-2.2972821-.000641-4.6188915-.7-6.82-.386624-1.0800853-.973556-2.0775301-1.73-2.94.917046-14.2541595 3.041324-28.4048677 6.35-42.3 0 0 .68-1.7-.23-2.19-.23-.14-25.93-.11-37.73-.57-6-.25-11.77-2.35-17.69-3.15-4.7851344-.51508868-9.5981703-.72551287-14.41-.63-.7511073 0-1.36.60889274-1.36 1.36 1.4673608 13.876867 1.2726495 27.8792995-.58 41.71-1.3436756 1.5223149-2.3642901 3.3015862-3 5.23-.6680444 2.1781732-1.0808106 4.4265743-1.23 6.7-.39 4.06-.32 8.27-.85 12-.15 1-.33 2-.53 3-.44 2.2266667-.9766667 4.4266667-1.61 6.6-1 3.37-2.1 6.69-3.32 10-.78 2.14-1.59 4.29-2.41 6.42-.91 2.37-1.79 4.72-2.65 7.1-3.15 8.83-4.67 17.62-6.16 26.7-.2466667 1.62-.5066667 3.25-.78 4.89-.1.6-.21 1.2-.33 1.78-.7904997 4.049479-1.7918624 8.05493-3 12-.6666667 2.2-1.36 4.393333-2.08 6.58-.77 2.36-1.58 4.72-2.38 7.07-.1019732.179981-.1825216.371284-.24.57-.57 1.45-2 5.61-3.79 10.86-1.73 5.09-3.77 11.22-5.6 16.9-1.29 4-2.49 7.76-3.4 10.79 0 .1-.05.2-.08.3-3.09 10.44-4.31 21.64-5.63 32.63-.35 3-.72 6-1.14 9-.52 3.74-1.08 7.61-1.54 11.55-.37 3.09-.66 6.2-.85 9.26-1 16.68 1.27 33.34 15.88 44 7.44 5.4 19.12 8.71 27.87 4.94 11.16-4.84 17.1-14.87 21.95-25.52 1.29-2.83 2.5-5.67 3.66-8.55 1.33-3.3 2.57-6.65 3.72-10 1.77-5.13 3.33-10.35 4.69-15.61.83-3.11 1.56-6.25 2.23-9.39 2.0888454-9.715776 3.548545-19.556223 4.37-29.46 0-.49.08-1 .13-1.47.82-4.12 1.82-8.17 3-12.18.54-1.86 1.15-3.71 1.79-5.54.7329012-1.994621 1.9330734-3.784592 3.5-5.22 3.39-3.29 8.31-5.68 12.36-7.9.71-.39 1.4-.78 2-1.16 3.812567-2.121135 7.441786-4.556224 10.85-7.28 1.847069-1.506511 3.452368-3.287178 4.76-5.28 1.074617-1.614093 1.759303-3.455899 2-5.38 1.03-9.17-2.47-17.76-4.17-26.69zm1.2-126.81c-1.946667 8.2333333-3.493333 16.5366667-4.64 24.91-.49 3.56-.85 7.13-1.18 10.72-.11 1.15.48 6.43-1.75 6.44h-.66c.32-2.07.6-4.14.89-6.2.65-4.68 1.26-9.36 1.72-14.08.72-7.31.7-14.77 3.2-21.77zm-4.72 0c-1.279799 6.3174047-2.042326 12.7286493-2.28 19.17-.26 5.78-.92 11.52-1.71 17.25l-.81 5.62c-.87 0-1.74 0-2.61 0 1.93-6.21 2.1-12.91 2.69-19.34.666667-7.54 1.28-15.08 1.84-22.62zm-4.29 0c-.533333 7.08-1.113333 14.1633333-1.74 21.25-.6 6.87-.72 14.07-2.86 20.66h-1c1.293333-14 2.783333-27.9666667 4.47-41.9zm-2.5 0c-1.66 13.96-3.14 27.9233333-4.44 41.89h-1.5c-.015029-.0786014-.045629-.1534024-.09-.22 0-6.62-.23-13.26.55-19.85.84-7.23 1.81-14.46 2.7-21.69.94-.07 1.88-.07 2.82-.07zm-5 0c-2.1787 13.7733573-3.282032 27.6954031-3.3 41.64l-3.19-.14c.53-6.93 1-13.86 1.59-20.79s2.88-13.69 3.72-20.66zm-3.76 0c-1.12 6.36-2.07 12.75-2.93 19.15-1 7.34-1 14.79-1.2 22.18-1.21-.09-2.42-.16-3.63-.27 3.48-13.41 1.94-27.51 4.73-41zm-5.62 0c-.9 13.71-1.11 27.6-3.63 41.02l-1.66-.16c.6-6.6 0-13.22 1-19.84 1-7 2-13.93 2.93-20.9zm-2.75 0c-.9666667 6.8466667-1.9333333 13.6966667-2.9 20.55-.94 6.68-.42 13.37-1 20-.52 0-1-.09-1.57-.15.2858907-2.6239613.3227217-5.269096.11-7.9-.18-3.79.73-7.58 1.36-11.3 1.1666667-7.0266667 2.3433333-14.0533333 3.53-21.08zm-5.62 4.5c.1136946-1.5214647.3885678-3.02656316.82-4.49 1 .08 2 .13 3 .14-1.0933333 6.4933333-2.18 12.9766667-3.26 19.45-.5 3-1.21 6.1-1.5 9.17-.35 3.9.4 7.82-.2 11.7l-1.68-.19c.36-6.52.57-13 1-19.58.22-3.38.5333333-6.75.94-10.11.2-2.09.52-4.09.88-6.09zm-3.31-5 1.78.24c-1.52 13.4-2.4166667 26.8466667-2.69 40.34-1.44-.18-2.88-.34-4.32-.55h-.09c1-6.7 1.71-13.43 2.28-20.18.3-3.42.56-6.86.84-10.29.4079371-3.2529033 1.1450493-6.455991 2.2-9.56zm-5.27-.92 2.5.46c-1.3333333 13.42-2.6433333 26.84-3.93 40.26-1.12-.16-2.24-.35-3.37-.55 2-5.81 2.53-11.87 2.88-18 .44-7.41 1-14.82 1.92-22.19zm-2-.38c-1.82 13.37-.68 27.13-4.16 40.3l-1.81-.33c2.15-13.37 1.7-27 4-40.35zm-6.88.86c.14-.67.29-1.34.43-2 1 .15 2.08.33 3.13.52-2.3 13.34-1.83 27-4 40.35-.86-.15-1.75-.32-2.62-.45 1.3-12.83 2.59-25.58 3.04-38.44zm-4.38-2.56h.57c.84.06 1.68.15 2.51.25 0 .72 0 1.42-.08 2.14-1 5.4-1.33 11-1.86 16.41-.71 7.27-1.2 14.56-1.25 21.87-.82-.12-1.65-.25-2.46-.35 1.4500919-6.1472085 2.3437002-12.4125071 2.67-18.72.21-3.5.31-7 .21-10.51-.15-3.72-.63-7.36-.31-11.09zm-4 21.18c-.13-7.18-1.03-14.44-.36-21.69.92.08 1.88.21 2.84.35-1.06 6-.58 12.1-.78 18.2-.26 7.42-1 14.81-1.71 22.19-.75-.07-1.48-.12-2.22-.16 1.6629093-6.1472586 2.4208776-12.5040864 2.25-18.87zm-5.3-17.75c-.19-2.71 1-3.68 2.71-3.93-1 6.16 0 12.5-.06 18.71-.08 7.27 0 14.59-1.11 21.8-.87 0-1.74 0-2.63 0 1.0617512-7.9229384 1.609563-15.9062935 1.64-23.9.01-4.22-.24-8.46-.55-12.68zm-6.75 64c.2-1.09.39-2.17.56-3.27 5.19.48 10.39 1.15 15.6 1.3 2.3109044-.0205326 4.6184513-.1808253 6.91-.48 3.22-.27 6.47.38 9.65.86 11.2 1.69 22.38 3.44 33.73 3.41l-.3 2.75c-.14 1.4-.26 2.8-.37 4.22-.07.85-.11 1.71-.15 2.57 0 .63-.06 1.29-.08 1.93-9.6-1-19.19-1.93-28.76-3-.0360751.0093146-.0739249.0093146-.11 0l-5.46-.58c-5.9166177-.7155659-11.7841512-1.7908908-17.57-3.22-4.8427475-.99334-9.7671451-1.5356598-14.71-1.62.42-1.63.76-3.3 1.06-4.92zm-4.93 16.73c.32-.85.63-1.71.95-2.58 5.4771773.4288213 10.8737881 1.5787534 16.05 3.42 5.25 1.87 10.8 1.57 16.29 1.64 12.4708757.1846887 24.907081 1.3651084 37.19 3.53 0 .66 0 1.29.07 2 0 1.82.12 3.65.22 5.47-2.615901.393667-5.272563.437384-7.9.13-3.08-.18-6.18-.2-9.26-.21h-4.3s0 0-.09 0c-3.68-.08-7.35-.25-11-.67h-.14c-1.27-.14-2.54-.32-3.82-.52-12.06-2-24.1-4.59-36.05-7.28.59-1.73 1.2-3.32 1.79-4.93zm17.84 197.89c-9.79-2.13-19.38-5.31-29.21-7.16-10.32-1.94-20.72-3.75-31.24-4.18-.16666667-1.953333-.25666667-3.923333-.27-5.91 2.39.16 4.77 0 7.18.06 2.89 0 5.62 1.08 8.39 1.77 5.39 1.37 11.12 1.49 16.61 2.57 10.41 2 20.36 5.88 30.86 7.54-.73 1.78-1.49 3.56-2.32 5.31zm7.73-19.81c-.6666667 2.053333-1.39 4.1-2.17 6.14-11-3.12-22.58-3.72-33.75-5.91-5.66-1.11-11.22-2.57-16.82-4-5-1.26-10.3-1.25-15.45-1.45.19-2.69.47-5.38.81-8.06l.33-2.38c11.44 1.67 22.93 2.95 34.45 4 6.11.59 11.74 2.72 17.67 4.15 5.4615557 1.182813 10.9926719 2.017824 16.56 2.5-.51 1.77-1.06 3.38-1.63 5.01zm7-25c-.66 3.07-1.4 6.16-2.2 9.2-12.0817056-.062782-24.1022417-1.720439-35.75-4.93-5.32-1.39-10.94-1.43-16.35-2.37-6-1-12-2.13-18-3.21.44-2.58.89-5.09 1.29-7.51.19-1.17.38-2.31.56-3.44 12.2 1.5 24.61 2.49 36.6 5.26 5.09 1.18 10.15 2.45 15.24 3.57 5 1.1 10 2.08 15.12 2.69 1.17.15 2.34.27 3.52.37 0 .13-.03.26-.06.38zm2.15-11.24c-12.25 1.24-24.1-3-36.15-4.48-5.91-.71-11.73-1.54-17.57-2.69s-11.87-2-17.42-4.16c.51-3.37 1.06-6.73 1.71-10.06 5.38 1 10.8 1.81 16.24 2.49 6 .76 11.94 2.15 17.88 3.47l36.42 8c-.33 2.48-.75 4.95-1.11 7.43zm4.81-31.55c-.7497701 2.702969-1.357271 5.443399-1.82 8.21-.293882 1.274507-.5010236 2.567472-.62 3.87-12.43 2.3-24.35-3.87-36.39-6.09-11-2-22.42-2-32.79-6.66.19-.69.38-1.37.61-2.06.6-1.91 1.36-4.22 2.16-6.69.44-1.28.87-2.61 1.32-3.94 5.74 1.22 11.46 2.43 17.25 3.41 5.4702738.760428 10.8949982 1.818667 16.25 3.17 11.17 3.18 22.73 4.65 34.22 6.11-.07.22-.14.42-.19.65zm5.55-11.25c-.6792628.759006-1.2915482 1.575386-1.83 2.44-4.9734576-1.304903-10.0481079-2.188033-15.17-2.64-6.5222776-.488512-12.9957575-1.491634-19.36-3-5.6607474-1.385855-11.3880934-2.48393-17.16-3.29-5.79-.69-11.57-1-17.07-3 .72-2.11 1.37-4.05 1.94-5.68l1.65-4.84c.45-1.39.91-2.78 1.37-4.16 10.94 4 22.8 4.32 34.15 6.71 10.3 2.18 20.32 4.53 30.73 5.46.3313312 3.663557.9532891 7.294989 1.86 10.86-.3896618.360347-.76017.740869-1.11 1.14zm2.68-30.2c-1.2318313 2.352324-2.2363842 4.816827-3 7.36l-3.33-.24c-9.3970468-.585556-18.734823-1.896121-27.93-3.92-10.31-2.43-20.41-5.76-31-6.55 0-.09.05-.17.08-.27.7-2.186667 1.3666667-4.38 2-6.58.25-.85.51-1.72.76-2.59 4.6332 1.187375 9.3970721 1.788738 14.18 1.79 6.1811958.280706 12.3269909 1.090332 18.37 2.42 10.26 2.09 20.51 4.29 30.59 7.12-.24.46-.49.99-.72 1.46zm10.52-19.47-.12.14c-1.689831 1.804526-3.1662236 3.797656-4.4 5.94-10.67-1.47-21.35-2.85-32-4.53-5.77-.91-11.35-2.7-17.14-3.58-5.55-.83-11.14-1.24-16.73-1.63.37-1.85.68-3.7 1-5.56.13-.8.26-1.61.38-2.41 6.33.7 12.6 1.67 18.82 3 5.78 1.2 11.67 3.65 17.55 4.16 11.7 1.05 24.43-2.13 35.9 1.1zm-25.93-16.14c-13.8790931-1.047443-27.6408816-3.29925-41.13-6.73.42-2 .87-4 1.45-6 .52-1.77 1.09-3.51 1.67-5.24 6.86-1 13.73.16 20.55 1.08 6.29.84 12.61 1.65 18.9 2.58 6.05.9 12 2.38 18.05 3.13 6.56.82 13.26-.26 19.54 2.15.18 3.3.31 6.63.52 9.94-13.18 1.17-26.39.23-39.55-.91zm40.73-61.93c-.11 1.17-.27 2.33-.45 3.41-11.59-.38-23.53 0-35-1.74-5.2045569-.6318353-10.4526897-.8291838-15.69-.59-5.45.09-10.26-1.7-15.49-2.64 0-.57 0-1.14.08-1.71.0594912-2.267211.4606719-4.5124746 1.19-6.66.3374299-.9350359.7945673-1.8224201 1.36-2.64 9.83-1 20.13 2.22 29.88 3.47 5.41.69 10.83 1.17 16.27 1.48l4.09.19c4.21.18 8.44.24 12.65.24.077996.1151533.148155.235425.21.36 1.06 1.9 1.14 4.37.9 6.83z" fill="#262626" transform="translate(97 4)"/></svg>