<svg height="320" viewBox="0 0 320 320" width="320" xmlns="http://www.w3.org/2000/svg"><g fill="#262626" transform="matrix(.80901699 .58778525 -.58778525 .80901699 211.417811 -17.763281)"><path d="m125.29 183.68c-.024543-.089797-.058044-.176901-.1-.26-.43-.69-.84-1.4-1.23-2.11-5.07-8.86-7.9-18.64-10.89-28.37-.45-1.44-.87-2.88-1.3-4.32-.59-2.22-1.14-4.46-1.67-6.72-.079031-.309052-.267305-.57903-.53-.76-1.93-6.74-3.73-13.52-5.24-20.38-2.557926-11.484868-3.719668-23.2365932-3.46-35 .27-10.76 1.94-21.18-1.82-31.57-.0407251-.0801291-.0875287-.1570208-.14-.23.0341327-1.5975209-.1304628-3.1930892-.49-4.75-.3999493-1.7693964-.7070358-3.5585092-.92-5.36-.4-5-.44-10.12-.48-15.16s.87-10 1.12-15c.3035607-3.6034093-.0833605-7.2316448-1.14-10.69-.56-1.65-3.57-4.11-5.2-2.44-2.86.39-5.72.84-8.56 1.34-.201471-.14131021-.4441889-.21166321-.69-.2-1.1938425.07495032-2.3556816.4166677-3.4 1-2.6666667.50666667-5.3333333 1.06666667-8 1.68-.2399933.05616493-.4841126.09295003-.73.11-.1982338-.19077515-.4200295-.35544161-.66-.49-1.4324789-.99714992-3.3905441-.72737204-4.5.62-2.412194-.23885679-4.8365745-.33235907-7.26-.28h-.65c-.0851594-.06994708-.1754089-.13345599-.27-.19-1.3062012-.80049261-2.9900236-.60652288-4.08.47-1.8445295.08442069-3.6927592.03428788-5.53-.15-.6232328-1.09040266-1.6627027-1.88083291-2.88-2.19-1.420469-.54452073-3.0290221-.04417387-3.89 1.21-1.2486609.02941185-2.4899448.20050773-3.7.51-1.1688187.2536893-2.3708188.31784099-3.56.19-1.904636-1.20412032-4.3995769-.86217409-5.91.81-2.23 1.75-2.36 5.88-2 9.31.1852177 1.7565082.4791143 3.4998496.88 5.22 2.19 10.91 2.5 20.34 0 31.28-.3 1.29-.86 3-1.25 4.77-.526986 1.9011975-.5511069 3.9066776-.07 5.82-1.6096648 10.3591757-2.6113791 20.8037165-3 31.28-.27 12.23 2.57 23.85 4.42 35.85 4 25.9 5 47.57 3.75 78.44-4.489451 40.493783-13.0220065 80.436327-25.47 119.23-1.56 4.86-3.48 9.3-3.79 13.85-.20588659 2.816264.33208665 5.637175 1.56 8.18 3.32 7 10.09 12.86 16.32 17.18 12.2889221 8.407532 28.1077746 9.689319 41.59 3.37 6.698818-3.133873 12.1128306-8.480785 15.33-15.14 3.62-7 5.43-15.25 6.68-23.17 1.6769253-11.038853 4.6127249-21.849306 8.75-32.22 2.9085518-7.160912 6.3689605-14.085073 10.35-20.71 7.21-12 15.73-23.47 22.71-35.7 2.413394-4.207113 4.586866-8.54738 6.51-13 6.53-15.05 2.02-31.44-5.51-45.16zm-33.78-165.58c0-.77.08-1.53.14-2.31.28-3.29.82-6.58 1.35-9.79-.09-3.26.6-3.33 2.08-.23.84 2.51.44 5.65.22 8.26 0 .26 0 .51-.07.77-.61046 6.3409768-.8808473 12.7100998-.81 19.08.06 3.33.21 6.66.39 10 0 .5.38 3.34.52 6.25.17 3.7 0 7.5-1.74 6.76-.4412057-1.0271308-.6984523-2.1238137-.76-3.24 0-.94-.06-1.86-.13-2.78-.35-5.09-1.33-10-1.8-15.09-.21-2.24.72-5.38.8-7.73.08-3.33-.33-6.65-.19-9.95zm-1-14.62c-.4828643 2.34655294-.816864 4.72129118-1 7.11-.2466667 1.94-.4433333 3.8633333-.59 5.77-.2417341 3.0838326-.2985025 6.1793777-.17 9.27.25 4.27-.75 8.37-.37 12.6.41 4.47 1.28 8.83 1.59 13.32 0 .69.09 1.37.11 2.06.09 3.24-3.51 7.26-3.9 1.73-.07-.93-.12-1.85-.19-2.77l-.37-5.3c-.38-5.36-.77-10.71-1.1-16.07-.29-4.71 0-9.48 0-14.24.1509854-4.1054878.0005817-8.21652079-.45-12.3 2.16-.43 4.28-.84 6.43-1.18zm-12.81 7.08c.75-2.28 4.24-1.47 4.17.94 0 1.3-.14 2.61-.19 3.9 0 .58-.05 1.18-.07 1.76-.13 4.69 0 9.35.19 14 .27 5.36.72 10.71 1.1 16.07.14 1.93.15 4 .25 6 .042394 2.5500583.4120841 5.084116 1.1 7.54-1.1338652.5791043-2.4903293.510519-3.56-.18.3145-2.2755903.4149396-4.5756568.3-6.87-.08-3-.37-5.74-.4-7.18-.17-9.78-.16-19.66-1.76-29.34-.06-.38-.13-.74-.19-1.13l-.64-2.47c-.4465392-.9487038-.5524875-2.0223133-.3-3.04zm-5.86-3.56c1.41-.22 2.81-.47 4.23-.72-.551363 1.2866347-.8891324 2.65460101-1 4.05-.1239406 2.3051216.0882838 4.6160101.63 6.86.5 2.34 1.1 4.69 1.3 6.81.62 5.8.58 11.7.73 17.53.11 4.31.22 8.6.1 12.91v1.8c-.07.81-.13 1.61-.18 2.41-3.14 3.59-4.48 3-4-1.77-.07-.53-.12-1.06-.17-1.59-.12-1.7-.13-3.41-.19-5.09-.19-5.2-.29-10.38-.46-15.57-.13-4.7.82-9.34.56-14-.07-1.2-.2-2.4-.37-3.59-.4-3.05-1-6.1-1.19-9.2-.0215395-.28177386-.0582594-.56218105-.11-.84zm-2.64 2.49c.0350652 1.7092512.1652667 3.4152245.39 5.11.12.74.23 1.48.29 2.21.4074714 4.5288404.4643073 9.0824002.17 13.62-.3369586 8.4469691-.0897028 16.9071276.74 25.32.13 1.12.25 2.22.4 3.32.1646885 1.5542377.5311036 3.0804069 1.09 4.54-1.78 1.27-4.08.48-6-.65.6574705-1.3844975 1.0831335-2.8675615 1.26-4.39.078993-.7707453.1157146-1.5452384.11-2.32-.0071701-.8099307-.0942589-1.6171766-.26-2.41-.65-3.39.22-5.94-.2-9.14-1.26-9.34-.63-18.76-1-28.24 0-.84-.07-1.69-.12-2.53s-.11-1.73-.15-2.6c-.6133333-2.13333333.48-2.74666667 3.28-1.84zm-5.39-2.49c-.3450484.86416466-.5639581 1.77348193-.65 2.7-.1528005 2.1284679-.1260393 4.2660246.08 6.39.19 2.77.53 5.56.6 8.22.15 5-.56 9.94-.47 14.91.1614873 1.4311687.4697767 2.841928.92 4.21.63 2.52-.25 5.79 0 8.43.22 2.32.53 3.45.57 4.73.0193105 1.2145698-.1459057 2.4250314-.49 3.59-.46 4.33-2 4.71-4.59 1.11.000034-1.4053514.1002882-2.8089113.3-4.2-.0098286-.086388-.0098286-.173612 0-.26 1.1530141-10.4630247 1.2669034-21.0145254.34-31.5-.29-3.26-.59-6.41-.68-9.6-.0629583-1.9772596-.0262451-3.9564356.11-5.93.0537561-.95576804-.1032844-1.91166659-.46-2.8 1.48-.08 2.95 0 4.42 0zm-9 38.64c.11-10.16-.2-20.32-.83-30.46 0-.79-.08-1.56-.13-2.35-.0857678-1.1378635.6222064-2.1853341 1.71-2.53h.11c.3154053-.1108617.6653472-.0565895.9325631.1441411.2672158.2009142.416353.522073.3974369.8558589-.08 1.13-.12 2.27-.15 3.41v.71c.0652522 2.4248579.2555048 4.8447378.57 7.25.53 5.26.88 10.49 1 15.78.0350101 5.2630272-.2153573 10.5240819-.75 15.76-.08.93-.24 2-.39 3.1-.3562932 1.9116468-.4504927 3.8629222-.28 5.8-.6811989.2005125-1.3818175.3278977-2.09.38-.7295766-.0369095-1.4139266-.3646771-1.9-.91.6827236-1.5992162 1.1566224-3.2797082 1.41-5 .58-3.9.38-7.99.42-11.9zm-6.66-28.8c0-.6.09-1.29.15-2 .3166339-2.42389.3669336-4.87516132.15-7.31h2.72c-.1436485.53071284-.2010474 1.08106734-.17 1.63.09 1.94.17 3.9.26 5.84.42 9.34.91 18.65.93 28 0 4.74 1.59 10.19.23 14.62-.2348843.793156-.5709846 1.5527427-1 2.26-2.28 3.58-2.78 1.9-2.89-.42.07-.58.12-1.16.2-1.73.21-1.78.45-3.55.74-5.31.2332881-1.7770318.3468774-3.5677339.34-5.36.08-4.52-2-8.79-2.08-13.36-.2-5.6.27-11.26.42-16.86zm-5.36-7.45c.6989657-.17236517 1.4382575-.0029624 1.9924335.4565501.5541761.4595125.8575338 1.1546555.8175665 1.8734499l-.08 2.66c.009908.0897273.009908.1802727 0 .27-.31 9.31-1.64 19 .81 28.08 1.25 4.63-.47 10.11-.47 15-.0159692 1.1789258.118448 2.3550766.4 3.5-.46.56-.88 1.16-1.41 1.7-.7758206.7349983-1.873855 1.0217701-2.91.76.5720983-1.9655981.9966121-3.9711749 1.27-6 1-6.72.41-13.47.06-20.51l-.83-16.27c-.12-2.14-.2333333-4.2866667-.34-6.44 0-.57 0-1.13-.08-1.7-.7-1.86-.43-3 .77-3.38zm-5.1-2.74c.6208033-.11871685 1.2488866-.19555683 1.88-.23-.3511026 2.10745464-.448463 4.2493833-.29 6.38 0 .53 0 1.08.08 1.61.7 12.63 1.74 25.33 1.7800496 38 .0032076 1.754023-.1541156 3.5046615-.4700496 5.23-.19 1.1-.42 2.19-.68 3.28-.05644.6465525-.2221225 1.2788509-.49 1.87-.2439161-.0076537-.4822122.0741495-.67.23-.53-.32-1.18-1.6-2-3.83.09-.58.17-1.18.28-1.77.21-1.48.49-2.95.77-4.41.9782633-4.8699512.8724252-9.8955524-.31-14.72-1.29-5.42 0-11.61-.56-17.23-.2-2-.22-4.36-.34-6.7-.0390729-2.4979349-.4399043-4.9770267-1.19-7.36.7429204-.07301235 1.4808745-.18988291 2.21-.35zm-9.35 47.35c.67-2.44 1.22-4.89 1.71-7.38.7943887-4.2499052 1.1761636-8.5666402 1.14-12.89.06-6-2.84-13.06-2.86-19.4 0-.55 0-1.11.07-1.65.1389927-1.3368212 1.2774576-2.3451999 2.6212807-2.3221615 1.3438231.0238391 2.4464303 1.0713063 2.5387193 2.4121615.0193518.316371.0193518.633629 0 .95 0 .21 0 .42.07.63.14 1.42.3 2.85.44 4.29.32 3.05.67 6.08.84 9.13s-.61 5.74-.41 8.69 1.32 5.94 1.54 9c.2 2.84-1.23 7.48-1.69 11.71-.1433133 1.0804005-.1834944 2.171987-.12 3.26-4.42-.49-6.57-1.92-6.46-4.27.0407996-.7513233.2347712-1.4863733.57-2.16zm46.06 296.48c-.0997861-.084888-.2108394-.155558-.33-.21-.2913573-.157768-.6187443-.23703-.95-.23h-.12c-2.45 0-2.61 3.53-.5 4-.6767346 1.117367-1.4110574 2.198824-2.2 3.24-.100136-1.015556-.9808967-1.77301-2-1.72h-.22c-2.63 0-2.63 4.08 0 4.08h.17c-1.2736727 1.36505-2.6547664 2.625758-4.13 3.77l-.68.47c-.1410483-.281024-.3306274-.534925-.56-.75-.7665887-.682432-1.861049-.854419-2.8-.44h-.07c-.6636025.224316-1.2026547.716751-1.4859152 1.357414-.2832606.640664-.2847425 1.370778-.0040848 2.012586.0873629.19826.1910531.388917.31.57-.52.24-1 .49-1.54.71-.024477-.331206-.1236219-.652572-.29-.94-.252636-.729913-.8284776-1.302063-1.56-1.55-1.189174-.368315-2.4681364.194428-3 1.32-.2149027.23472-.366348.520401-.44.83-.2395139.691471-.082264 1.458544.41 2-3.2709314.794868-6.63644 1.131419-10 1 .3538434-.505977.4873517-1.133827.37-1.74-.1784842-.813016-.676425-1.520097-1.3817501-1.962101s-1.5587705-.581791-2.3682499-.387899c-1.5201127.429576-2.4894962 1.915679-2.27 3.48-1.3487287-.22693-2.684052-.527378-4-.9.3608452-.624699.3572906-1.395318-.009302-2.016662-.3665927-.621343-1.0394016-.997103-1.760698-.983338h-.11c-1.0072614-.040504-1.8653431.724693-1.94 1.73-.71-.26-1.41-.55-2.12-.85.4628324-.401699.7380815-.977549.76-1.59 0-.05 0-.09 0-.15.0048043-.079928.0048043-.160072 0-.24.0093671-.059634.0093671-.120366 0-.18l-.07-.15s-.05-.11-.09-.17c-.4518008-.884846-1.4596693-1.334638-2.42-1.08-.8879276.22924-1.5061885 1.032979-1.5 1.95-.58-.31-1.15-.61-1.72-.94.6396933-.324719 1.0306556-.993264 1-1.71v-.23c0-2.62-4.06-2.62-4.08 0-.0179513-.023143-.0422855-.040525-.07-.05-.77-.53-1.53-1.1-2.28-1.69.6139704-.738944.6388171-1.803209.06-2.57l-.17-.2c-.3761392-.436596-.9144849-.700349-1.49-.73-.1908205.003097-.3799012.036862-.56.1h-.08c-.3555081.143634-.6760567.36188-.94.64-.57-.54-1.13-1.08-1.66-1.65.8165634.241262 1.6996742.01584 2.3007025-.587276.6010284-.603115.8233882-1.487002.5792975-2.302724-.1907364-.562114-.5922896-1.028202-1.12-1.3h-.07l-.36-.11c-.3680699-.118814-.7601588-.14289-1.14-.07-.5975411.137328-1.1145914.50953-1.4344543 1.0326-.31986288.52307-.41557907 1.152922-.2655457 1.7474-.75547552-.893899-1.45673119-1.832246-2.1-2.81.99005487-.145034 1.72056674-.999434 1.71-2-.01165988-.282788-.07610084-.560902-.19-.82-.11377836-.189997-.25534571-.361901-.42-.51l-.09-.09-.1-.1c-.17048009-.145822-.3628291-.263931-.57-.35-.25522002-.127702-.53481445-.199306-.82-.21-.57568461-.011088-1.12336646.247951-1.48.7-.28-.61-.55-1.23-.77-1.85.09193214-.015118.18230272-.038547.27-.07 1.07122326-.319594 1.70130441-1.42554 1.43-2.51-.21596305-.670219-.73450965-1.199877-1.4-1.43-.4285642-1.287977-.61503825-2.644152-.55-4 .0228611-.789083.10981399-1.575004.26-2.35.27145464.128645.56978415.190368.87.18 2.45 0 2.61-3.51.52-4 .41205605-.748653.92334468-1.43822 1.52-2.05.32319263.636307.98681784 1.026675 1.7 1 .7159506.002849 1.3788125-.377223 1.7380207-.996548.3592082-.619324.3599631-1.383419.0019793-2.003452.9028589-.298462 1.8295601-.519264 2.77-.66-.0565176.201941-.0867669.410325-.09.62v.17c0 2.62 4.07 2.62 4.07 0v-.23c.0095156-.351199-.0806297-.697911-.26-1l3.1-.15c1.67-.09 3.39-.13 5.1-.13.0207781.108053.0474851.214881.08.32.3195935 1.071223 1.4255401 1.701304 2.51 1.43.6884793-.212529 1.2274712-.751521 1.44-1.44.0277546-.065036.0511398-.131851.07-.2.52 0 1 .05 1.58.08-.0845099.206753-.1319021.426789-.14.65-.0058529.324765.0734441.645401.23.93.0917889.299823.2527877.573863.47.8.8047599.772089 2.0752401.772089 2.88 0 .5579157-.544206.7828615-1.344861.59-2.1 1 .09 1.93.19 2.9.3-.3172565.261789-.55317.608721-.68 1-.1776125.409997-.2128174.867662-.1 1.3.3154098 1.094817 1.449587 1.735293 2.55 1.44.5673604-.151145 1.049257-.525749 1.3356803-1.038296s.3529235-1.119285.1843197-1.681704c-.0834984-.218584-.1980043-.424021-.34-.61l.45.07c.69.1 1.39.24 2.09.38-.1082733.127373-.1990739.268618-.27.42-.7980754 1.364818-.3999636 3.114761.91 4 1.07.81 2.5.12 3.28-.76.430914-.368479.6702298-.913383.65-1.48v-.3c-.0033144-.164947-.0234181-.329127-.06-.49.0103244-.113098.0103244-.226902 0-.34.79.23 1.56.47 2.35.72-.5637899.58899-.7293182 1.45407-.422793 2.20959.3065253.75552 1.0280001 1.260731 1.842793 1.29041h.1c.5908355.00762 1.1548009-.246413 1.5406129-.693954.3858119-.447542.5539778-1.042782.4593871-1.626046 1.36.49 2.71 1 4.05 1.55h-.12c-.2835374.014103-.5618098.081974-.82.2-.2075178.089717-.3998167.211169-.57.36-.0353016.02815-.0657109.061938-.09.1 0 0-.07.07-.1.09-.1488306.170183-.2702825.362482-.36.57-.1241674.255576-.1891111.535859-.19.82-.0318776.778436.3718697 1.509987 1.0474907 1.89795.6756211.387964 1.5109514.367932 2.1671991-.051971.6562478-.419903 1.0244648-1.169965.9553102-1.945979-.0606618-.593576-.3299726-1.146372-.76-1.56 1.22.5 2.43 1 3.64 1.54-.0164404.119437-.0164404.240563 0 .36v.22c0 2.23 2.89 2.56 3.8 1l4.45 1.95c-.3665833-.100399-.7534167-.100399-1.12 0l-.31.08c-.7038133.19471-1.2502872.750109-1.4335702 1.456984-.1832831.706875.0244698 1.457835.545 1.97s1.274757.707726 1.9785702.513016l.31-.08c1.0746753-.315239 1.7068106-1.424791 1.43-2.51-.1377099-.49958-.4639535-.926207-.91-1.19 1 .45 2.07.89 3.11 1.32l-.11.06c-.9554934.575858-1.2827619 1.805326-.74 2.78.5125028.833565 1.5327938 1.202694 2.46.89-.7042855 2.398316-1.5764388 4.744107-2.61 7.02zm31.77-88.85c-6.5363674 9.678835-11.8595318 20.123656-15.85 31.1-3.7026135 7.741009-6.4946127 15.885459-8.32 24.27-1.42 6.82-2.2 14-3.64 20.87-6.64-3.72-13.59-6-20.57-9-6.51-2.83-11.35-5.94-18.59-6.74-7.56-.83-15.61.27-23.17.77-2.9233825.096984-5.7637176.996481-8.21 2.6 1.93-6 3.79-12 5.53-18.12 9.2687936-32.499326 15.7719756-65.72443 19.44-99.32.1158783-.203307.1681285-.436691.15-.67 0-.13 0-.27 0-.42.28-2.57.55-5.12.8-7.69 0-.48-.45-46.15-3.22-68.34-1.32-10.63-5-20.63-5-31.45 0-5.15.49-10.33.79-15.48.38-6.34 0-13.21 2.84-19 2.0443054.6528032 4.2779175.2805345 6-1 .85 1.41 2.34 2.42 4.85 2.69.3574368.0183254.702423-.1337653.93-.41 1.0818425.2550073 2.2081575.2550073 3.29 0 .9498426-.2682623 1.8255858-.7506052 2.56-1.41.2670607-.2351602.5023714-.5040867.7-.8.4375567.7055905.9653491 1.3510438 1.57 1.92.5431415.5270979 1.4068585.5270979 1.95 0 .29-.36.54-.72.8-1.09.5552503.4081846 1.1600884.7442057 1.8 1 1.29.56 2.86.2 4.32-.24.09.16.2.34.31.5 1.62 2.19 4.59 3.18 6.29.21.18-.34.37-.68.57-1 2.91 1.65 6.17 2.22 8.77.4 1 .79 2.46.87 4.42-.29.7767984-.521581 1.3656796-1.2787139 1.68-2.16 1.7859739.7884425 3.8322302.7296631 5.57-.16 1.81 1.58 4.84.18 6.25-1.55.499826-.6539423.8234811-1.4252056.94-2.24 1.6636365.7023483 3.5912072.2214744 4.73-1.18 2.53 9.82.91 20 .65 30.1-.3 11.14 1.39 22.3 3.63 33.18 1.89 9.15 4.47 18.16 7.19 27.1 2.31 9.57 4.85 19.09 8.6 28.2-8 6.37-16.79 12.35-23.25 20.34-4.32 5.36-11.67 13.29-11.14 20.63.46 6.29 8.8 12.81 13.25 16.25 6.488676 4.894764 14.063331 8.150357 22.08 9.49-3.88 6.27-8.31 12.23-12.29 18.14zm22-44.82c-.26672-.121562-.5569-.183012-.85-.18-2.62 0-2.62 4.08 0 4.08.126457.010302.253543.010302.38 0-.11.65-.23 1.31-.35 2-.616368-.467633-1.442071-.552504-2.140679-.220034s-1.153496 1.026779-1.179321 1.800034v.11c.005844.597136.278213 1.160422.742627 1.535823.464413.3754 1.07228.523638 1.657373.404177-.710582 2.387043-1.575744 4.725317-2.59 7-.61008-.371687-1.37209-.389742-1.999089-.047368-.626999.342375-1.023772.993187-1.040911 1.707368v.12c-.035276.846098.508443 1.608129 1.32 1.85-.28.58-.62 1.14-.92 1.71-.109579-.929134-.660676-1.748331-1.48-2.2-1.223134-.642768-2.720005-.433528-3.72.52-.108727.103472-.202919.221211-.28.35.004129.03655.004129.07345 0 .11-.624787.638241-.932707 1.521678-.84 2.41-2.966525-.806594-5.854755-1.877548-8.63-3.2.470635-.611194.558324-1.434846.22692-2.131429-.331404-.696582-1.025791-1.148155-1.79692-1.168571-.926588-.040396-1.741343.607996-1.91 1.52-.4-.23-.81-.43-1.22-.66-1.6827255-1.009697-3.3085243-2.111368-4.87-3.3.3653784-.370375.551535-.881393.51-1.4-.0410662-1.087105-.9128949-1.958934-2-2-.2832852.007889-.5621134.072496-.82.19-.2090019.086882-.4017395.208611-.57.36-.0274307.032464-.0575363.062569-.09.09l-.1.1v.07c-1.4681448-1.323637-2.8074723-2.783504-4-4.36 2.3-.33 2.19-4.05-.32-4.05-.6595274-.032115-1.2842105.297472-1.63.86-.3210291-.642409-.5853658-1.311615-.79-2h.47c.7383716-.124769 1.385093-.566577 1.7698016-1.209041.3847087-.642463.4688278-1.421159.2301984-2.130959-.2372545-.736408-.7696448-1.341232-1.47-1.67-.175157-.133572-.3818204-.219682-.6-.25h-.3c.1860872-.551169.4238092-1.083532.71-1.59.85-1.49 1.76-2.92 2.7-4.3.1889784.148162.3976437.269322.62.36l.2.06c1.0576253.356224 2.2037762-.212375 2.5599999-1.27.3562236-1.057625-.2123747-2.203776-1.2699999-2.56.89-1.17 1.78-2.32 2.71-3.42.3422935.258652.7610116.395879 1.19.39.2867733-.005708.5693022-.070383.83-.19.2125389-.07882.404132-.205408.56-.37l.11-.08.08-.11c.1604387-.163162.286286-.357035.37-.57.119413-.253696.1841468-.529666.19-.81.0158259-.515375-.1876959-1.013277-.56-1.37.8-.87 1.62-1.74 2.45-2.57.239005.819288 1.007443 1.368763 1.86 1.33 2.32 0 2.59-3.18.8-3.93l1.86-1.72.11.19c.551083.816242 1.512021 1.256189 2.49 1.14 1.047581-.054117 2.012806-.584623 2.62-1.44.790129-1.266779.477063-2.92777-.72-3.82l1.07-.91c.371893.687579 1.07011 1.136702 1.85 1.19.570736.019747 1.124059-.198315 1.527872-.602128s.621875-.957136.602128-1.527872c-.04733-.63759-.350254-1.229013-.84-1.64l2.92-2.37c.119933 1.018739.974383 1.792016 2 1.81h.47c.326509-.032352.642973-.131034.93-.29.21.45.4.9.59 1.35-.664264.212403-1.194786.717136-1.44 1.37-.080655.220485-.108066.456909-.08.69.045799 1.085033.914967 1.954201 2 2 .280334-.005853.556304-.070587.81-.19.090477-.035252.177512-.078769.26-.13.2.47.38.93.57 1.4-1.006926.439767-1.677369 1.412492-1.73 2.51-.001747 1.603686 1.25806 2.925162 2.86 3 .316169.037136.636622.006454.94-.09l.72 2.17c-.220235.034403-.43317.105381-.63.21-1.274967.685793-1.826788 2.223228-1.278939 3.563271s2.018694 2.050553 3.408939 1.646729c.14.55.25 1.11.36 1.67-2.35.27-2.27 4.05.27 4.05h.4c.11.8.18 1.6.23 2.41l-.16-.08c-.618802-.357266-1.381198-.357266-2 0-.742581.443887-1.138957 1.296096-1 2.15.040852.749156.472829 1.42157 1.1372 1.770159.664371.34859 1.463142.321939 2.1028-.070159.02 1.06-.02 1.93-.09 2.87z"/><path d="m9.53 338.55c-.14684479-.524028-.49603047-.968161-.970604-1.234522-.47457353-.266362-1.03558373-.33309-1.559396-.185478l-.34.1c-1.07414469.315088-1.7032012 1.427011-1.42 2.51.13523733.52484.4776898.972323.94895808 1.240003.47126828.267681 1.030996.332637 1.55104192.179997l.35-.1c1.0822019-.306489 1.72164519-1.42106 1.44-2.51z"/><path d="m12 334.9c.5697894-.143783 1.0553799-.51555 1.3428536-1.028086.2874737-.512535.3515318-1.120734.1771464-1.681914-.3195288-1.075529-1.4344973-1.703805-2.52-1.42-.6767704.21087-1.20961968.736267-1.43 1.41-.17980743.409794-.21162194.869337-.09 1.3.30594062 1.086287 1.4323342 1.721 2.52 1.42z"/><path d="m17.53 336.33c.2848712-.004344.5651187-.072697.82-.2.208812-.081443.3992164-.203846.56-.36l.11-.09c.0319946-.028698.0590256-.062486.08-.1.1593933-.163998.2850962-.357649.37-.57.1207853-.25676.1855528-.536283.19-.82-.0977861-1.097301-1.0305226-1.930295-2.1318557-1.903884s-1.9930687.903157-2.0381443 2.003884c.031382 1.113403.926597 2.008618 2.04 2.04z"/><path d="m22.16 337.92c2.63 0 2.63-4.07 0-4.07s-2.63 4.07 0 4.07z"/><path d="m17.52 339.06c-3.51 0-3.51 5.43 0 5.43s3.48-5.43 0-5.43z"/><path d="m13.22 336.79h-.12c-2.63 0-2.63 4.08 0 4.08h.12c2.63 0 2.63-4.08 0-4.08z"/><path d="m9 344.38v.11c0 2.63 4.07 2.63 4.07 0v-.11c.03-2.63-4.07-2.63-4.07 0z"/><path d="m15.24 346.54c-.5698875-.016772-1.1214612.202247-1.524607.605393s-.6221654.954719-.605393 1.524607c.050452 1.082984.9170164 1.949548 2 2 .2837167-.004447.5632397-.069215.82-.19.2123512-.084904.4060016-.210607.57-.37l.09-.08.1-.11c.150443-.165244.2721284-.354532.36-.56.1207853-.25676.1855528-.536283.19-.82-.0457993-1.085033-.9149672-1.954201-2-2z"/><path d="m20.12 353.21c-2.63 0-2.63 4.08 0 4.08s2.63-4.08 0-4.08z"/><path d="m23.75 356c-2.63 0-2.63 4.08 0 4.08s2.63-4.08 0-4.08z"/><path d="m30.43 358.19c-2.63 0-2.63 4.08 0 4.08s2.63-4.08 0-4.08z"/><path d="m30.11 351.17h-.11c-3.51 0-3.51 5.44 0 5.44h.15c3.46 0 3.46-5.44-.04-5.44z"/><path d="m24.43 349h-.23c-2.63 0-2.63 4.08 0 4.08h.23c2.63.02 2.63-4.08 0-4.08z"/><path d="m28.93 344.47-.12-.22c-.3661972-.628788-1.0400315-1.014447-1.7676761-1.011719-.7276445.002757-1.3985528.393484-1.7600001 1.025014-.3614472.63153-.3585211 1.407918.0076762 2.036705l.12.23c.5688533.972021 1.8179788 1.298853 2.7899999.73.9720212-.568853 1.2988533-1.817979.7300001-2.79z"/><path d="m19.44 346.76v.24c0 2.63 4.08 2.63 4.08 0v-.22c0-2.65-4.08-2.65-4.08-.02z"/><path d="m23.63 338.94c-2.62 0-2.62 4.08 0 4.08s2.63-4.08 0-4.08z"/><path d="m27.82 338.6v.57c0 2.63 4.08 2.63 4.08 0v-.57c0-2.6-4.08-2.6-4.08 0z"/><path d="m27.82 334.87c2.63 0 2.63-4.08 0-4.08s-2.62 4.08 0 4.08z"/><path d="m25.54 329.81v-.43c0-3.33-5.17-3.33-5.17 0v.43c0 3.34 5.17 3.34 5.17 0z"/><path d="m34.39 335.73c.8241712-.076701 1.5159349-.653171 1.74-1.45.2888686-1.08372-.3423091-2.199393-1.42-2.51-.6947832-.178461-1.4319798-.074174-2.05.29-1.0134423.477726-1.447726 1.686557-.9699997 2.7.4777262 1.013442 1.6865572 1.447726 2.6999997.97z"/><path d="m40.52 336.21c.7765371.067979 1.5263735-.301841 1.9451097-.95933.4187361-.657488.4367767-1.493368.046798-2.168311-.3899786-.674943-1.1231607-1.07677-1.9019077-1.042359-.2803336.005853-.5563039.070587-.81.19-.2122733.090772-.4082105.215767-.58.37l-.09.09-.09.1c-.1593933.163998-.2850962.357649-.37.57-.1207853.25676-.1855528.536283-.19.82.026582 1.113814.9260685 2.008892 2.04 2.03z"/><path d="m46.28 338.83h.34c2.63 0 2.63-4.08 0-4.08h-.34c-2.63 0-2.63 4.08 0 4.08z"/><path d="m52.17 338.26c2.63 0 2.63-4.07 0-4.07s-2.63 4.07 0 4.07z"/><path d="m38.91 340.85v.15c0 3.52 5.46 3.52 5.46 0v-.15c0-3.52-5.46-3.52-5.46 0z"/><path d="m34.17 340.19v.11c0 2.63 4.07 2.63 4.07 0v-.11c0-2.63-4.07-2.63-4.07 0z"/><path d="m32.69 343h-.11c-2.63 0-2.63 4.08 0 4.08h.11c2.63.02 2.63-4.08 0-4.08z"/><path d="m36.32 347.55h-.12c-2.62 0-2.62 4.08 0 4.08h.12c2.68 0 2.68-4.08 0-4.08z"/><path d="m39.26 346.76v.11c0 2.63 4.08 2.63 4.08 0v-.11c0-2.63-4.08-2.63-4.08 0z"/><path d="m43 350.38h-.3c-3.51 0-3.51 5.44 0 5.44h.3c3.54 0 3.54-5.44 0-5.44z"/><path d="m38.13 356.27c-2.63 0-2.63 4.08 0 4.08s2.63-4.08 0-4.08z"/><path d="m35 362.61c-2.63 0-2.63 4.08 0 4.08s2.59-4.08 0-4.08z"/><path d="m43.23 361.25c-2.63 0-2.63 4.08 0 4.08s2.63-4.08 0-4.08z"/><path d="m45.83 366.23v.23c0 2.63 4.08 2.63 4.08 0v-.23c0-2.62-4.08-2.62-4.08 0z"/><path d="m51.63 357.51h-.16c-3.5 0-3.5 5.44 0 5.44h.16c3.5.05 3.5-5.44 0-5.44z"/><path d="m49.94 344.18.44.14c1.0852395.298234 2.2067662-.33976 2.505-1.425s-.3397605-2.206766-1.425-2.505l-.44-.15c-1.0880009-.298234-2.2117662.341999-2.5099999 1.43-.2982338 1.088001.341999 2.211766 1.4299999 2.51z"/><path d="m59.42 340v-.11c0-2.63-4.08-2.63-4.08 0v.11c0 2.59 4.08 2.59 4.08 0z"/><path d="m64.86 338.33c-1.1272709-.076442-2.1836797.554522-2.6508468 1.583277-.4671672 1.028756-.2470498 2.239401.5523406 3.037874.7993904.798472 2.0102882 1.017198 3.0385062.548849.2723274-.112045.5228136-.271137.74-.47l.13-.12.12-.13c.2022696-.214557.3617834-.465707.47-.74.1581017-.331416.2433488-.692864.25-1.06-.0317674-1.450192-1.1998077-2.618233-2.65-2.65z"/><path d="m72 345.26c-.5144624-.516249-1.2652608-.71882-1.9695766-.531407s-1.2551467.736338-1.445 1.44.0101142 1.455158.5245766 1.971407l.23.23c.7952901.79529 2.0847099.79529 2.8799999 0 .7952899-.79529.79529-2.08471.0000001-2.88z"/><path d="m62.7 352v.11c0 2.63 4.08 2.63 4.08 0v-.11c0-2.66-4.08-2.66-4.08 0z"/><path d="m64.29 349.13c2.63 0 2.63-4.07 0-4.07h-.11c-2.63 0-2.63 4.07 0 4.07z"/><path d="m59.87 347.1h.23c2.63 0 2.63-4.08 0-4.08h-.23c-2.63-.02-2.63 4.08 0 4.08z"/><path d="m57.19 349c.0665896-.390515.0665896-.789485 0-1.18-.3238683-1.067819-1.4262892-1.695891-2.51-1.43-.9063999.233532-1.5296012 1.064467-1.5 2v.08c-.0296012.935533.5936001 1.766468 1.5 2 1.0971531.273739 2.2120085-.379184 2.51-1.47z"/><path d="m60.21 353.66c0-2.62-4.07-2.62-4.07 0v.12c0 2.63 4.07 2.63 4.07 0z"/><path d="m61.57 357.74c-2.63 0-2.63 4.08 0 4.08s2.63-4.08 0-4.08z"/><path d="m51.84 351.07c-1.1391263.038396-2.0374439.9824-2.0193302 2.122029s.9459787 2.054607 2.0857499 2.056785c1.1397711.00217 2.0711196-.909262 2.0935803-2.048814-.0034076-.281798-.071853-.559002-.2-.81-.0833965-.213784-.2054295-.410393-.36-.58l-.09-.09-.1-.1c-.1670213-.153018-.3600594-.274937-.57-.36-.2628798-.123583-.5495246-.188419-.84-.19z"/><path d="m45.6 347.55v.11c0 2.63 4.08 2.63 4.08 0v-.11c0-2.63-4.08-2.63-4.08 0z"/><path d="m117.38 191.65c.568932-.148651 1.052668-.522831 1.339522-1.036149.286855-.513318.35203-1.1214.180478-1.683851-.319485-1.070648-1.427744-1.697631-2.51-1.42-.678182.214349-1.210897.743339-1.43 1.42-.17202.40817-.203675.861897-.09 1.29.30628 1.081726 1.423294 1.718113 2.51 1.43z"/><path d="m112.62 195.38c.569789-.143783 1.05538-.51555 1.342854-1.028086.287473-.512535.351531-1.120734.177146-1.681914-.315062-1.069256-1.42026-1.697009-2.5-1.42-.682899.210095-1.220375.740106-1.44 1.42-.17202.40817-.203675.861897-.09 1.29.306039 1.081288 1.42555 1.714637 2.51 1.42z"/><path d="m108.21 202.37h.15c3.51 0 3.51-5.44 0-5.44h-.15c-3.5 0-3.5 5.44 0 5.44z"/><path d="m114.57 200.33h.11c2.63 0 2.63-4.08 0-4.08h-.11c-2.63 0-2.63 4.08 0 4.08z"/><path d="m120 197.5h.11c2.63 0 2.63-4.08 0-4.08h-.11c-2.62 0-2.62 4.08 0 4.08z"/><path d="m121.37 204.29c2.62 0 2.62-4.07 0-4.07s-2.63 4.07 0 4.07z"/><path d="m123.18 205.42h-.18c-2.63 0-2.63 4.08 0 4.08h.23c2.58 0 2.58-4.08-.05-4.08z"/><path d="m116.5 204.41c-2.63 0-2.63 4.07 0 4.07s2.63-4.07 0-4.07z"/><path d="m111.4 205.69.23.12c.972021.566092 2.218908.237021 2.785-.735s.237021-2.218908-.735-2.785l-.22-.12c-.972021-.568853-2.221147-.242021-2.79.73s-.242021 2.221147.73 2.79z"/><path d="m108.12 205h-.12c-2.63 0-2.63 4.08 0 4.08h.12c2.63-.03 2.63-4.08 0-4.08z"/><path d="m111.06 213.81h.23c2.63 0 2.63-4.08 0-4.08h-.23c-2.63 0-2.63 4.08 0 4.08z"/><path d="m120.8 212.35v-.15c0-3.5-5.44-3.5-5.44 0v.15c0 3.51 5.44 3.51 5.44 0z"/><path d="m114.68 219.47h.32c2.63 0 2.63-4.08 0-4.08h-.34c-2.6 0-2.6 4.08.02 4.08z"/><path d="m120.23 216.07v.11c0 2.63 4.08 2.63 4.08 0v-.11c0-2.63-4.08-2.63-4.08 0z"/><path d="m122.37 224.19c.783752-.803921.783752-2.086079 0-2.89-.584708-.644149-1.494079-.883251-2.32-.61-1.074675.315239-1.706811 1.424791-1.43 2.51.265616.725626.868298 1.276203 1.614919 1.475302.746622.1991 1.543426.021718 2.135081-.475302z"/><path d="m123.35 227.84c-.2655-.475019-.713098-.821342-1.239557-.95909-.526459-.137747-1.086317-.055024-1.550443.22909-.953209.58297-1.275538 1.814885-.73 2.79l.15.32c.2655.475019.713098.821342 1.239557.95909.526459.137747 1.086317.055024 1.550443-.22909.953209-.58297 1.275538-1.814885.73-2.79z"/><path d="m116 230.91c-2.63 0-2.63 4.07 0 4.07s2.67-4.07 0-4.07z"/><path d="m109.93 232.72h-.12c-2.62 0-2.62 4.07 0 4.07h.12c2.63 0 2.63-4.07 0-4.07z"/><path d="m108.57 231.7c2.63 0 2.63-4.08 0-4.08h-.11c-2.63 0-2.63 4.08 0 4.08z"/><path d="m114.82 230.35c3.52 0 3.52-5.46 0-5.46h-.15c-3.53 0-3.53 5.46 0 5.46z"/><path d="m112 220.76c-.376966-.391104-.8968-.612052-1.44-.612052s-1.063034.220948-1.44.612052l-.16.19c-.782544.800527-.782544 2.079473 0 2.88.376966.391104.8968.612052 1.44.612052s1.063034-.220948 1.44-.612052l.16-.18c.773344-.808127.773344-2.081873 0-2.89z"/><path d="m100.87 223.2v.12c0 2.63 4.08 2.63 4.08 0v-.12c.05-2.62-4.08-2.62-4.08 0z"/><path d="m108 213.83c-3.62 0-3.62 5.62 0 5.62s3.63-5.62 0-5.62z"/><path d="m99.65 216c.428103.113675.88183.08202 1.29-.09.681746-.216612 1.212944-.755292 1.42-1.44.277009-1.07974-.350744-2.184938-1.42-2.5-.562451-.171552-1.1705326-.106377-1.6838508.180478-.5133182.286854-.8874983.77059-1.0361492 1.339522-.2881128 1.086706.3482737 2.20372 1.43 2.51z"/><path d="m104.61 212.67c2.62 0 2.62-4.07 0-4.07s-2.61 4.07 0 4.07z"/><path d="m100.08 207.28.08.09.11.09c.160391.159116.350724.284872.56.37.25676.120785.536283.185553.82.19 1.082984-.050452 1.949548-.917016 2-2 .067979-.776537-.301841-1.526374-.95933-1.94511-.657488-.418736-1.493368-.436776-2.168311-.046798-.6749429.389979-1.0767704 1.123161-1.042359 1.901908.0058532.280334.070587.556304.19.81.1031852.203126.2420626.386038.41.54z"/><path d="m102.78 201.79c1.085033-.045799 1.954201-.914967 2-2-.004447-.283717-.069215-.56324-.19-.82-.087872-.205468-.209557-.394756-.36-.56l-.1-.11-.09-.08c-.167591-.159675-.364561-.285329-.58-.37-.253696-.119413-.529666-.184147-.81-.19-1.082984.050452-1.949548.917016-2 2-.016772.569888.202247 1.121461.605393 1.524607s.954719.622165 1.524607.605393z"/><path d="m96.11 207.58h.12c2.62 0 2.62-4.08 0-4.08h-.12c-2.63 0-2.63 4.08 0 4.08z"/><path d="m98.49 211.33v-.15c0-3.5-5.44-3.5-5.44 0v.15c0 3.51 5.44 3.51 5.44 0z"/><path d="m92.71 212c-.050452-1.082984-.9170164-1.949548-2-2-.2837167.004447-.5632397.069215-.82.19-.2103884.08865-.4033794.213924-.57.37l-.1.09-.09.1c-.1530184.167021-.2749372.360059-.36.57-.1225483.2566-.1906441.535792-.2.82.0178633.746685.4327214 1.427121 1.0883013 1.784993.6555799.357873 1.4522834.338813 2.09-.05s1.019562-1.088308 1.0016987-1.834993z"/><path d="m96 217.32v-.12c0-2.63-4.08-2.63-4.08 0v.12c0 2.62 4.08 2.62 4.08 0z"/><path d="m98.72 222.07c2.63 0 2.63-4.07 0-4.07h-.23c-2.63 0-2.63 4.07 0 4.07z"/><path d="m94.64 222.07c-2.63 0-2.63 4.08 0 4.08s2.63-4.08 0-4.08z"/><path d="m100.42 225.92h-.12c-2.63 0-2.63 4.08 0 4.08h.12c2.58 0 2.58-4.08 0-4.08z"/></g></svg>