<svg height="320" viewBox="0 0 320 320" width="320" xmlns="http://www.w3.org/2000/svg"><g fill="#262626" transform="translate(89 2)"><path d="m141.78 273c-.19-.95-.42-1.91-.69-2.84-2-7-5.8-13.72-8.7-20.13-4.1-9.06-8.2-18.12-12.3-27.18-7.85-17.39-16.48-34.65-23.3-52.49-6.55-17.11-6.13-35.6-6.55-53.63-.5666667-23.7933333-.6-47.5933333-.1-71.4.1866667-9.3333333.45-18.6866667.79-28.06.1866667-4.9666667.39-9.94.61-14.92.0071459-.42727114-.1854911-.83340555-.5208958-1.0981987-.3354046-.26479314-.7751576-.35791397-1.1891042-.2518013-13.7 3.59-28.12 2.79-42.16 2.88l-43 .29c-.4260447-.0016996-.82863091.19490815-1.08924847.5319474-.26061756.33703926-.34959932.77614347-.24075153 1.1880526 1.92347954 5.426084 3.48031705 10.9752409 4.66 16.61 1.52759668 7.4601959 2.4903274 15.0249865 2.88 22.63 1.75 32.68-5.74 65.81-9.19 98.74-.98 9.13-1.63 18.13-1.69 27.21 0 8.53 1.22 16.71 5.75 23.71.85664094 1.315123 1.80923137 2.565189 2.85 3.74.17.19.34.35.51.53.07702343.158149.19870413.29026.35.38 3.6 3.8 7.94 6.91 11.5 10.81 4.3 4.72 7.5 10.43 10.35 16.11 5.93 11.83 10 24.78 14.27 37.27 3.91 11.39 6.28 24.08 13.21 34.13.0411208.061015.0880024.117942.14.17l.08.1c.43.54.89 1.07 1.37 1.59 16 17.56 51.61 20.41 69.59 4.9 9.41-8.11 14.24-19.16 11.81-31.52zm-57.78-243.92c.0933333-4.86.23-9.7166667.41-14.57.1-2.82 1.05-6.74-.14-9.51 1.51-.26 3-.55 4.51-.9-.2 4.5-.38 9.0066667-.54 13.52-.34 9.18-.5933333 18.3566667-.76 27.53-.08 3.7-.1433333 7.3966667-.19 11.09l-3.33.16c-.1533333-9.1-.14-18.2066667.04-27.32zm-5-23.34c1.3-.15 2.59-.32 3.88-.52.81 1.61.43 3.61.36 5.31-.1 2.2133333-.1833333 4.42-.25 6.62-.16 4.42-.26 8.84-.34 13.26-.16 8.68-.15 17.37 0 26.06l-2.47.16c-.2-7.89-1.6-15.79-1.94-23.69-.386815-9.0720243-.1529363-18.159881.7-27.2zm-1.36.14c-.8064979 8.5580623-1.0836922 17.1577646-.83 25.75.25 8.39 1.79 16.74 2 25.11-1.3.12-2.6.29-3.91.51.24-17.04.1466667-34.0766667-.28-51.11.94-.07 1.95-.14 2.96-.26zm-6.64 26.75c.23-8.77.72-17.52.17-26.29l2-.12c.4333333 17.1.5266667 34.2.28 51.3-.52.11-1 .22-1.58.36-.7600369-8.3938948-1.0504895-16.8236989-.87-25.25zm-3.66-26.15 2.45-.08c.55 8.74.09 17.49-.17 26.23-.1838364 8.5412367.1333748 17.0859044.95 25.59l-.17.05c-1.06.31-2.12.57-3.17.79.16-17.5266667.1966667-35.0533333.11-52.58zm-5.17.08h3.81c.0866667 17.6.05 35.2066667-.11 52.82-.78.14-1.56.25-2.33.35-2.44-17.59-1.54-35.51-1.37-53.17zm-3.53 0h2.17c-.14 17.71-1 35.66 1.39 53.26-1.4.14-2.8.22-4.2.26.74-17.82.9533333-35.6533333.64-53.5zm-4.64.02h3.3c.32 17.8533333.1066667 35.7-.64 53.54h-2c-.48-8.88-.69-17.76-.8-26.65s-.37-17.95.14-26.89zm-3.62 0h2.26c-.49 8.94-.23 17.93-.13 26.88s.32 17.76.8 26.63l-3.13-.09c.49-9.11.92-18.22.54-27.34-.36-8.66-1.13-17.39-1.72-26.06zm-5.9 0h3.15c.61 8.67 1.31 17.35 1.75 26 .2951414 9.0932005.1148956 18.1956121-.54 27.27l-1.84-.04c0-8.56.16-17.13 0-25.69-.0409059-4.4310462-.4085699-8.8530412-1.1-13.23-.76-4.76-1.7-9.43-1.44-14.26zm-1.37 0c-.49 8.72 2.26 17.41 2.53 26.15.27 9 0 18 0 27-1.06-.06-2.12-.1-3.18-.15.46-8.6.8-17.18.44-25.8-.37-9.08-1.43-18.12-2.47-27.15zm-6.43 0h2.37c1 8.58 1.94 17.17 2.41 25.8.3617973 9.0234448.2382857 18.0598146-.37 27.07l-1.33-.06c.37-17.59-3.58-35.04-3.1-52.71zm-4.18 0h2.8c-.48 17.65 3.46 35.07 3.08 52.72l-3-.14c.0356287-8.2768309-.4251987-16.5483485-1.38-24.77-1.3506331-9.1642724-1.8594232-18.4329546-1.52-27.69zm-2.61 0h1.25c-.3293701 9.2526346.1692822 18.5161888 1.49 27.68.9674365 8.2412813 1.451598 16.5321299 1.4500039 24.83l-1.7300039-.06c.36-17.41-4.35-34.76-2.48-52.31zm-1.36 0c-1.92 17.68 2.81 35.01 2.47 52.54l-2.47-.12c.44-8.46-.41-16.88-1.2-25.31-.84-8.9866667-1.6866667-17.9866667-2.54-27zm-5.08 0c.8066667 8.54 1.6133333 17.08 2.42 25.62.83 8.85 1.78 17.71 1.32 26.61h-.92c-2.49-17.34-4.13-34.75-5.76-52.18zm-4.3 0c1.63 17.41 3.28 34.8 5.76 52.12h-.86c-.47 0-1-.06-1.54-.11.14-17.53-3-34.8-6.24-52zm-4.25 0c3.26 17.12 6.37 34.33 6.25 51.81-.72-.08-1.46-.17-2.23-.23-.52-8.5-.95-17-1.7-25.49-.81-8.67-3.9-17.04-4.94-25.83zm-4.1 16c-1.06282237-5.4201084-2.47918166-10.7648605-4.24-16h4.4c1 8.38 3.88 16.39 4.78 24.82.94 8.84 1.29 17.77 1.82 26.65-1.3010533-.0926885-2.6086585.008415-3.88.3.08-4.27 0-8.52-.15-12.78-.3447942-7.631648-1.2640624-15.2264746-2.75-22.72zm0 172.85c-.1739102-.01341-.3485488.013984-.51.08-.59-.75-1.12-1.49-1.62-2.27-5.63-8.65-6.13-18.58-5.76-30 .2-6.23.65-12.45 1.26-18.69.15-1.48.3-3 .46-4.46 2.56377299 1.490441 5.34361556 2.573365 8.24 3.21 5.41 1.41 9.34 4.13 13.83 7.3 3.74 2.62 8.36 3.82 12.34 6 8.58 4.66-.17 13.32-4 17.66-6.9324748 7.902105-14.8738694 14.85839-23.62 20.69-.2428279.228948-.4637839.480034-.66.75zm45.38 91.42c-1.3-3.05-2.43-6.21-3.45-9.42 2.76-1.21 5.43-3.85 4-7.11-.6677308-1.429105-2.12346-2.322214-3.7-2.27-1.0269703-.077879-2.0480721.212852-2.88.82-.88-2.94-1.75-5.85-2.72-8.65-3.62-10.58-7.33-21.2-11.85-31.44.0502554-.031781.0943066-.072444.13-.12.2788099-.119493.5465173-.263386.8-.43.5249158-.389729.9754263-.870725 1.33-1.42.7116454-1.134172.85576-2.53467.39-3.79-.5907785-1.117963-1.6940623-1.873432-2.95-2.02-1.09-.26-2.6-.43-3.49.32-.0028719.019897-.0028719.040103 0 .06-4.2933099-7.733016-9.9159851-14.648805-16.61-20.43-.88-.77-1.7-1.56-2.47-2.36l.12-.68c.0049165-.039849.0049165-.080151 0-.12 2.52-1.35 5.57-4.39 6.63-5.3 4.2-3.61 8.39-7.23 12.47-11 4.82-4.49 14.55-13.12 14.07-20.36-.49-6.55-11.77-9.24-16.2-11.51-3.68-1.89-6.51-5.21-10.4-6.76-4.83-1.93-10.11-2.42-14.42-5.51 2.89-25 7.72-50.11 8.62-75 .0939796-.0385545.1843369-.0854064.27-.14.12-.11 5.15-.68 5.15-.68 3.37.06 6.74.17 10.11.27 6.74.22 13.47.54 20.21.91 13.11.72 25-2.84 37.93-3.68-.18 14.8133333-.18 29.63 0 44.45.14 9.56.12 19.24.52 28.87-.1620256-.02923-.3279744-.02923-.49 0-2.78.71-5.93 3.15-4.88 6.36.87 2.61 3.63 3.13 5.83 2.18.26 3.706667.5933333 7.403333 1 11.09 1.8 14.24 8.1 27.2 14 40.14l21.22 47 10.06 22.23c.3.68.6 1.35.88 2-7.73-1-15.53-2.2-23.32-1.25s-14.56-.08-22.27 2.5c-11.75 3.89-18.82 12.69-25.53 22.18l-.08-.06c-2.6265139-1.007728-5.5560141-.862524-8.07.4zm82.61 0c-8.22 31-58.42 30.89-76.85 10.13-.28-.32-.57-.65-.84-1 0 0 0-.05-.07-.09l.12-.13c3.54-4.94 7-9.92 10.63-14.82 5.49-7.46 12.26-11.85 21-14.79 7-2.33 14.33-1.06 21.56-1.94s15 .77 22.31 1.66c.45 1.13.86 2.27 1.24 3.4 1.77 5.9 2.52 11.6.86 17.85z"/><path d="m29.84 73.09.1.06c1.44.58 3-.84 3.16-2.18.0550143-.3612508.0550143-.7287492 0-1.09.0795807-.4133549-.0559769-.8388552-.36-1.13-.0483246-.030949-.0950511-.0643251-.14-.1-.3019795-.3990963-.7696637-.6384622-1.27-.65-1.0320849-.3696085-2.1808538.051186-2.73 1-.8364939 1.0591887-.7770889 2.5697724.14 3.56.2911434.3030024.6815936.4911284 1.1.53z"/><path d="m19.51 78.37c.2903054-.0206072.5781479-.0674653.86-.14.4782058.1617234 1.0063189.0574071 1.3871199-.2739927s.5570317-.8400529.4628801-1.3360073v-.19c0-.18 0-.37 0-.57.0435285-.4547987-.1886745-.8916552-.59-1.11-.25621-.2852485-.6168836-.454765-1-.47h-.9c-.482689-.00554-.9304861.2508908-1.17.67-.3253879.638639-.4640299 1.3561112-.4 2.07.0209132.7367481.6132519 1.3290868 1.35 1.35z"/><path d="m45.32 71.87c.4679675.0092817.9042481-.2356477 1.14-.64.383275-.3086886.5347275-.8228301.38-1.29.0121387-.2875359-.025066-.5750265-.11-.85-.0586259-.1367443-.1360384-.2646431-.23-.38v-.09c-.167834-.5861077-.7003802-.9926316-1.31-1h-.49c-.6107567.0040565-1.1450609.4119224-1.31 1-.2248745.728301-.1640924 1.5148919.17 2.2.3862962.6099821 1.039733.9998166 1.76 1.05z"/><path d="m57.72 72.23c.4843973-.1517432.8990831-.4707323 1.17-.9.1708917-.3039112.2442043-.6530187.21-1 .2265913-.506451.1149851-1.1003553-.28-1.49l-.1-.06c-.156275-.173563-.3567376-.3014443-.58-.37-.6787836-.3292538-1.4789376-.2877364-2.12.11-.8822007.6015933-1.1924338 1.7575305-.73 2.72.4734267.8637283 1.487767 1.276978 2.43.99z"/><path d="m62.83 83.91c.83-.08 2.17-.14 2.8-.77.5699994-.7112697.711485-1.6749012.37-2.52-.3307642-.8613868-1.0799417-1.4931352-1.9848104-1.6737031-.9048687-.180568-1.8391425.115245-2.4751896.7837031-.214145.2174856-.3420666.5053092-.36.81-.0045273.0498975-.0045273.1001025 0 .15-.0985918.8823224.0796374 1.7734684.51 2.55.2311352.412804.6668939.6689078 1.14.67z"/><path d="m56.71 91.76c-1.73.75-1.15 3.43.13 4.32s3.55.32 3.61-1.51c.0199592-.7915225-.2961286-1.554493-.87-2.1-.6918832-.8492683-1.8619572-1.1387291-2.87-.71z"/><path d="m47.49 119.74c.6357834.141863 1.3013573-.020833 1.8-.44.4687607-.622617.6372417-1.42107.46-2.18.0057003-.049838.0057003-.100162 0-.15-.0072452-.359299-.1629011-.69957-.43-.94-.1972908-.514278-.689196-.855438-1.24-.86-1.1705824-.036486-2.1951587.780635-2.42 1.93-.2073477 1.230765.6047361 2.402296 1.83 2.64z"/><path d="m29 110c.6327227.413748 1.4224469.50804 2.1347961.254891s1.2654693-.82465 1.4952039-1.544891c.2335864-.972687-.1659951-1.987624-1-2.54-.1194316-.258199-.3102835-.476811-.55-.63-.7847763-.441493-1.7611038-.349838-2.45.23-1.38 1.05-.94 3.32.37 4.23z"/><path d="m17.47 123h.06c.6397681-.110539 1.1102423-.660826 1.12-1.31v-.68c-.0054463-.74884-.6111603-1.354554-1.36-1.36h-.51c-.7449317.010857-1.3446411.615008-1.35 1.36v.86c.0166174.477317.2823958.910935.7001881 1.142359.4177924.231425.92636.226733 1.3398119-.012359z"/><path d="m18.28 132.86c-.059878-.005411-.120122-.005411-.18 0h-.18c-1.4209547.332532-2.3116766 1.744326-2 3.17.1234585.594305.3760904 1.154192.74 1.64.5709342.658838 1.4675845.934432 2.31.71.62507-.093825 1.2090464-.368433 1.68-.79.5388931-.563928.7701183-1.354569.62-2.12-.1520236-1.522574-1.4608461-2.665058-2.99-2.61z"/><path d="m31 133.71h-.05c-.4833535-.121414-.9953059.010338-1.36.35-.3951137.260971-.6492624.688236-.69 1.16-.1213217.894608.1482845 1.798153.74 2.48.9474658.644615 2.2092322.574972 3.08-.17.5595766-.787372.5595766-1.842628 0-2.63-.3718838-.628959-1.0003144-1.063746-1.72-1.19z"/><path d="m47 138c-.0097176.069663-.0097176.140337 0 .21-.0045273.049898-.0045273.100102 0 .15-.0366155.64034.1665946 1.271361.57 1.77.3901174.643857 1.060795 1.066273 1.81 1.14.6621703.040433 1.3227595-.101369 1.91-.41.7499539-.440343 1.0946656-1.341577.83-2.17-.1334537-1.172993-.9834412-2.138707-2.13-2.42-1.298883-.315352-2.6160556.446758-2.99 1.73z"/><path d="m59.51 124.73c-.9010333-.629179-2.0989667-.629179-3 0-.3085045.224138-.5280535.549921-.62.92-.004853.029804-.004853.060196 0 .09-.0341883.148052-.0341883.301948 0 .45-.0051263.02642-.0051263.05358 0 .08.11.49.21 1 .32 1.47.167834.586108.7003802.992632 1.31 1 .6987007.022469 1.3967382-.061835 2.07-.25.4747487-.136114.8383953-.5189.95-1 .2277146-1.042388-.1750529-2.121649-1.03-2.76z"/><path d="m66 112.28h-1.3c-.6096198.007368-1.142166.413892-1.31 1-.2750181.981515.0196753 2.034493.7642225 2.730665.7445473.696173 1.8149204.919571 2.7757775.579335.7038008-.229661 1.1159506-.958515.95-1.68-.1105896-.700657-.340594-1.377141-.68-2 0-.08-.11-.12-.16-.19l-.07-.08c-.1008684-.113025-.2232524-.204813-.36-.27-.1477823-.066348-.3080078-.100439-.47-.100004z"/><path d="m78.63 102.93c.4210694-.008359.8152733-.208538 1.0704511-.543581.2551779-.335042.3433941-.76827.2395489-1.176419 0 0 0-.3 0-.36-.0064082-.293383-.0817732-.581141-.22-.84-.2090285-.3419147-.5308868-.6001087-.91-.73-.8615417-.4036878-1.8887473-.1192962-2.42.67-.375354.728452-.2683558 1.612177.27 2.23.5005036.548364 1.2315372.826676 1.97.75z"/><path d="m76.53 85.23c.1347039.4126906.4834518.7192822.91.8h.23.09c1.23 0 2.5.24 3.42-.81.8226514-1.0515103.7459002-2.5481591-.18-3.51-.9595521-.8712503-2.3872293-.9823376-3.47-.27-1.1681732.8191908-1.6263481 2.3299298-1.11 3.66.05.05.09.08.11.13z"/><path d="m82.85 67.93c.9139711-.7991294 1.1471389-2.1273528.56-3.19-.6687034-1.0799208-1.9553258-1.608283-3.19-1.31-.2615178.0600582-.4924281.2128143-.65.43-.0909602.1101991-.162023.235405-.21.37 0 0-.06.08-.08.13-.4 1.23-.57 2.4.34 3.45.8938416.8452628 2.2759031.8966088 3.23.12z"/><path d="m65.88 134.77h-.07c-.1414012.044275-.2711964.11942-.38.22-.0824311.064317-.1534264.142074-.21.23-.069051.083626-.129365.174097-.18.27-.062364.139019-.0996061.287988-.11.44-.0043353.023132-.0043353.046868 0 .07-.0940549.803706.2004641 1.604133.7930116 2.155203.5925475.551069 1.4122077.786828 2.2069884.634797.4940616-.120187.8798134-.505938 1-1 .2073365-.879799-.0030063-1.806045-.57-2.51-.6435164-.663117-1.6270361-.865373-2.48-.51z"/><path d="m63.81 152.24c-.06562.039893-.1290451.083289-.19.13-1.0501701 1.107263-1.0501701 2.842737 0 3.95 1.1484904 1.119201 2.9082765 1.320672 4.28.49.7247781-.418333 1.1933993-1.170362 1.2495982-2.005316.0561988-.834953-.3074176-1.642998-.9695982-2.154684-1.22-.82-3-1.49-4.27-.49-.05.02-.07.06-.1.08z"/><path d="m81.85 159.07c.89-1.24-.15-3-1.24-3.68-1.2537484-.684597-2.8143554-.410661-3.76.66-.1695735.152764-.2853108.356181-.33.58v.2.3c-.0951211 1.202427.5391437 2.344891 1.61 2.9 1.3091482.620085 2.8743963.21615 3.72-.96z"/><path d="m57.09 169.77c.6624542-.323931 1.159234-.910165 1.3700819-1.61679.210848-.706626.1165445-1.469231-.2600819-2.10321-.1116074-.20458-.2777648-.374199-.48-.49-.8108759-.75967-2.0116806-.927783-3-.42-.8270698.418001-1.3683131 1.245486-1.4198488 2.17075s.3944658 1.807737 1.17 2.315 1.762779.562251 2.5898488.14425z"/><path d="m50.6 188.57c1.82-1.09 1.85-3.45 1.19-5.22-.0221141-.045975-.0489234-.08954-.08-.13-.0153919-.067963-.0354391-.134787-.06-.2-.3773035-.834334-1.1490868-1.422831-2.0535293-1.56585s-1.8201404.178638-2.4364707.85585c-1.2445307 1.141651-1.6992457 2.909551-1.16 4.51.2616879.934775.951381 1.689941 1.8586573 2.035101.9072763.345159 1.924508.239367 2.7413427-.285101z"/><path d="m34.23 188.77c-.698602.003871-1.3495393.3549-1.736597.936489s-.4595519 1.317582-.193403 1.963511c.0217571.057568.0521007.111512.09.16-.0044257.05658-.0044257.11342 0 .17.46 1.1 1.74 2.22 3 1.82.6088032-.186784 1.1184143-.607867 1.4166293-1.170536.298215-.56267.3605825-1.220792.1733707-1.829464-.3971142-1.191655-1.4945636-2.009753-2.75-2.05z"/><path d="m25.06 196.46c-.7114493-.256106-1.4972536-.205667-2.1701214.139296-.6728677.344963-1.1725239.953549-1.3798786 1.680704-1.05 3.35 4.89 5.69 5.58 2 .0052408-.063225.0052408-.126775 0-.19.0048254-.056564.0048254-.113436 0-.17.1789062-1.478711-.6519124-2.894786-2.03-3.46z"/><path d="m42.78 208.77c-.0496457-.49567-.1501753-.984915-.3-1.46.1285592-.47675.0207122-.986234-.29-1.37-1.33-1.5-4.49-1.15-4.54 1.19-.0200159 1.078856.5067203 2.094705 1.4 2.7.9270545.578168 2.0905156.623794 3.06.12.4255191-.238005.6836554-.692633.67-1.18z"/><path d="m50 239.07c.5791355-1.49381-.0093257-3.187224-1.39-4-.0688182-.0363-.1355859-.07636-.2-.12 0 0-.07 0-.11 0-.0658719-.041388-.1363485-.074949-.21-.1-1.4558662-.339782-2.9153682.550158-3.28 2-.3699036 1.398887.311422 2.862475 1.62 3.48 1.3363212.580337 2.8939985.030569 3.57-1.26z"/><path d="m50.33 252.66c-.6333765.044145-1.2439079.254554-1.77.61-.6508903.532959-.8986923 1.416253-.62 2.21.2034263 1.076018 1.0301378 1.92635 2.1 2.16.1673856.041271.3380171.068037.51.08.2290864.020995.4591649-.02781.66-.14 1.0841164-.304527 1.8401351-1.2841 1.86-2.41-.0176536-.700673-.3196163-1.36401-.8364409-1.837451-.5168245-.473441-1.2040266-.716238-1.9035591-.672549z"/><path d="m61.79 255.12c.0585868-.655162-.1465722-1.306632-.57-1.81-.0683606-.644817-.6328745-1.121126-1.28-1.08-.1142687.01428-.2277457.034305-.34.06h-.2c-.086388-.009829-.173612-.009829-.26 0h-.06c-.0629028-.010444-.1270972-.010444-.19 0-.0599045-.004786-.1200955-.004786-.18 0-.2739748.049413-.5179036.203663-.68.43l-.26.09c-.6765755.464992-.9756 1.313575-.74 2.1.49 1.69 2.25 2.13 3.76 1.53.583825-.177289.9873792-.709981 1-1.32z"/><path d="m64.35 271c-1.3011655-.035224-2.476596.772632-2.91 2-.47 1.13.19 2.57.73 3.55.2428229.4207.694303.677049 1.18.67 1.44 0 2.92.14 4-1 .05-.06.07-.12.11-.17l.1-.11c.6505987-.996547.6505987-2.283453 0-3.28-.7165176-1.064969-1.9267992-1.690846-3.21-1.66z"/><path d="m82 262.12c-.0995191-.064012-.2071356-.114458-.32-.15-.1 0-.19 0-.28 0h-.13l-.27.03-.27.1c-1.11.1-1.5 1.36-1.36 2.34.2749377 1.038693 1.3214476 1.674547 2.37 1.44.4373395-.080433.8332013-.310174 1.12-.65.3539996-.528894.500022-1.169968.41-1.8-.0286946-.696052-.5751723-1.259741-1.27-1.31z"/><path d="m73.49 255.87h-.06-.13c-.2829654-.067914-.5808872-.032447-.84.1-.4435753.137366-.7547654.536328-.78 1-.0049833.089931-.0049833.180069 0 .27-.004853.029804-.004853.060196 0 .09-.2109879.48494-.2600809 1.024963-.14 1.54.1619756.590082.698091.999331 1.31 1h1c.7466116-.010744 1.3492557-.613388 1.36-1.36.1192174-1.175076-.5969367-2.274289-1.72-2.64z"/><path d="m78.6 242.5c.8690326.225034 1.7917407-.039144 2.41-.69.5831218-.689014.6862018-1.664309.26-2.46-.3955591-.591426-1.1579088-.814655-1.81-.53h-.14c-.6095425.045719-1.1668863.361058-1.52.86-.1924557.47854-.2612394.997858-.2 1.51-.0027955.613077.4078776 1.151059 1 1.31z"/><path d="m61.83 235.9c.3072014.894266 1.0708138 1.554791 2 1.73 1.5354717.244248 3.0174732-.675615 3.48-2.16.0049725-.069912.0049725-.140088 0-.21 0 0 0-.1 0-.15.0362237-.794735-.2001654-1.577994-.67-2.22-.3936393-.784892-1.0424937-1.412588-1.84-1.78-1.55-.46-3.1.89-3.43 2.33-.1370591.848539.0255835 1.718323.46 2.46z"/><path d="m54.94 222.2c.0827034-.059475.1567442-.130151.22-.21.0557204-.07278.1058631-.149665.15-.23 0 0 0-.1.07-.16.0450772-.10184.075383-.209594.09-.32.0046978-.04989.0046978-.10011 0-.15.0973091-.954566-.1588677-1.911671-.72-2.69-.3243892-.513692-.9379521-.766336-1.53-.63l-1.69.33c-.5900822.161976-.9993305.698091-1 1.31.0112647 1.056817.4262804 2.069313 1.16 2.83.9065441.734558 2.2034559.734558 3.11 0 .08 0 .1-.05.14-.08z"/><path d="m72 218.43c.1220123-1.129254-.5742981-2.186304-1.66-2.52h-.08c-.621976-.126773-1.2683674-.045974-1.84.23-.4245444.23531-.6856924.684638-.68 1.17l.18 1.31c.0196529.73855.6023471 1.338638 1.34 1.38.5858704.057498 1.177168-.017696 1.73-.22.6023036-.17115 1.0158263-.723879 1.01-1.35z"/><path d="m74.77 203.25c-.4993913-.524267-1.1960973-.814561-1.92-.8-.0665465-.00566-.1334535-.00566-.2 0-.05 0-.1 0-.16 0-3.28.74-1.72 6.12 1.29 5.81.7557575-.076758 1.4383934-.485195 1.8633281-1.114871s.5482754-1.41555.3366719-2.145129c-.2569578-.672033-.6719943-1.272292-1.21-1.75z"/><path d="m82.07 218.63c-1 .11-1.86.35-2.12 1.4-.3998843 1.482147-.0236746 3.06599 1 4.21 1.0533967 1.066495 2.6870717 1.303378 4 .58.4191631-.201498.6756959-.635631.65-1.1 0 0 0 0 0-.07.0830148-1.475234-.321044-2.936873-1.15-4.16-.5287287-.764916-1.4844434-1.110259-2.38-.86z"/><path d="m59.8 195c-.4942838-.154557-1.0151107-.205619-1.53-.15-.6096198.007368-1.142166.413892-1.31 1-.2519484 1.031269.0598905 2.118902.82 2.86.9352848.797997 2.3202779.767888 3.22-.07.4071511-.378396.6384659-.909162.6384659-1.465s-.2313148-1.086604-.6384659-1.465c-.209168-.216273-.4660032-.380647-.75-.48-.137933-.098281-.2895503-.175774-.45-.23z"/><path d="m73.59 183c-.6767158-1.17028-2.1373445-1.626727-3.36-1.05-1.46.74-1.4 2.42-.78 3.7.6760731 1.171856 2.1665919 1.585641 3.35.93.7139549-.239611 1.1963461-.906919 1.2-1.66.0521625-.666201-.0902724-1.333213-.41-1.92z"/><path d="m83.81 178.3c1.3881388.785159 3.1391497.465262 4.16-.76.0485604-.045219.0921419-.095506.13-.15.0329498-.034151.0630502-.07094.09-.11.0402013-.072273.070474-.149637.09-.23 0 0 0-.05 0-.09s0-.06 0-.08v-.14c.3833677-1.66174-.2914738-3.38854-1.7-4.35-1.52-1.08-4.24-.25-4.62 1.63-.3645856 1.675736.3796016 3.397423 1.85 4.28z"/><path d="m97.52 203.9c-3.41 1-1.23 6.84 2 5.92.0663383-.027282.1299537-.060763.19-.1h.13c.0723818-.033832.1396958-.077587.2-.13 2.54-1.66.5-6.59-2.52-5.69z"/><path d="m85.4 197h1.36c.7422687-.020921 1.3390787-.617731 1.36-1.36.1194672-.796978-.0623647-1.609874-.51-2.28-.326148-.926641-1.2612295-1.494057-2.233767-1.35547s-1.7119037.944611-1.766233 1.92547c.0748343.714306.2498864 1.414514.52 2.08.1557393.575926.6734806.979519 1.27.99z"/><path d="m95.17 227.09c.609348-.399978 1.0007537-1.058099 1.0612851-1.784476s-.2165452-1.440205-.7512851-1.935524l-.13-.07c-.0425154-.054091-.0931085-.101312-.15-.14-1.169788-.788191-2.7306706-.654996-3.75.32-.8833528.984191-.8833528 2.475809 0 3.46 1.0769426.84959 2.5781497.910122 3.72.15z"/><path d="m97.3 237.63v-.63c.0191203-.384047-.1439375-.754633-.44-1-.3409345-.522069-.9265813-.831895-1.55-.82-.563485.045435-1.0848534.316135-1.4462028.750883-.3613495.434749-.5321574.996824-.4737972 1.559117.0137775.607391.417732 1.136571 1 1.31.4930051.190581 1.0247657.259195 1.55.2.7504544-.010858 1.3546399-.619486 1.36-1.37z"/><path d="m91.05 251.38c-.0678935-.040555-.1380031-.077279-.21-.11-.7172282-.359245-1.534983-.464989-2.32-.3-.4988401.111591-.8884093.50116-1 1-.41 1.86 1.23 3.79 3.15 2.82.6793189-.428834 1.0645244-1.199245 1-2 .0992533-.552344-.1458624-1.109785-.62-1.41z"/><path d="m100.73 249.16c.421567.640215 1.082489 1.084405 1.834509 1.232929s1.532186-.011051 2.165491-.442929c.042242-.034143.082319-.070881.12-.11 0 0 .11-.05.16-.11s.07-.11.11-.15c.793648-.906604.887619-2.230374.23-3.24-.864743-1.176638-2.477014-1.512887-3.74-.78-.607058.348966-1.044681.93136-1.210949 1.611546-.166267.680185-.046666 1.39879.330949 1.988454z"/><path d="m104.06 241.17c1.102749.220062 2.19395-.426895 2.53-1.5.256725-1.047322-.207458-2.13856-1.14-2.68-.446315-.327517-1.061864-.294018-1.47.08-.076034.052679-.143493.116765-.2.19-.833056.146645-1.437919.874173-1.43 1.72-.025334 1.044428.690599 1.961324 1.71 2.19z"/><path d="m108.19 229.34c.258389.854716.874987 1.55523 1.69 1.92.761473.150525 1.548429.109287 2.29-.12.752162-.217509 1.374726-.747502 1.709498-1.455305s.349522-1.525276.040502-2.244695c-.542884-1.613461-2.221077-2.552037-3.88-2.17-.069809.030638-.136742.067451-.2.11-.039871-.004543-.080129-.004543-.12 0-1.467853.716092-2.13507 2.443006-1.53 3.96z"/><path d="m119.41 247.78c.446514-.62872.551448-1.438211.28-2.16.011188-.602529-.14085-1.19686-.44-1.72-.69-1.15-2.29-1-3.35-.5-.598442.192008-1.081538.638506-1.32 1.22-.163174.606807-.187103 1.242645-.07 1.86.178398 1.078972.972822 1.953109 2.029874 2.233551 1.057052.280443 2.180323-.084918 2.870126-.933551z"/><path d="m112.23 256.74c-.365423-1.202892-1.482965-2.018616-2.74-2-.686967-.050325-1.341307.300214-1.68.9l-.14.07c-.20528.115173-.374827.28472-.49.49-.189006.373397-.262134.794752-.21 1.21.110309 1.403879 1.252926 2.503541 2.66 2.56.738027.010833 1.446388-.290143 1.950893-.828916s.758348-1.265358.699107-2.001084c0-.05 0-.09 0-.14-.002647-.088784-.019529-.176567-.05-.26z"/><path d="m125.56 258.3c1.74.16 4.32-1.23 4.18-3.26-.14813-1.371095-.969257-2.578415-2.19-3.22-.888552-.995379-2.28307-1.36856-3.55-.95-2.002632.365494-3.339531 2.272803-3 4.28.44 1.97 2.8 2.99 4.56 3.15z"/><path d="m49.07 101.05c-.071347-.897139-.3708256-1.7611517-.87-2.51 0-.1-.06-.2-.09-.28-.3946538-.818489-1.1571323-1.3987155-2.0512058-1.5609146-.8940734-.1621992-1.8117788.1132151-2.4687942.7409146-1.3999192 1.3255396-1.5395209 3.506816-.32 5 1.38 1.56 3.71.68 5.13-.25.4112867-.232681.6668189-.667467.67-1.14z"/><path d="m81.33 116c-1.76-.54-3.91-.07-4.63 1.73-1.47 3.71 3.1 5.94 6.13 4.93.7840295-.209266 1.4498422-.727221 1.845529-1.435689.3956869-.708467.4874925-1.547011.254471-2.324311-.5738267-1.556265-1.9572426-2.670683-3.6-2.9z"/><path d="m34.06 82.21c-.05 0-.08 0-.13 0-.0765609-.005696-.1534391-.005696-.23 0-2.1514047-.1220772-4.0301607 1.4420964-4.3 3.58-.0882624 1.0372986.2429384 2.0666928.9195137 2.8579099.6765752.7912172 1.642063 1.2782282 2.6804863 1.3520901 2.182706.1827844 4.2225058-1.1022894 5-3.15.67-2.34-1.94-4.34-3.94-4.64z"/><path d="m20.54 101.56c.4726856-.74509.6042856-1.6567158.3616255-2.5050708-.2426601-.8483551-.8364288-1.5524996-1.6316255-1.9349292-1.51-.69-3.27-.88-4.59.31-1.67 1.52-.51 4 1 5.08.7703265.518917 1.7153241.710365 2.6268769.532181.9115529-.178184 1.7149007-.711387 2.2331231-1.482181z"/><path d="m20.52 68.1c.7511073 0 1.36-.6088927 1.36-1.36s-.6088927-1.36-1.36-1.36-1.36.6088927-1.36 1.36.6088927 1.36 1.36 1.36z"/><path d="m15.09 85.77h.17c.7511073 0 1.36-.6088927 1.36-1.36s-.6088927-1.36-1.36-1.36h-.17c-.7511073 0-1.36.6088927-1.36 1.36s.6088927 1.36 1.36 1.36z"/><path d="m27.83 81.35v-.17c0-.7511073-.6088927-1.36-1.36-1.36s-1.36.6088927-1.36 1.36v.17c0 .7511073.6088927 1.36 1.36 1.36s1.36-.6088927 1.36-1.36z"/><path d="m21.37 89.5c-.7511073 0-1.36.6088927-1.36 1.36s.6088927 1.36 1.36 1.36 1.36-.6088927 1.36-1.36-.6088927-1.36-1.36-1.36z"/><path d="m31.05 98.68c.7511073 0 1.36-.6088927 1.36-1.36s-.6088927-1.36-1.36-1.36-1.36.6088927-1.36 1.36.6088927 1.36 1.36 1.36z"/><path d="m20.35 109.21h-.17c-.7511073 0-1.36.608893-1.36 1.36s.6088927 1.36 1.36 1.36h.17c.7511073 0 1.36-.608893 1.36-1.36s-.6088927-1.36-1.36-1.36z"/><path d="m12.71 113.63h-.17c-.7033496.060479-1.2434882.649055-1.2434882 1.355s.5401386 1.294521 1.2434882 1.355h.17c.7033496-.060479 1.2434882-.649055 1.2434882-1.355s-.5401386-1.294521-1.2434882-1.355z"/><path d="m11.18 128.57c-.7511073 0-1.36.608893-1.36 1.36s.6088927 1.36 1.36 1.36 1.36-.608893 1.36-1.36-.6088927-1.36-1.36-1.36z"/><path d="m27.3 122c-.7995946.065787-1.434213.700405-1.5 1.5.0159005.744422.6155784 1.344099 1.36 1.36.4045762.023514.7999226-.126955 1.086484-.413516.2865613-.286561.4370302-.681908.413516-1.086484-.0159005-.744422-.6155784-1.344099-1.36-1.36z"/><path d="m39.21 119.06c.7511073 0 1.36-.608893 1.36-1.36s-.6088927-1.36-1.36-1.36h-.34c-.7511073 0-1.36.608893-1.36 1.36s.6088927 1.36 1.36 1.36z"/><path d="m41.23 127.91c-.3823007.018544-.7417632.187491-1 .47-.2827366.259135-.4546623.617314-.48 1 .0209213.742269.6177313 1.339079 1.36 1.36.4037054.020297.7971432-.13121 1.0829666-.417033.2858234-.285824.4373301-.679262.4170334-1.082967-.0319704-.740293-.6390313-1.325359-1.38-1.33z"/><path d="m39.21 142.33c-.7511073 0-1.36.608893-1.36 1.36s.6088927 1.36 1.36 1.36 1.36-.608893 1.36-1.36-.6088927-1.36-1.36-1.36z"/><path d="m51.26 153.56c-.0159005-.744422-.6155784-1.344099-1.36-1.36-.8034926.06113-1.443533.696931-1.51 1.5.0159005.744422.6155784 1.344099 1.36 1.36.4045369.020062.7988184-.131172 1.0861707-.416622.2873522-.285449.4412029-.678717.4238293-1.083378z"/><path d="m56.36 109.55v-.17c-.0604786-.70335-.649055-1.243488-1.355-1.243488s-1.2945214.540138-1.355 1.243488v.17c.0604786.70335.649055 1.243488 1.355 1.243488s1.2945214-.540138 1.355-1.243488z"/><path d="m49.41 86.47.18-.34c.84-1.54-1.51-2.91-2.35-1.37l-.18.34c-.83 1.54 1.51 2.9 2.35 1.37z"/><path d="m72.16 70c.7511073 0 1.36-.6088927 1.36-1.36s-.6088927-1.36-1.36-1.36-1.36.6088927-1.36 1.36.6088927 1.36 1.36 1.36z"/><path d="m70.8 94.09h.2c.7511072 0 1.3599998-.6088928 1.3599998-1.36s-.6088926-1.36-1.3599998-1.36h-.2c-.7511073 0-1.36.6088927-1.36 1.36s.6088927 1.36 1.36 1.36z"/><path d="m82.12 92.68c-.92.71-.7 2.52.74 2.43.9388841 0 1.7-.7611159 1.7-1.7.09-1.41-1.73-1.67-2.44-.73z"/><path d="m68.09 105.64h.16c.7511073 0 1.36-.608893 1.36-1.36s-.6088927-1.36-1.36-1.36h-.16c-.7511073 0-1.36.608893-1.36 1.36s.6088927 1.36 1.36 1.36z"/><path d="m82.69 113.41.33-.17c1.55-.82.18-3.17-1.37-2.35l-.34.18c-1.55.81-.17 3.16 1.38 2.34z"/><path d="m69.27 125.69c-.6460873.024265-1.1872648.49692-1.2982479 1.133866-.110983.636946.2384425 1.264781.8382479 1.506134.2650169.265009.6252247.412694 1 .41.7466116-.010744 1.3492557-.613388 1.360001-1.36.0005153-.48602-.207016-.94902-.5701666-1.272033-.3631507-.323013-.8471893-.475146-1.3298344-.417967z"/><path d="m76.24 141.82h.17c.7033496-.060479 1.2434882-.649055 1.2434882-1.355s-.5401386-1.294521-1.2434882-1.355h-.17c-.7033496.060479-1.2434882.649055-1.2434882 1.355s.5401386 1.294521 1.2434882 1.355z"/><path d="m87.58 149.45c.2560948-.428196.290409-.953489.0921957-1.411362s-.6047166-.792336-1.0921957-.898638c-.7361114-.177111-1.4785781.26748-1.67 1-.0972854.406296-.0093841.834815.24 1.17.1844996.493729.6431536.831923 1.1693566.86224.5262029.030316 1.0206621-.252967 1.2606434-.72224z"/><path d="m87.11 164.59c-.7033496.060479-1.2434882.649055-1.2434882 1.355s.5401386 1.294521 1.2434882 1.355h.17c.7033496-.060479 1.2434882-.649055 1.2434882-1.355s-.5401386-1.294521-1.2434882-1.355z"/><path d="m69.22 175.11.18-.34c.82-1.55-1.53-2.92-2.35-1.37l-.17.34c-.82 1.54 1.53 2.92 2.34 1.37z"/><path d="m59.59 144.88v-.17c0-.751107-.6088927-1.36-1.36-1.36s-1.36.608893-1.36 1.36v.17c0 .751107.6088927 1.36 1.36 1.36s1.36-.608893 1.36-1.36z"/><path d="m49.23 176.82c.7511072 0 1.3599998-.608893 1.3599998-1.36s-.6088926-1.36-1.3599998-1.36c-.7511073 0-1.36.608893-1.36 1.36s.6088927 1.36 1.36 1.36z"/><path d="m62.82 184.46h.18c.7511073 0 1.36-.608893 1.36-1.36s-.6088927-1.360009-1.36-1.360009h-.17c-.7511073-.002752-1.3622386.603902-1.3650094 1.355009-.002752.751107.6039021 1.362239 1.3550094 1.365z"/><path d="m48.38 195.33v.17c0 .751107.6088927 1.36 1.36 1.36s1.36-.608893 1.36-1.36v-.17c0-.751107-.6088927-1.36-1.36-1.36s-1.36.608893-1.36 1.36z"/><path d="m39.7 200.08c.7444216-.015901 1.3440995-.615578 1.36-1.36.0235142-.404576-.1269547-.799923-.413516-1.086484-.2865614-.286561-.6819078-.43703-1.086484-.413516-.7444216.015901-1.3440995.615578-1.36 1.36.065787.799595.7004054 1.434213 1.5 1.5z"/><path d="m29.24 206-.36-.13c-.4762864-.154736-.999075-.0352-1.3607887.311145-.3617138.346346-.5038202.863456-.3698951 1.346007.1339251.482552.5222102.852459 1.0106838.962848l.35.13c.4702215.137216.9779043.010966 1.3290834-.330516s.4915925-.845431.367594-1.31931c-.1239986-.473878-.4932497-.844465-.9666774-.970174z"/><path d="m53.14 206.54c-.7511073 0-1.36.608893-1.36 1.36s.6088927 1.36 1.36 1.36h.68c.7511073 0 1.36-.608893 1.36-1.36s-.6088927-1.36-1.36-1.36z"/><path d="m44.47 217.93v-.17c-.0604786-.70335-.649055-1.243488-1.355-1.243488s-1.2945214.540138-1.355 1.243488v.17c.0604786.70335.649055 1.243488 1.355 1.243488s1.2945214-.540138 1.355-1.243488z"/><path d="m63.5 211.13c-.7511073 0-1.36.608893-1.36 1.36s.6088927 1.36 1.36 1.36 1.36-.608893 1.36-1.36-.6088927-1.36-1.36-1.36z"/><path d="m72.67 191.26c-.7033496.060479-1.2434882.649055-1.2434882 1.355s.5401386 1.294521 1.2434882 1.355c.7033496-.060479 1.2434882-.649055 1.2434882-1.355s-.5401386-1.294521-1.2434882-1.355z"/><path d="m87.79 183.44c-.7511073 0-1.36.608893-1.36 1.36s.6088927 1.36 1.36 1.36h.21c.7511073 0 1.36-.608893 1.36-1.36s-.6088927-1.36-1.36-1.36z"/><path d="m96.79 193.12h.34c.7033496-.060479 1.2434882-.649055 1.2434882-1.355s-.5401386-1.294521-1.2434882-1.355h-.34c-.7033496.060479-1.2434882.649055-1.2434882 1.355s.5401386 1.294521 1.2434882 1.355z"/><path d="m88.13 204h-.13c-.7033496.060479-1.2434882.649055-1.2434882 1.355s.5401386 1.294521 1.2434882 1.355h.17c.7031333-.070022 1.2355105-.666843 1.225082-1.373378-.0104286-.706534-.5601884-1.287383-1.265082-1.336622z"/><path d="m78.51 213.79.17.17c.3501203.342975.8566197.47311 1.3287049.341384.4720852-.131725.8380351-.505299.96-.98.1219649-.4747-.0185846-.978409-.3687049-1.321384l-.17-.17c-.5412391-.530193-1.4098066-.521239-1.9399999.02s-.521239 1.409807.0199999 1.94z"/><path d="m107.76 217.85.8-.74c.415012-.441503.490697-1.103192.1861-1.627006-.304596-.523813-.917114-.785313-1.5061-.642994l-1 .26c-.363837.092178-.668882.339402-.834422.676256-.165539.336854-.17489.72939-.025578 1.073744.009182.559205.348011 1.060124.863626 1.276769.515616.216645 1.11054.108059 1.516374-.276769z"/><path d="m94.19 217.7.34-.34c.3825959-.397495.489428-.985701.2710458-1.492347-.2183822-.506647-.7193624-.832865-1.2710458-.827653h-.51c-.5960925.11088-1.0642637.574124-1.1814432 1.169011-.1171794.594886.1403369 1.201075.6498498 1.529735.5095129.328659 1.1679535.313306 1.6615934-.038746z"/><path d="m87.11 233.55h-.17c-.7511073 0-1.36.608893-1.36 1.36s.6088927 1.36 1.36 1.36h.17c.7511073 0 1.36-.608893 1.36-1.36s-.6088927-1.36-1.36-1.36z"/><path d="m88.3 244.42c-.7511073 0-1.36.608893-1.36 1.36s.6088927 1.36 1.36 1.36 1.36-.608893 1.36-1.36-.6088927-1.36-1.36-1.36z"/><path d="m98.31 245.1c.0441993-.549325-.1615122-1.089318-.56-1.47-1-1.18-2.68.27-2.16 1.52.0324874.748866.6607703 1.33259 1.41 1.31.7248349-.041642 1.2955255-.634114 1.31-1.36z"/><path d="m97.81 256.32c-.7033496.060479-1.2434882.649055-1.2434882 1.355s.5401386 1.294521 1.2434882 1.355c.7033496-.060479 1.2434882-.649055 1.2434882-1.355s-.5401386-1.294521-1.2434882-1.355z"/><path d="m116.16 237.29c.751107 0 1.36-.608893 1.36-1.36s-.608893-1.36-1.36-1.36-1.36.608893-1.36 1.36.608893 1.36 1.36 1.36z"/><path d="m88.47 258.18h-.17c-.7511073 0-1.36.608893-1.36 1.36s.6088927 1.36 1.36 1.36h.17c.7511073 0 1.36-.608893 1.36-1.36s-.6088927-1.36-1.36-1.36z"/><path d="m79.3 249h-.3c-.7511073 0-1.36.608893-1.36 1.36s.6088927 1.36 1.36 1.36h.34c.7511072-.011046 1.3510457-.628893 1.34-1.38s-.6288928-1.351046-1.38-1.34z"/><path d="m65.86 244.4c-.2827366.259135-.4546623.617314-.48 1 .0209213.742269.6177313 1.339079 1.36 1.36.4037054.020297.7971432-.13121 1.0829666-.417033.2858234-.285824.4373301-.679262.4170334-1.082967-.0107443-.746612-.6133884-1.349256-1.36-1.36-.3938517.021006-.7621522.201546-1.02.5z"/><path d="m78.45 229.48c.7511073 0 1.36-.608893 1.36-1.36s-.6088927-1.36-1.36-1.36h-.17c-.7511073 0-1.36.608893-1.36 1.36s.6088927 1.36 1.36 1.36z"/><path d="m65.71 226.25c.7511073 0 1.36-.608893 1.36-1.36s-.6088927-1.36-1.36-1.36-1.36.608893-1.36 1.36.6088927 1.36 1.36 1.36z"/><path d="m54.84 228.8h-.17c-.7033496.060479-1.2434882.649055-1.2434882 1.355s.5401386 1.294521 1.2434882 1.355h.17c.7033496-.060479 1.2434882-.649055 1.2434882-1.355s-.5401386-1.294521-1.2434882-1.355z"/><path d="m43.45 225.57h-.17c-.7511073 0-1.36.608893-1.36 1.36s.6088927 1.36 1.36 1.36h.17c.7511073 0 1.36-.608893 1.36-1.36s-.6088927-1.36-1.36-1.36z"/><path d="m57.38 242.05c-.7033496.060479-1.2434882.649055-1.2434882 1.355s.5401386 1.294521 1.2434882 1.355h.34c.7033496-.060479 1.2434882-.649055 1.2434882-1.355s-.5401386-1.294521-1.2434882-1.355z"/><path d="m49.25 245.94-.34-.18c-1.54-.81-2.92 1.53-1.37 2.35l.34.18c1.55.82 2.92-1.53 1.37-2.35z"/><path d="m58.4 263.79v-.34c0-.751107-.6088927-1.36-1.36-1.36s-1.36.608893-1.36 1.36v.34c0 .751107.6088927 1.36 1.36 1.36s1.36-.608893 1.36-1.36z"/><path d="m68.76 258.35h-.17c-.7511073 0-1.36.608893-1.36 1.36s.6088927 1.36 1.36 1.36h.17c.7511073 0 1.36-.608893 1.36-1.36s-.6088927-1.36-1.36-1.36z"/><path d="m73.8 268.1c-.5390537-.429658-1.3143144-.388057-1.804294.096819-.4899797.484875-.5396957 1.259658-.115706 1.803181l.34.34c.5329548.530193 1.3948066.527955 1.9249999-.005s.5279548-1.394807-.0049999-1.925z"/><path d="m63.44 263.68c-.7193491.204129-1.1421433.947357-.95 1.67l.12.36c.2245769.691259.9529892 1.083764 1.6538318.891166.7008427-.192598 1.126381-.902219.9661682-1.611166l-.12-.36c-.2086287-.715808-.9481018-1.136466-1.67-.95z"/><path d="m58.4 280.1c-.7511073 0-1.36.608893-1.36 1.36s.6088927 1.36 1.36 1.36 1.36-.608893 1.36-1.36-.6088927-1.36-1.36-1.36z"/><path d="m70.45 162.56c-.8033609.057599-1.4424012.696639-1.5 1.5.0159005.744422.6155784 1.344099 1.36 1.36.4045762.023514.7999226-.126955 1.086484-.413516.2865613-.286561.4370302-.681908.413516-1.086484-.0159005-.744422-.6155784-1.344099-1.36-1.36z"/><path d="m77.26 171.72c.7511073 0 1.36-.608893 1.36-1.36s-.6088927-1.36-1.36-1.36h-.17c-.7511073 0-1.36.608893-1.36 1.36s.6088927 1.36 1.36 1.36z"/><path d="m73.86 151c.7511073 0 1.36-.608893 1.36-1.36s-.6088927-1.36-1.36-1.36-1.36.608893-1.36 1.36.6088927 1.36 1.36 1.36z"/><path d="m71.48 78.8c.7511072 0 1.3599999-.6088928 1.3599999-1.36s-.6088927-1.36-1.3599999-1.36-1.3599999.6088928-1.3599999 1.36.6088927 1.36 1.3599999 1.36z"/><path d="m52.1 78.11c.74065-.0156868 1.3388477-.6094859 1.36-1.35.0587293-.8332428-.5036427-1.5830721-1.32-1.76-.5865672-.1243261-1.1867476.1414901-1.4888678.6594104-.3021202.5179204-.2380787 1.1711994.1588678 1.6205896.2418862.4953038.7389881.8151446 1.29.83z"/><path d="m38 67.42c.7511073 0 1.36-.6088927 1.36-1.36s-.6088927-1.36-1.36-1.36-1.36.6088927-1.36 1.36.6088927 1.36 1.36 1.36z"/><path d="m39.55 78.46c.7033496-.0604786 1.2434882-.649055 1.2434882-1.355s-.5401386-1.2945214-1.2434882-1.355c-.7033496.0604786-1.2434882.649055-1.2434882 1.355s.5401386 1.2945214 1.2434882 1.355z"/></g></svg>