<svg height="320" viewBox="0 0 320 320" width="320" xmlns="http://www.w3.org/2000/svg"><path d="m149.74 14.84c-.059887-.1987304-.166139-.3803864-.31-.53.006568-.3432386-.131783-.6733602-.381104-.9093584-.24932-.2359981-.586535-.35603-.928896-.3306416l-12.48.55c-5.11.21-7.79-3.5-11.9-5.82-6-3.43-14.89-2.68-21.55-3.13-4.6486216-.16357674-9.2687891-.79679766-13.79-1.89-3.66-1-7.07-2.25-10.86-2.7-4.84-.57-5.68 1.92-5.8 6.13v.87 1.89c-.07 3-.08 6.1-.11 9.14v.51c0 5.16-.07 10.34-.34 15.5-.52 9.5-2.93 18.61-4.31 28-1.21 8.24-3.16 16.34-4.16 24.6-1.08 9.11-.61 18.37 0 27.52-.3094197 17.419279-2.3901314 34.761894-6.21 51.76-3.79 17-12.15 30.94-21.92 45-.26.09-12.79 21.94-19.73 32.09-5.82 8.52-11.96 26.46-13.52 32.25-.3 1.14-.41 1.82-.31 1.84-.76958232 8.492286 1.34407281 16.996225 6 24.14 5.27 8 18.4 12.2 27.38 13.07 10.69 1.05 23.86-.46 32.26-7.59.39-.34.78-.68 1.14-1.05 3.58-3.43 6.25-8 8.78-12.11 1.93-3.17 2.64-6.78 3.74-10.22.1583318-.475404.3626313-.93424.61-1.37.9277568-1.748808 1.7168458-3.567725 2.36-5.44 3.2866667-8.666667 6.8666667-17.196667 10.74-25.59 4-8.69 7.9-18.48 15-25.12.18-.18 5.52-4.68 11.21-9.18 3.35-2.65 6.81-5.3 9.42-7.06 7.68-5.22 13.05-10.18 16.19-19.12 3.49-10-1.42-18.47-5.63-27.26-.58-1.23-1.22-2.49-1.9-3.79-5.66-10.84-13.69-24-11.09-35.87 2.87-8.57 6.93-17.53 8-26.55 1.19-10.27.51-20.24 3.3-30.32 2.34-8.44 4-17 5.5-25.66.53-3 1.2-5.91 2-8.8 0 0 0 0 0-.06.81-2.85 1.73-5.65 2.78-8.44.12-.31.23-.62.34-.92.24-.69.46-1.35.62-2 .575072-1.9765016.526181-4.0823168-.14-6.03zm-90.52 151.86c3.14-15.61 5.56-31.39 6.1-47.3.25-.22-.47-19.57-.36-24.8.19-9.29 2.46-18.16 3.92-27.27 2.12-12.82 4.31-25.24 5.12-38.09 1.5605115-.373142 3.1559718-.5809541 4.76-.62-3.38 19.8066667-6.21 39.6966667-8.49 59.67-2.46 21.62-4.33 43.26-7.59 64.79-3.15 20.74-7.06 41.34-11.06 61.93-3.86 19.9-7.17 40.27-15.75 58.79-1.44-.62-2.8933333-1.196667-4.36-1.73 7.66-14.26 10.23-30.69 13.63-46.36 3.24-15.02 6.4933333-30.036667 9.76-45.05 1.8591644-4.51313 3.3050894-9.18561 4.32-13.96zm45.34-131.53c.5.09 1 .18 1.52.24 1.373012.1848346 2.755045.2949967 4.14.33-5.22 20.45-8.22 41.54-11.33 62.39s-5.89 41.8-9.07 62.67c-6.22 41.53-13.86 83-27.74 122.77-.33.91-.66 1.84-1 2.75-1-.44-2-.89-3.05-1.35 5.93-19.81 11.36-39.64 15-60 3.71-20.65 6.09-41.52 8.55-62.34 2.5-21.23 5.19-42.43 9.12-63.43 4-21.27 9-42.32 14.06-63.33.085461-.2522188.005809-.5310013-.2-.7zm6.17 4.13c.28-1.18.58-2.36.88-3.53h2.88c-5.48 19.78-6.89 40.37-9.12 60.7-2.466667 22.56-5.346667 45.063333-8.64 67.51-3.1533333 21.613333-6.6933333 43.173333-10.62 64.68-2 10.87-4 21.75-6.25 32.56-2.13 10.08-6.67 19.39-8.9 29.4-2.7699619-1.479383-5.6482315-2.746357-8.61-3.79 14.12-39.41 21.92-80.62 28.22-121.91 3.18-20.87 6-41.79 9.07-62.67 3.11-21.04 6.18-42.25 11.09-62.95zm-7.25-3.82c-5 20.59-9.85 41.22-13.82 62s-6.66 41.61-9.09 62.52c-2.51 21.15-4.92 42.32-8.59 63.3-3.61 20.75-9.14 40.93-15.18 61.1l-2.34-1.1c6.28-19.94 9.49-40.65 13.08-61.19 3.69-21.14 7.51-42.24 11-63.4 3.48-20.89 4.92-42 8.32-62.93s7.85-41.4 12.3-62c1.556774.4920894 3.139099.8993546 4.74 1.22-.213149.077244-.371734.2584834-.42.48zm-17.9 59.93c-3.45 20.9-4.89 42.05-8.31 62.93-3.48 21.18-7.35 42.28-11 63.4-3.57 20.46-6.78 41.09-13 61-1.17-.57-2.34-1.13-3.49-1.72 6.37-19.52 7-40.19 10.19-60.33 3.4-21.25 9.73-41.89 14.48-62.86 4.61-20.36 6.43-40.93 8-61.73 1.54-21.14 3.36-42.41 9.8-62.73.19-.59.38-1.18.59-1.76 1.7.61 3.41 1.23 5.13 1.8-4.53 20.59-8.97 41.2-12.39 62zm-4.21-4.41c-1.63 21.47-3.14 42.77-7.72 63.87s-10.87 41.67-14.65 62.87c-3.61 20.56-3.94 41.68-10.21 61.73-.1.3-.21.58-.3.88-1.15-.6-2.29-1.2-3.41-1.83 4.6333333-20.48 8.7766667-41.063333 12.43-61.75 1.83-10.5 3.45-21 5.25-31.51 1.84-10.81 4.33-21.48 6.76-32.18 4.53-19.93 6.69-40 8.25-60.35 1.66-21.21 3.23-42.52 8.43-63.23 1.78.45 3.53 1 5.27 1.62-6.47 19.35-8.55 39.67-10.1 59.88zm-4.63-2.17c-1.63 21.53-3.74 42.76-8.5 63.85-2.31 10.27-4.7 20.49-6.53 30.86s-3.43 21-5.25 31.51c-3.64 21.04-7.8366667 41.963333-12.59 62.77l-.66-.35c-1.9894185-1.139677-4.0353821-2.177678-6.13-3.11 8.23-17.8 11.61-37.24 15.33-56.36 4.09-21 8.09-42.07 11.36-63.23 3.23-20.77 5.13-41.62 7.4-62.5 2.32-21.3333333 5.32-42.55 9-63.65 1.5999831.061277 3.1921175.2552766 4.76.58-4.93 19.54-6.67 39.64-8.19 59.67zm-24.63 98.27c-2.6666667 12.313333-5.3333333 24.626667-8 36.94-3.48 16-6 33-13.92 47.57-1.14-.386667-2.29-.756667-3.45-1.11 8.18-22.33 8.86-46.76 17.85-68.81 2.71-4.82 5.28-9.69 7.52-14.59zm-11.36 21.19c-6.62 20.16-8 41.82-15.31 61.84-.9-.26-1.8-.46-2.69-.68 2.4909098-16.88733 6.1666482-33.578524 11-49.95 2.31-3.58 4.68-7.33 7-11.21zm-17.47 28.56c.15-.5.83-2.13 1.41-3.63 2-2.95 4.2-6.24 6.52-9.78-4.2176544 15.002398-7.4841486 30.256058-9.78 45.67-2.79-.64-5.6-1.14-8.43-1.53 2.5314399-5.422559 4.7158389-11.000459 6.54-16.7 1-3.14 1.82-6.32 2.58-9.5.37-1.53.75-3.02 1.16-4.53zm-6 7.6c1-1.62 2.45-3.88 4.27-6.61-.57 2.22-1.06 4.45-1.63 6.65-2.0494999 7.889079-4.848915 15.56403-8.36 22.92-1.75-.21-3.52-.39-5.3-.5 3.04085467-7.785989 6.7374719-15.299656 11.05-22.46zm53.86 52.87c-.48.72-1 1.39-1.44 2-10.51-7.76-20.17-12.83-32.81-16.1-11.18-2.87-20.54-10.13-32.29-11.12.1-.41.17-.81.26-1.21 0 0 0-.08 0-.12.13-.41.28-.8.43-1.21 12.7934142.620714 25.2811358 4.12466 36.53 10.25 4.25 2.29 8.22 5 12.73 6.82s14.83 4.27 17.86 8.75c-.41.62-.81 1.29-1.24 1.94zm9.26-20.5c-1.5991512 2.667845-2.7288631 5.590214-3.34 8.64-.698872 2.628726-1.7696886 5.144135-3.18 7.47-.5324969-.556427-1.1186787-1.058868-1.75-1.5 2.1-9.76 6.52-18.84 8.74-28.6 2.44-10.75 4.3-21.66 6.29-32.5 4-21.94 7.6133333-43.94 10.84-66 3.126667-21.24 5.883333-42.533333 8.27-63.88 2.43-21.65 3.72-43.65 9.6-64.73l3.67-.1c-2.55 12.48-5 25-6.52 37.63-1.54 13.35-.94 26.77-2.12 40.15-1.21 13.6-3.57 27.08-4.78 40.68-1 11.15-1.2 22.37-1.49 33.57-5.0760307 9.682561-8.6598197 20.07656-10.63 30.83-2.17 11.87-3.1 24-4.39 36.05-3.2933333 7.34-6.3533333 14.77-9.18 22.29zm43.42-120.56c-1.94 2.08-3.79 4.22-5.51 6.42-.06-9.81-.06-19.62.46-29.42.57-10.94 2.23-21.73 3.86-32.54 3.18-21.0133333 6.353333-42.0133333 9.52-63 1.14496.4531791 2.263408.97067 3.35 1.55-.041873.071474-.072244.149089-.09.23-1.75 9.11-3.83 18.23-5 27.41-.68 5.22-.87 10.48-1.82 15.64-.9 4.94-2.49 9.73-3.44 14.67-1.91 9.82-3.72 19.76-4 29.79-.35 9.78 1.19 19.58 2.7 29.25zm-2.7-54.56c-1.52 10.06-3 20.07-3.64 30.23-.68 10.81-.6 21.68-.53 32.53-1.763418 2.34433-3.37985 4.795695-4.84 7.34 1.24-9.56 1.1-19.22 1.51-28.84.5-11.86 2.27-23.71 3.68-35.5 2.873333-23.8 6.05-47.57 9.53-71.31 1.356502.2592668 2.693123.6134713 4 1.06-3.22 21.5-6.446667 42.9966667-9.68 64.49zm-4.85 3.09c-1.39 11.4-3 22.81-3.79 34.27-.89 12.07-.18 24.19-2.26 36.16v.06c-1.347514 2.671347-2.503751 5.434956-3.46 8.27l-.56 1.76h-.13c.25-10 .51-20 1.29-29.94 1-13.18 3.27-26.23 4.64-39.38 1.34-12.91.82-25.89 2-38.81 1.24-14 4.14-27.83 6.95-41.59h.73c1.282409.0280069 2.561701.1382332 3.83.33-3.34 22.92-6.41 45.8766667-9.21 68.87zm-24.46 144.86c-.14.31-.29.64-.42.95 1.07-10.18 2.06-20.39 3.69-30.49 1.6820745-10.209514 4.8842847-20.1094 9.5-29.37v1.84c-.627457 3.693801-.728461 7.457865-.3 11.18v1.39c-.45 1.44-1 2.85-1.48 4.29-1.06309 3.214572-1.944483 6.486408-2.64 9.8-1.2097798 5.795526-1.8793151 11.690784-2 17.61-2.3588769 4.142163-4.4790031 8.415803-6.35 12.8zm12.56-22.11c-.009924.062945-.009924.127055 0 .19-1.715857 2.13753-3.308441 4.371155-4.77 6.69.2841026-5.823249 1.087288-11.60953 2.4-17.29.6-2.55 1.58-5.09 2.46-7.66.46 6.06 1.35 12.04-.09 18.07zm1.75-1.93c.76-5 .27-9.92-.19-14.93 1.29014 3.391455 3.218244 6.504256 5.68 9.17-1.931075 1.821059-3.763676 3.743788-5.49 5.76zm27.72-69.93c-4.373333 4.506667-8.673333 9.096667-12.9 13.77-3.69 4.09-7.4 8.14-9.39 13.37-2.06 5.42-1 11.66 0 17.19s2 10.86 5 15.53c-1 .82-2 1.65-3 2.48-9.45-10.26-7.63-23.5-3.48-35.87s12.69-21.48 21.85-30.22c.67 1.25 1.3 2.5 1.92 3.75zm6.85-111.31c-1.68 8.79-3.6 17.39-5.86 26.06-2.05 7.89-1.33 16.22-1.94 24.26s-3.71 15.83-6.48 23.46c-.054003.057585-.100997.121363-.14.19-.585564 1.340336-1.05398 2.728854-1.4 4.15-.07.2-.13.4-.2.6-.067478.202741-.087994.418166-.06.63-1.14 6 .06 12.12 2.6 18 1.1 2.57 2.28 5.1 3.51 7.61-2 1.88-3.86 3.75-5.68 5.65-1.45-9.29-2.72-18.61-2.56-28 .18-10.31 2.28-20.59 4.24-30.66.88-4.53 2.26-8.93 3.21-13.43s1.08-9 1.56-13.55c1-9.88 3.37-19.68 5.25-29.42 1.348095.7990285 2.641005 1.6876949 3.87 2.66.116665.0998817.248261.1808641.39.24-.09.5-.2 1.03-.31 1.55zm.87-4.43c-9.19-6.86-18.74-7.1-30.07-7-13.31.13-23.95-9.3-37.36-6.57 0-.73.05-1.48.08-2.21.0516292-.0156583.1018145-.0357324.15-.06 5.78-2.42 11.85-1.94 17.88-.51.29.08.57.16.87.26 4 1.26 8.14 4.66 12.51 4.78 12.4.33 26.28-1.86 36.52 6.82.100492.083983.215809.1484248.34.19-.32 1.44-.62 2.87-.92 4.3z" fill="#262626" transform="translate(85 2)"/></svg>