<svg height="320" viewBox="0 0 320 320" width="320" xmlns="http://www.w3.org/2000/svg"><g fill="#262626" transform="translate(34)"><path d="m33.4851675 100.726316 7.1961722-12.5244021c.1837321-.3062201.3674641-.5971292.5818182-.9033493.9799043-1.3779904 2.0822966-2.8325359 1.3933014-4.3177034-.0405053-.2189692-.1604618-.4152617-.3368421-.5511961l-2.7253588-2.1894737c-3.8736842-3.169378-7.6555024-6.369378-11.3760766-9.676555-.2279676-.2277547-.5497057-.3351534-.8687712-.2900026-.3190656.0451508-.598372.2376029-.7541953.5196676-1.8832536 3.230622-3.6287081 6.415311-5.4813397 9.645933-.4746412.8574163-1.2401914 1.9291867-1.8679426 3.062201-.6107719.9147518-.9843533 1.9670936-1.0870813 3.062201 0 1.2095693 1.4392344 2.4497607 2.5722488 3.429665.4133971.3368421.7808612.6736842 1.0258373.9186603 3.3837321 3.3531101 6.7215311 6.7215311 10.0746411 10.0899523.2400641.224196.5707525.323974.8947564.269973.3240039-.054.6044567-.255635.7588322-.545571z"/><path d="m89.8602871 68.4660287c-2.4599681-1.1432217-4.8535885-2.4140351-7.1808613-3.8124402-1.8220095-1.0870813-3.5521531-2.8631579-5.6497607-3.35311 0 0 0 0-.0918661 0-.2402052-.0367607-.4859088.0006289-.7043062.107177-2.3272727 1.3473684-2.9244019 4.3330144-3.9502392 6.6755981-.1684211.3827751-.3368421.7808612-.4746412 1.1483253-1.5311004 3.4602871-2.8937799 6.9205742-4.2870813 10.4114833-.1422987.4520725.0486997.9423018.4593301 1.1789474 2.5569378 1.2708134 5.1598087 2.4650717 7.7779905 3.5674641 2.6181818 1.1023923 5.7263158 2.2813397 8.6507177 3.276555.5490217.1472533 1.1146745-.1730561 1.2708134-.7196172 1.9321533-5.6579477 3.4870781-11.4377669 4.6545454-17.3014354.1222792-.4548496-.0713124-.9357062-.4746411-1.1789474z"/><path d="m91.8660287 119.956938c-1.5311005 2.296651-3.0622009 4.593301-4.4095694 6.966507l-1.3779904 2.28134c-1.2095694 2.021052-3.261244 4.378947-3.169378 6.844019.0049498.112904.0364214.223054.091866.321531l.1224881.199043s0 .122488.107177.168421c2.9511763 3.114361 6.1798182 5.953516 9.645933 8.482297 1.0564594.857416 2.0976077 1.699521 3.062201 2.526315.2338448.217847.5527087.319969.8696019.278506s.5987496-.222183.7686756-.49286c3.8381735-5.508872 7.2766445-11.285708 10.2889955-17.286124.283721-.500603.121513-1.135916-.367464-1.439234-4.838278-2.725359-9.5081344-5.894737-14.2239239-9.155981-.2267261-.148564-.5036325-.199811-.7685103-.142229s-.4955167.219165-.6401021.448449z"/><path d="m45.9330144 155.264115c2.1282296-4.195215 4.2717703-8.405742 6.3846889-12.600957.2952782-.470388.1823056-1.088415-.260287-1.423924-4.7004785-3.444976-9.523445-6.675598-14.5301436-9.676555-.2371582-.137762-.5196062-.17482-.7842755-.102899s-.4895172.246831-.6243369.485675c-.4593302 1.010526-.9339713 2.021052-1.4086125 3.062201-2.0294054 3.984028-4.423017 7.771778-7.1502392 11.314832-.2328806.290868-.2328806.704348 0 .995215.0915054.188179.2497924.335549.4440192.413397 3.9400318 1.980224 7.8953748 3.883892 11.8660287 5.711005 1.5311004.750239 3.2 1.531101 4.8229665 2.204785.4515316.189839.9741962.028523 1.2401914-.382775z"/><path d="m104.727273 196.910048 6.522488 3.50622.290909.15311c1.301435.704306 3.35311 2.43445 4.899521 2.403828 2.465072 0 2.863158-1.638278 3.79713-3.797129 2.128229-5.02201 4.088038-10.135886 5.910047-15.311005.045463-.170547.045463-.350027 0-.520574 0-2.082297-1.316746-2.28134-3.307177-3.062201l-7.502392-2.955024c-1.855488-.998594-3.831427-1.755008-5.879426-2.250718-2.28134-.168421-2.755981 2.556938-3.628708 4.287081-.398086.796173-.842105 1.531101-1.270813 2.419139-2.095617 3.50614-3.644508 7.31125-4.5933018 11.284211-.275598 1.913875 3.6287078 3.230622 4.7617228 3.843062z"/><path d="m140.861244 247.22201c1.730144-4.271771 3.628708-8.451675 5.665072-12.570335.061369-.120084.102741-.249373.122488-.382775-.000743-.185484-.042575-.368498-.122488-.535886v-.107177s0-.107177-.107177-.15311c-.068562-.091057-.157773-.164525-.260287-.214354-.059193-.02466-.115641-.05545-.168421-.091866-4.879107-1.867942-9.79394-3.638915-14.744498-5.312918-.459888-.135656-.952956.060307-1.194258.474641-1.699522 2.618181-3.307177 5.297607-4.761723 8.053588-.45933.872727-.91866 1.745455-1.347368 2.618182-.139025.235294-.178413.516336-.109427.780782.068986.264447.240643.490434.476891.62783 1.056459.673685 2.143541 1.301436 3.230622 1.898565 3.900309 2.182483 7.952924 4.080867 12.126316 5.680383.534172.082458 1.046156-.245737 1.194258-.76555z"/><path d="m166.889952 225.266029c1.380991.828623 2.70109 1.754739 3.950239 2.771292 3.383732 2.618181 6.491866 5.588516 10.442106 7.395215.502646.267622 1.126405.108364 1.439234-.367464 2.990473-4.87496 5.478498-10.040819 7.425837-15.418182.244976-.688995.505264-1.37799.734929-2.066986.119459-.458383-.080797-.940248-.489953-1.178947l-1.07177-.581818c-3.797129-2.005742-7.425837-4.164594-11.008612-6.522488h-.15311c-.1061-.049934-.220082-.08102-.336842-.091866-.095697-.022222-.195213-.022222-.29091 0l-.183732.091866-.107177.091866-.122488.076555c-2.950931 3.19773-5.639076 6.628316-8.038277 10.258373-.872727 1.332057-1.699522 2.710048-2.495694 4.11866-.285649.481745-.152218 1.102198.30622 1.423924z"/><path d="m170.304306 288.117703c-2.618182-1.240191-5.175119-2.60287-7.655502-4.026794-2.725359-1.5311-5.389474-3.215311-7.992345-4.960765-.408442-.234195-.923222-.165139-1.255502.168421-1.989603 2.492002-3.84487 5.088354-5.557895 7.77799-.903349 1.454545-3.062201 3.934928-2.556938 5.864115.505264 1.929186 4.593302 2.939713 5.910048 3.689952 3.689952 1.97512 7.425838 4.593301 11.452632 5.833493h.290909.107177c.173163-.011792.33867-.07586.474641-.183732 1.03328-.635944 1.829343-1.593371 2.266029-2.725359.091295-.231802.198736-.456916.321531-.673684 1.5311-3.062201 3.062201-6.24689 4.593301-9.355024.250669-.501915.078213-1.112145-.398086-1.408613z"/><path d="m196.715789 262.961722c-1.5311.90335-2.051674 4.10335-2.633492 5.542584-1.117704 2.847847-2.909091 6.001914-3.383732 9.033493-.124521.353769-.02149.747709.260287.995215 3.062201 2.710048 7.915789 4.210527 11.575119 6.017225.28007.163876.620532.187801.920768.064704s.525912-.379138.610333-.692455c.842105-2.664115 1.622966-5.297608 2.373206-7.961722.704306-2.465072 1.37799-4.976077 2.005741-7.471771.108953-.457596-.088765-.933357-.489952-1.178947-1.852632-.964593-3.735885-1.898565-5.649761-2.74067-.643062-.321531-1.316746-.627751-1.975119-.91866-1.025838-.45933-2.480383-1.301436-3.613398-.688996z"/><path d="m69.7416268 217.411483c.22644.224489.5432619.332838.8597482.294023.3164862-.038814.5977363-.220512.7632183-.493066.0908835-.118428.1679382-.246853.2296651-.382775 1.5311005-2.403828 3.0622009-4.838277 4.4708134-7.303349 1.0411483-1.745455 3.337799-4.287082 3.337799-6.445933 0-1.010527-1.6229665-1.745455-2.2507177-2.143541-2.7712919-1.791387-5.5732057-3.552153-8.3598086-5.297608-.3368421-.214354-.6430622-.428708-.9799043-.627751-5.3129187-2.495694-5.8028708 4.8689-7.0736842 8.543541-.5912038 1.704342-.1300293 3.596954 1.1789473 4.838277 2.6028709 3.016268 5.2057417 6.032536 7.8239235 9.018182z"/><path d="m245.756938 249.855502c-7.441149-18.373205-22.522488-29.917703-38.997129-39.257416-1.194259-.673684-2.388517-1.332057-3.598087-1.975119-2.955023-1.622967-5.971291-3.184689-8.972248-4.700479-3.000957-1.515789-5.573206-2.878469-8.298565-4.348325l-.45933-.260287c-3.888995-2.097608-7.655502-4.25646-11.406699-6.537799-1.209569-.673685-2.388516-1.423924-3.552153-2.158852-2.679426-1.684211-5.312918-3.429665-7.869856-5.266986-1.163637-.811483-2.311962-1.638277-3.429665-2.495694-2.306858-1.725039-4.572887-3.526634-6.798086-5.404784-2.2252-1.87815-4.302393-3.730782-6.231579-5.557895-.995216-.933971-1.97512-1.913876-2.924402-2.89378-.949283-.979904-2.021053-2.082297-3.062201-3.154067-4.247111-4.670767-8.1417-9.650314-11.651675-14.897608-2.649832-3.987634-5.033331-8.145971-7.134928-12.447846-.704306-1.377991-1.347368-2.771292-1.97512-4.164594-2.28988-5.081033-4.283647-10.290388-5.971292-15.601914-.714513-2.214992-1.388197-4.450398-2.021052-6.70622-4.057416-14.1779901-6.70622-28.8918657-9.676555-43.4832533-.02329-.144376-.053952-.2874658-.091866-.4287081-.367464-1.7913876-.719617-3.5827751-1.102393-5.3741627-.30622-1.5311005-.6124398-2.9397129-.9492819-4.3942584-1.8403003-8.6712958-4.14538-17.2374015-6.9052631-25.661244-.0463317-.0628002-.0873052-.129382-.1224881-.199043.8114833-6.0019139-1.4392344-13.3205742-.9492823-19.5368421.4287082-5.25167468 0-8.72727277-4.7311005-11.46794262-3.0622009-1.76076555-7.2574162-.75023924-10.4727272.27559808l-.8114833.3062201c-4.5933014 1.53110048-8.3904306 2.95502392-13.4889952 2.75598086-2.0978143-.12271777-4.20269.0265277-6.262201.44401914-.9089501.19620294-1.8040213.45193758-2.6794258.76555024 0 0-.122488.09186602-.199043.12248803-.0765551.03062201-.1990431 0-.2909091.09186603-6.6602871 3.47559809-14.3923445-2.93971292-21.4813398-1.11770335-.6829181.17994573-1.3449532.4314164-1.9751196.75023924-5.9712918 3.06220096-12.3406698.38277512-16.9952153 5.51196175-.3364397.3738388-.7053467.7171272-1.1023923 1.0258373-4.68516749 3.6593301-9.73779907-1.0105263-10.96267945 7.1043062-.68899522 4.5933014 1.24019139 9.8755981 1.69952153 14.4229665.52057416 5.4966507-1.40861244 17.7760766-1.22488038 18.8784689 1.91387559 11.2535885 3.8430622 22.5377991 5.7569378 33.7607656.41339712 2.4191387.84210526 4.8382775 1.25550239 7.2421052l1.05645933 6.1244019c.10717703.5511965.18373206 1.1177035.29090909 1.6842105 2.58755979 15.265072 4.17990429 28.172249 1.40861239 42.197129-.53900071 2.769001-1.23939778 5.504128-2.09760761 8.191388-.22966507.719617-.45933014 1.423923-.70430622 2.14354-3.90430622 11.284211-6.95119617 21.711005-4.53205741 33.622967 2.28133971 11.2689 10.57990434 20.792344 18.90909094 28.141627 9.1866028 8.08421 19.9043062 13.626794 30.8516746 18.847847l5.0526316 2.388516c1.3779904.643063 2.7559808 1.286125 4.1186603 1.959809 4.2717703 2.036364 8.5129186 4.11866 12.6622009 6.384689 6.8323548 3.629609 13.2148219 8.049031 19.016268 13.167464 2.3885167 2.174163 4.7055821 4.414673 6.9511957 6.721531.995216.995216 1.97512 2.021053 2.955024 3.062201 6.277512 6.568421 12.248804 13.351196 19.108134 19.429665 2.357895 2.102712 4.782138 4.108453 7.272728 6.017225 1.07177.826794 2.158851 1.638278 3.276555 2.43445 3.929837 2.84491 8.019476 5.462278 12.248803 7.839234 3.807337 2.163956 7.711643 4.128868 11.712919 5.894737 3.486299 1.53994 7.06592 2.859286 10.717703 3.950239 1.041149.321532 2.097608.643063 3.169378.918661 1.071771.275598 2.618182.673684 3.95024.964593 5.889318 1.314377 11.896 2.032511 17.929186 2.143541 2.786603 0 5.603828 0 8.37512-.244976 4.308559-.340889 8.583434-1.021798 12.784689-2.036364 2.739737-.647554 5.439113-1.455322 8.08421-2.419139 2.8159-1.020198 5.566804-2.211575 8.237321-3.567464 24.37512-12.401914 24.497608-37.251675 15.311005-59.927273zm-27.161723-27.008612c3.222363 2.273291 6.230676 4.835739 8.98756 7.655502 0 0-.107177.107177-.137799.168421-3.439872 6.012122-6.854226 12.03445-10.243062 18.066986-1.564905 2.863855-2.641232 5.968646-3.184689 9.186603-5.496651-2.373206-10.901436-4.8689-16.290909-7.441148h-.107177l-5.527273-2.694737c.857416-2.572249 1.745455-5.129187 2.710048-7.655503.03736-.147424.088626-.29097.15311-.428708 3.154067-8.436363 6.70622-16.842105 10.181818-25.064115 4.625273 2.500558 9.117457 5.239819 13.458373 8.206699zm-6.216268 45.764593c-1.096774 5.78041-1.751936 11.635923-1.959808 17.51579-.107177 2.985646-.107177 5.971292 0 8.956938-1.025838-.382776-2.021053-.780862-3.062201-1.224881-6.905263-2.786603-13.611483-5.910048-20.164594-9.186603l-3.261244-1.699521c.306221-1.531101.59713-3.062201.888039-4.593302.688995-3.536842 1.332057-7.119617 1.975119-10.717703 1.02888-5.418838 2.378624-10.771799 4.042106-16.030622 2.664114 1.301435 5.312918 2.618182 7.992344 3.873684l.520574.244976c4.593302 2.204785 9.278469 4.333015 14.00957 6.369378-.290909 2.051675-.535885 4.210527-.979905 6.491866zm-157.1368417-86.599043c-2.1610454-3.836165-4.7275774-7.42931-7.6555024-10.717703l2.4344497-3.062201c2.7253589 2.005742 5.4354067 4.103349 8.0076555 6.354067 3.062201 2.664115 5.9100479 5.450718 8.7885168 8.222009 4.1370084 4.192373 8.6639972 7.981099 13.5196172 11.314833 2.5416268 1.638277 5.2210526 3.062201 7.9770335 4.593301-4.3093646 8.486958-9.6975352 16.381374-16.030622 23.487082-.7655503.903349-1.5311005 1.791387-2.3732058 2.694737-5.2210526-2.250718-10.3502392-4.593302-15.4334928-7.242106 1.4572183-3.557976 2.3010586-7.337138 2.4956938-11.177033.1837321-7.134928 1.9751196-18.021053-1.7301435-24.466986zm-12.4631579-15.311005c-8.2373206-7.211483-18.0363637-11.712918-29.4430622-16.520574.0237638-.089032.0544801-.176062.091866-.260287 10.0223658 3.035521 19.6023227 7.375072 28.4937799 12.907177 1.5311005.964593 3.169378 1.97512 4.7004785 3.062201-.6583732.842105-1.3014354 1.684211-1.9904307 2.526316-.5971291-.627751-1.2248803-1.178947-1.8526315-1.730144zm-27.8813397-21.542583c5.8641148-6.292823 11.5138756-12.64689 16.8421052-19.276555 1.2555024-1.531101 2.4497608-3.062201 3.6440192-4.501436 7.0277512 5.450718 14.1626794 10.717704 21.5119617 15.770335 2.1588517 1.531101 4.3330143 2.955024 6.537799 4.378948-1.2708134 2.021052-2.5416268 4.042105-3.8736842 6.017224-3.307177 5.052632-6.7368421 10.013398-10.3655502 14.836364-2.7968102-1.970016-5.6803828-3.81244-8.6507177-5.527273-8.1624857-4.659176-16.8414296-8.348626-25.8602871-10.993301.0875123-.229577.1591326-.464901.2143541-.704306zm-3.2918661-52.6851678c-.3062201-1.7913875-.5971292-3.5827751-.9033493-5.3741627 2.2354067-4.9913875 4.4452951-10.0031898 6.6296651-15.0354067 2.6794259-6.1244019 5.3282297-12.3406698 7.9004785-18.5416268 3.7666559 5.2398833 7.9280421 10.1844086 12.4478469 14.7904307 5.5595114 5.6405007 11.5882111 10.7984452 18.0210526 15.4181818-3.062201 5.7110048-6.7062201 11.1770335-10.3043062 16.6889955l-.1990431.30622c-3.368421 5.175119-6.8899521 10.105263-10.5186603 14.866985-2.8478469-2.235406-5.6497607-4.470813-8.4822966-6.767464-4.5933014-3.613397-9.0794259-7.303349-13.6267943-11.0086121-.3215311-1.7913876-.6430622-3.5827751-.9645933-5.3435407zm53.8947369-47.8315789.6277512-.0918661 1.5311004 1.1330144c-.290909 1.3626794-.6124401 2.7406698-.9033492 4.1186603-1.1177034 5.0832536-2.2660287 10.1511961-3.5062201 15.1885167-1.327386 5.169648-3.2114448 10.1801151-5.6191388 14.9435407-7.5648372-5.4593095-14.5294524-11.705394-20.7770335-18.6334928-3.3464414-3.7220092-6.4507388-7.6548011-9.2937799-11.7741627 2.6488038-.5205742 5.2822967-1.0105263 7.9311005-1.5311005 8.4910852-1.5254529 17.0648712-2.5479676 25.676555-3.0622009 1.4239235 0 2.8784689-.1071771 4.3330144-.2909091zm31.8775119 22.7215311c-.7655502 3.0622009-1.5311004 6.1244019-2.3578947 9.1866028-.9339713 3.5980862-1.9291866 7.1655503-3.062201 10.7177034-1.1477429 3.6656821-2.5495437 7.2469247-4.1952153 10.7177033-3.307177-1.7913875-6.6449761-3.5827751-9.9521531-5.3894737-1.9138756-1.0411483-3.7971292-2.0976076-5.6803828-3.1846889-3.8277512-2.2047847-7.5330143-4.5167465-11.0851674-6.9665072 1.6121213-3.1674411 3.0434432-6.4236984 4.2870813-9.7531101 1.5395054-4.3199412 2.8227564-8.7269626 3.8430622-13.1980861.8727273-3.6746411 1.6229665-7.3492823 2.3272727-11.0392344 6.5837321 4.4095693 13.0755981 8.7272727 19.6287082 12.968421l5.8028708 3.8736842c.15311.6889952.2909091 1.3779904.4440191 2.0669857zm2.7406696 101.0526316c-2.8937796 7.487081-5.4200954 15.142584-8.3751193 22.568421-.5052632 1.22488-1.0258374 2.419139-1.5311005 3.598086-5.8024128-2.76261-11.2429505-6.22851-16.1990431-10.319617-2.8784689-2.480383-5.6191387-5.098565-8.3444976-7.655502-4.1111703-4.093942-8.4402716-7.963044-12.968421-11.590431 0 0-.1071771 0-.1377991-.122488 2.8631579-3.873684 5.6497608-7.823924 8.3138756-11.820096 2.0669857-3.062201 4.0574163-6.124402 6.0019139-9.186603 3.7205742 2.373206 7.5023923 4.700479 11.3913876 6.920574 6.599043 3.812441 13.2133971 8.145455 20.0421052 11.988517 1.1023924.627751 2.2047843 1.224881 3.3071773 1.806699-.489952 1.286124-.995216 2.511005-1.500479 3.797129zm2.12823 6.430622c1.041148-2.786603 2.097608-5.573206 3.2-8.344498 2.917848 1.416415 5.919258 2.653793 8.98756 3.705264 2.924402.979904 5.94067 1.806698 9.018182 2.526315 4.088038.964594 8.283253 1.730144 12.524401 2.403828-2.194577 4.82807-4.348325 9.661244-6.461244 14.499522-2.939712 6.721531-5.80287 13.443062-8.466985 20.256459-2.556938-1.36268-5.129187-2.694737-7.655503-4.026794-2.526315-1.332058-5.052631-2.572249-7.655502-3.827752-3.934928-1.959808-7.9004784-3.735885-11.8200957-5.634449.1990431-.413397.3827752-.826795.5511962-1.255503 2.7866029-6.721531 5.2363637-13.534928 7.7779905-20.317703zm-36.5933015-36.853589c-3.5827751-2.342583-7.1043062-4.7311-10.5799043-7.242105-5.8028708-4.057416-11.4832536-8.298564-17.1023923-12.64689 3.0622009-3.996172 5.9866028-8.08421 8.8803827-12.355981.7196173-1.056459 1.4392345-2.14354 2.1435407-3.230622 3.5368421-5.4047843 7.0124402-10.717703 10.1205742-16.3827748 6.5301153 4.3058135 13.2813121 8.2665837 20.2258373 11.8660287l6.6909091 3.5827751c-1.2095694 2.357895-2.4650718 4.731101-3.7818182 7.073684-2.3578947 4.287082-4.8076555 8.497608-7.0583732 12.662201-3.04689 5.695694-6.292823 11.222967-9.538756 16.673684zm13.1368421 83.322488c5.3884788-6.260604 9.8582047-13.256472 13.2746412-20.777033 6.1244019 2.89378 12.4325362 5.496651 18.3732062 8.466986 1.714832.888038 3.444976 1.776076 5.175119 2.694736 1.36268.658374 2.664115 1.347369 3.996172 2.051675-.520574 1.439235-1.010526 2.89378-1.5311 4.348325-2.449761 7.502393-4.470813 15.157895-6.798086 22.599044-5.251675-1.929187-10.518661-3.735886-15.6172251-5.63445-7.3033493-2.710048-14.5607656-5.496651-21.7110048-8.497608 1.6382775-1.714832 3.261244-3.475598 4.8382775-5.251675zm41.4928234 3.888996c.091866-.290909.168421-.566507.275598-.857417.857416-2.893779 1.806698-5.787559 2.786603-8.635406 6.85933 3.633812 13.698245 7.308453 20.516746 11.023923 3.766507 2.036364 7.502392 4.103349 11.268899 6.124402-1.332057 4.409569-2.664114 8.849761-4.057416 13.228708-1.5311 4.593302-2.970335 9.263158-4.593301 13.779905-2.924402-2.021053-5.833493-4.057417-8.742584-6.124402-2.445015-1.775885-5.002171-3.392007-7.655502-4.838278-4.766627-2.573558-9.703104-4.819272-14.77512-6.721531 1.714833-5.588517 3.307177-11.284211 4.976077-16.979904zm32.933971 26.962679c1.883253-5.741627 3.644019-11.559808 5.435407-17.362679 5.159808 2.786603 10.319617 5.557894 15.525358 8.283253.137799 0 .260288.15311.413398.214354 4.195215 2.220096 8.466985 4.40957 12.708134 6.55311-.995216 3.062201-1.944498 6.124402-2.801914 9.186603-1.025838 3.674641-1.776077 7.410527-2.43445 11.192345l-.505263 3.062201c-.413397 2.526316-.780862 5.067942-1.178948 7.655502-7.492185-4.082934-14.851674-8.461882-22.078469-13.136842-2.847846-1.806699-5.680382-3.705263-8.512918-5.619139 1.209569-3.307177 2.327273-6.660287 3.429665-10.028708zm33.577033-47.295694h.168421c4.899522 2.511005 9.799043 4.960766 14.637321 7.655503-2.771292 6.813397-5.588517 13.626794-8.22201 20.501435 0 .137799-.107177.290909-.168421.428708-1.607655 4.133972-3.138756 8.267943-4.593301 12.463158-5.144498-2.58756-10.21244-5.205741-15.311005-7.885167l-.290909-.183732c-4.378947-2.296651-8.73748-4.629027-13.075598-6.99713 2.143541-6.920574 4.348325-13.779904 6.844019-20.608612.091866-.214354.15311-.398086.229665-.61244 1.531101-4.241149 3.230622-8.421053 5.083254-12.570335 4.761722 2.755981 9.722488 5.297608 14.698564 7.808612zm-33.010526-20.042105c2.465072 2.005742 5.006699 3.873684 7.655502 5.649761.75024.520574 1.531101 1.010526 2.296651 1.5311 1.531101 1.010527 3.169378 2.021053 4.777034 2.970335-1.020734 2.37831-2.010846 4.756619-2.970335 7.134928l-.505263 1.224881c-3.245933 8.39043-5.986603 16.979904-8.635407 25.615311l-14.744498-8.022967c-5.603827-3.062201-11.217863-6.088676-16.842105-9.079425 2.082297-5.695694 4.378947-11.330144 6.767464-16.933972 2.74067-6.430622 5.665072-12.8 8.574163-19.138756l4.195215.597129c2.955024 2.970335 6.124402 5.772249 9.416268 8.451675zm-15.525359-14.729187c0 .122489-.107177.260288-.168421.382776-5.404785-.964594-10.840191-1.898565-16.244976-2.878469h-.122488c-5.098289-.992724-10.041394-2.661022-14.698565-4.960766.612441-1.423923 1.20957-2.847847 1.852632-4.256459 1.784492-3.905137 3.88393-7.658522 6.277512-11.222967 1.133014-1.699521 2.296651-3.368421 3.50622-5.006698 5.311511 10.109824 11.89233 19.499969 19.582775 27.942583zm-28.126316-48.275598c1.799789 5.55849 3.968565 10.990658 6.491866 16.260287-1.025837 1.36268-2.021052 2.74067-3.062201 4.164594-3.176126 4.431498-5.97265 9.123102-8.359808 14.02488-.704306 1.531101-1.377991 2.970335-2.036364 4.470814-2.266028-1.194259-4.5933012-2.480383-6.7521529-3.79713-5.4813397-3.261244-10.8401914-6.752153-16.091866-9.799043-3.8583732-2.204784-7.6555024-4.593301-11.3301435-6.85933 3.383732-5.511962 6.599043-11.1311 9.737799-16.842105 1.6688995-3.062201 3.3531101-6.124402 5.0220096-9.186603 1.9291866-3.552153 3.8277512-7.134928 5.6344497-10.717703 5.2669857 2.863158 10.4267943 5.80287 15.4028711 9.079426 1.056459.688995 2.082296 1.393301 3.062201 2.128229.857416 2.311962 1.515789 4.71579 2.281339 7.073684zm-3.81244-13.228708c-1.041148-.658373-2.082296-1.332057-3.062201-1.975119-3.8889949-2.388517-7.8851672-4.593302-11.9425835-6.8440195 1.2555024-2.6181818 2.4497608-5.2822967 3.5521531-7.9770335.9186603-2.2047847 1.7301436-4.4861244 2.4803828-6.7980861.7502393-2.3119617 1.5311005-5.0526316 2.1588517-7.6555024 2.0516749 10.4574163 4.1339709 20.9301435 6.8133969 31.2497605zm-16.3368419-70.6296648c2.2200957 7.0889952 4.0267943 14.2698564 5.6650718 21.5119617l-6.0172249-3.9655502c-5.7569378-3.7511962-11.5444976-7.5177034-17.1942584-11.5138756 0-.1990431 0-.3980862.0918661-.5818182 3.368421-.7196172 6.7215311-1.6076555 10.0593301-2.5110048 1.1023924-.2909091 2.1588517-.5511962 3.154067-.8727273 1.5420058-.3867514 2.9864498-1.0907223 4.2411483-2.0669856zm-2.4803828-11.0698565c-2.2354067-7.3033493-3.0622009-15.0507177-6.1244019-22.1244019 7.4258374.03062201 5.8947369 17.9598086 6.1244019 22.1244019zm-8.2066985-21.77224879c3.9502392 8.57416269 4.2870813 18.23540669 7.9004784 26.90143539-.3336155 1.2234981-1.0142804 2.3242607-1.9598086 3.169378-3.4791099-9.5443343-6.0424881-19.3979601-7.6555024-29.42775119zm-3.6440192 1.53110048c1.63181 10.13467851 4.2417718 20.08740131 7.7933015 29.71866031-1.6911326.7106721-3.4584145 1.2244168-5.2669857 1.5311005-.5052631-10.3961723-1.1942583-20.7311005-3.7052631-30.85167468zm-3.0622009 1.22488039c2.4650718 10.01339712 3.0622009 20.25645932 3.5980861 30.53014352l-.8574163.1837321c-2.5697766-9.8157817-4.6141481-19.7616489-6.1244019-29.79521534 1.1310446-.21360583 2.2386458-.53665619 3.3071771-.9645933zm-5.4047847 1.08708133c1.5044045 10.13058619 3.5487832 20.17359709 6.1244019 30.08612439-1.1023923.2602871-2.2200957.4746412-3.337799.6583732-1.1738437-10.2992025-2.6079745-20.5524721-4.3023924-30.75980859zm-3.5368421 0c1.6637958 10.29920259 3.0570973 20.63923449 4.1799043 31.02009569l-.8267943.107177-.7196172.0918661c-2.7406698-10.0899522-3.5062201-20.8229665-4.8535885-31.18851678zm-4.2258373.12248804c1.3167464 10.39617225 2.1282296 21.19043065 4.8382775 31.31100475l-3.245933.3062201h-.0918661c-1.5311004-10.4880382-1.1942583-21.0373205-3.0622009-31.49473681.4133971-.04593301.9492823-.07655502 1.4851674-.10717703zm-4.9301436.87272728c.3991739-.10036671.8027997-.18211372 1.2095694-.24497608 1.9291866 10.36555025 1.5311005 20.82296655 3.062201 31.21913875l-1.6688996.122488c-2.4956937-9.9062201-2.6334928-20.6239234-3.383732-30.7751196zm-2.7406698.96459327c.7043062 10.0287082.9186603 20.4095694 3.322488 30.1779905-1.2095694 0-2.4191387.15311-3.6287081.229665.8115427-10.0623294.5034353-20.183656-.9186603-30.1779904.3864257-.0502798.7697834-.1218399 1.1483253-.2143541zm-3.3224881.3215311c1.4179342 10.0363225 1.7055379 20.2000331.8574163 30.3004785l-1.5311005.107177c.0156816-10.4717805-1.1086446-20.9141523-3.35311-31.1425837 1.3160208.3716914 2.6643189.6177686 4.0267942.7349282zm-6.2928229-1.25550236c2.3669613 10.45964286 3.5431785 21.15346106 3.5062201 31.87751196l-2.1435407.2143541c-2.2507177-10.7177034-2.2660287-21.8334929-4.1033493-32.65837324.9492823.07655502 1.8526316.29090909 2.7406699.50526316zm-6.8440192-.87272728c.6527024-.03849636 1.3071062-.03849636 1.9598086 0 1.9598087 10.99330144 1.9291866 22.23157894 4.1799043 33.17894734-.4133971 0-.8421052.0918661-1.2555023.1684211l-1.0564594.183732c-.8325899-11.2515187-2.3666731-22.4400984-4.5933014-33.50047843zm-3.6899521.47464115.8267942-.16842105c2.2526716 11.11781354 3.7869478 22.36917174 4.5933015 33.68421054l-2.1129187.2909091h-.3521531c-.6079266-11.130523-2.3209769-22.1730302-5.1138756-32.9645933.6626994-.4222878 1.3928943-.72783038 2.1588517-.90334931zm-3.9502393 2.25071769c2.6641867 10.4867122 4.2898841 21.2101613 4.8535886 32.015311l-2.0210527.3980861c-2.7293177-10.1834196-4.5432291-20.5903518-5.4200957-31.0966507.9404642-.2651339 1.8196472-.7125288 2.5875598-1.3167464zm-4.6851674 1.5157895c.8961442 10.5837818 2.7304629 21.0670669 5.4813397 31.3263158l-3.6133971.7961722h-.1990431c-1.5515152-10.829984-2.9499203-21.7007974-4.1952153-32.6124402.830501.2183167 1.6744138.3819846 2.5263158.4899522zm-4.5933015-.7043062c1.2657098 11.1362041 2.6896332 22.2519936 4.2717704 33.3473684l-1.1636364.2755981-.4133971.091866c-1.5311005-5.9100478-1.5311005-11.9885167-2.0976077-18.0516746-.5052631-5.0526316-1.5311005-10.0746412-2.4497607-15.0813398.5608357-.3421643 1.196872-.5419112 1.8526315-.5818181zm-3.7205741 2.2047847c1.0105263 5.6650717 2.0669856 11.3454545 2.5110048 17.1023923.1821712 5.0086794.7917222 9.9926547 1.8220095 14.8976077l-4.2411483 1.0258373-1.9751196-31.6019139c.68268-.3972541 1.3149911-.875343 1.8832536-1.4239234zm-3.9349283 2.3425837c.6634769 10.3910686 1.3116428 20.7821372 1.9444977 31.1732057l-1.8373206.4593302c-.091866-2.4038278.6124402-5.8488039.6430622-7.3952153-.0278935-3.1728387-.27859-6.339801-.7502393-9.477512-.5665071-4.6698565-1.40861239-9.3244019-2.20478464-13.9636364zm-4.08803823 1.8526316c1.02583732 5.5578947 1.9138756 11.1004784 2.5569378 16.6889952.30339126 3.1500497.35459087 6.3193059.15311005 9.4775119 0 1.5311005-.45933014 2.8631579-.45933014 4.1186603l-2.80191388.6889952c.45186984-7.8645018.15966225-15.754107-.87272727-23.5636363-.61244019-4.3330144.07655502-6.292823 1.42392344-7.4105263zm-1.53110048 35.4909091c3.36842106-.8114833 6.72153111-1.6229665 10.05933011-2.3578948 2.2660287-.5358851 4.5933015-1.0258373 6.7827752-1.5311005-1.8373206 4.3789474-3.6899522 8.7425838-5.5578948 13.0909091-2.2864434 5.3588517-4.6035088 10.6972887-6.95119615 16.015311zm8.68133971 49.5617226c4.9301435 3.991068 9.8653908 7.951515 14.8057416 11.88134 1.1942584.949282 2.3885168 1.913875 3.5980862 2.847846l-1.8832536 2.373206c-4.4555024 5.557895-9.0794259 10.916747-13.7799043 16.183732.9645933-11.1311-.8114833-22.262201-2.7406699-33.286124zm32.3215311 121.921531-3.230622-1.638278c2.9834532-5.352943 5.2583384-11.071037 6.7674641-17.010526 1.8526316-7.915789 1.6229665-16.061244-2.6181818-23.77799-.4332281-.76579-.9085994-1.506961-1.4239235-2.220096-3.368421-4.807656-8.4210526-8.405742-13.2899521-11.483254-7.0583732-4.486124-14.3770335-8.497607-21.4354067-12.922488.3521531-.979904.7349282-1.944497 1.0870813-2.924402 11.6363637 4.853589 21.7263158 9.079426 30.1933015 17.439235.7043062.688995 1.3933014 1.423923 2.0516746 2.189474.2755981.275598.5511962.581818.7961723.872727.9952153 1.148325 1.9751196 2.373206 2.9090909 3.65933 7.3952153 10.151196 6.2928229 23.762679 2.6488038 35.858373-.122488.428708-.2755981.842105-.3980861 1.270814-.4133972 1.347368-.8727273 2.679425-1.3779905 3.96555-.8574162 2.357895-1.7760765 4.593301-2.7406698 6.721531zm6.231579 3.062201c-.8114833-.398086-1.6535886-.780861-2.4803828-1.209569.6277512-1.347369 1.2708134-2.679426 1.8985646-4.011484.3827751-.811483.7655502-1.622966 1.1330143-2.44976 4.5933015 2.373205 9.3090909 4.593301 14.0555024 6.629665-1.5311005 1.5311-3.4602871 3.399043-5.4507177 5.420095-3.0622009-1.408612-6.1244019-2.863158-9.2172249-4.363636zm49.3014356 31.418182c-8.052991-8.208653-17.2975543-15.15627-27.4220098-20.608613-2.0414673-1.133014-4.1186603-2.225199-6.231579-3.276555l-2.3425837-1.148325.091866-.091866c1.6995216-1.898565 3.4755981-3.751196 5.2210527-5.603828l2.3119617.979904c4.7464115 1.959809 9.508134 3.827752 14.2851675 5.665072 7.4717703 2.847847 15.0507176 5.450718 22.4765546 8.344498-1.895467 5.86288-4.298174 11.549457-7.180861 16.995215zm29.320574 28.754067c-9.186603-7.196173-17.102392-15.892823-25.125359-24.37512 3.251535-5.938514 5.957371-12.159887 8.084211-18.58756 6.3885 2.548689 12.5719 5.584083 18.495693 9.079426 2.174163 1.301436 4.287082 2.694737 6.369378 4.195215 2.082297 1.500479 4.149283 2.955024 6.216268 4.40957-1.68421 4.455502-3.50622 8.865072-5.527272 13.152153-2.135702 4.526257-4.517575 8.932211-7.134929 13.198086zm36.394258 19.904306c-7.941714-2.781805-15.576163-6.37328-22.782775-10.717703-3.062201-1.837321-6.124402-3.79713-8.941627-5.833493 1.944498-3.184689 3.766508-6.430622 5.420096-9.75311 2.713396-5.439812 5.145939-11.015241 7.288038-16.704307 3.888996 2.664115 7.81882 5.215949 11.789474 7.655503 6.410207 4.011483 12.932695 7.798405 19.567464 11.360765-.183732 1.163637-.413397 2.311962-.643062 3.444977-1.534689 7.514994-3.65929 14.897342-6.354067 22.078468-1.852632-.290909-3.628708-.888038-5.404785-1.454545zm32.45933 5.006698c-2.676777.168472-5.361499.168472-8.038277 0-5.16449-.282802-10.290829-1.051752-15.311005-2.29665 2.701694-8.084342 4.925628-16.320569 6.660287-24.666029l1.684211.842105 4.761722 2.403828c6.24689 3.062201 12.616268 5.848804 19.169378 8.405742.673684.290909 1.347369.535885 2.036364.811483.275598 3.35311.704306 6.752153 1.286124 10.258373.137799.811483.275598 1.638278.428708 2.465072-4.173598 1.042065-8.441227 1.662718-12.738756 1.852632zm18.480383-41.094736c-.352153 6.721531-1.5311 13.427751-1.5311 20.164593.102784 3.347841.44561 6.683996 1.025837 9.982775v.183732c.140245 2.34454.519892 4.668592 1.133014 6.935885-.811483.290909-1.5311.627751-2.434449.872728-.627752-3.429666-1.148326-6.767465-1.531101-10.04402-.199043-1.5311-.352153-3.062201-.489952-4.593301 0-.336842 0-.688995-.076555-1.025837-.775366-8.663159-.08696-17.395035 2.036364-25.829665.505263-2.005742.811483-3.965551 1.102392-5.879426.214354-1.408613.398086-2.832536.627751-4.225838.428242-3.066246 1.332256-6.046907 2.679426-8.834449 2.909091-5.848804 6.430622-11.467943 9.691866-17.163637.61244.704307 1.194258 1.439235 1.776077 2.158852-5.695694 11.513876-13.351197 24.313876-14.070814 37.374163z"/></g></svg>