<svg height="320" viewBox="0 0 320 320" width="320" xmlns="http://www.w3.org/2000/svg"><path d="m191.92 11.46c-1.621772-.0156294-3.241654.1148983-4.84.39-.209512-.0815424-.44675-.0432783-.62.1-2.09.35-4.17.79-6.28 1-5.4.56-10.51-1-15.51-2.75-9.571737-3.5220013-19.34592-6.46727958-29.27-8.82-5.4-1.27-10.71-3.13-14.21 2.17-2 3-2.41 7.91-3.32 11.36-.81 3.13-6.1 20.11-11.56 38.3-1.1 3.67-2.21 7.36-3.28 11-2.93 9.92-5.67 19.42-7.49 26.46-.23.92-.46 1.79-.65 2.62-.08.27-.13.54-.2.8-.44 1.82-.86 3.64-1.28 5.48l-.58 2.66c-1.58 7.15-3.09 14.31-5.14 21.32-.27.94-.57 1.86-.9 2.77-.76 2.27-1.63 4.49-2.59 6.68-3.3292673 7.146664-7.0688371 14.094918-11.2 20.81l-2.08 3.59c-.46.77-.91 1.55-1.36 2.33s-1 1.83-1.57 2.74l-1.36 2.36c-6.29 11-12.54 22-19.14 32.81-1.3 2.133333-2.6333333 4.253333-4 6.36-1.21 1.93-2.45 3.85-3.7 5.76-3.5752894 5.269286-7.5895792 10.226934-12 14.82-.62.67-1.23 1.32-1.86 2-1.71 1.84-3.45 3.65-5.16 5.48l-1.93 2.08c-5.32 5.8-10.41 11.86-14.17 18.86-6.4 11.93-6 26.88-.18 38.87 6.74 13.87 22.1 19.39 36.59 20 16.64.65 31.58-5.49 42.37-18.13 3.2651733-3.878218 6.2716656-7.967047 9-12.24.52-.78 1-1.56 1.52-2.35.81-1.29 1.61-2.6 2.38-3.92.4866667-.8.9666667-1.6 1.44-2.4 3.56-6.08 6.92-12.3 10.39-18.36 1.62-2.87 3.27-5.68 5-8.43 3.19-5.12 6.3-10.38 9.88-15.26 2.423608-3.393439 5.177019-6.53876 8.22-9.39 6.7-6.18 15.83-9.53 23.48-14.32 14.76-9.27 17.33-24.33 17-40.62-.08-4.09-.12-8.14-.08-12.17.06-4.413333.21-8.8.45-13.16.445971-8.043643 1.340697-16.056112 2.68-24 .15-.9.31-1.81.49-2.7.39-2.14.83-4.29 1.3-6.42.19-.91.41-1.82.63-2.72.32-1.38.66-2.76 1-4.14 1.845962-6.641277 4.032181-13.1832467 6.55-19.6 1.06-2.84 2.13-5.68 3.18-8.53.24-.65.49-1.31.72-2 1.324441-3.7009347 2.151668-7.5613277 2.46-11.48.37-4.2-3.07-11.76.88-14.94.78791-.4699536 1.415352-1.1671114 1.8-2 3.16-6.65 2.82-15.16 3.19-22.36.21-3.85-.01-8.65-5.09-8.77zm-4.65 3c.5-.08 1-.15 1.51-.2-.59 9.11-1.34 18.22-3.75 27.05-.45-.06-.88-.11-1.3-.14s-.69 0-1 0c1.513333-8.9 3.026667-17.8033333 4.54-26.71zm-25.55 145.54c-6.46 1.14-12.53 2.49-18 5.05 1.216809-5.200972 2.715691-10.331889 4.49-15.37 4.62.87 9.26 1.74 13.88 2.65-.09 2.54-.26 5.09-.37 7.67zm-32.43 17.65c-.41.61-.79 1.22-1.15 1.82-9.457408-3.380438-19.128639-6.129807-28.95-8.23l-1-.26c1.58-3.26 3.156667-6.516667 4.73-9.77 3.06-6.38 5.91-12.82 8.61-19.31 9.93 2.55 20 4.59 30.11 6.53-2.26 7-4.76 14.29-5.6 21.49-2.617099 2.223881-4.89161 4.821879-6.75 7.71zm-3.85 20.85c-3.983003 8.925719-7.236962 18.159204-9.73 27.61-11.562133-7.009103-23.6754376-13.065755-36.22-18.11 5.45-10.24 10.67-20.6 15.78-31 9.76 3.72 19.65 7.07 29.67 10.05-.504863 2.412102-.565859 4.896025-.18 7.33.2 1.37.42 2.72.68 4.07zm-77 49.46c.78-1 1.52-2 2.27-3.05 1 .7 2 1.37 3 2.06l-1.94 3c-1.13-.71-2.21-1.37-3.33-2.03zm1.48 4.77c-2 3-4 5.92-6.07 8.82-1.39-1-2.8-1.9-4.24-2.77 2.34-2.66 4.59-5.39 6.78-8.18 1.18.69 2.35 1.4 3.53 2.11zm2.35-9.92c6.0447616-8.542794 11.6293677-17.402056 16.73-26.54.8.34 1.6.68 2.4 1-5.19 9.32-10.6 18.51-16.32 27.49-.93-.65-1.87-1.3-2.81-1.97zm22.33-36.69c5.48-10.25 10.64-20.69 15.81-31l2.37.92c-5.08 10.4-10.31 20.75-15.78 30.96-.79-.3-1.6-.6-2.4-.88zm78.82-101.12c-7.680626-.109639-15.340805-.821825-22.91-2.13-1.51-.29-3-.64-4.47-1 3.15-9.81 6.09-19.69 8.94-29.6 1.37.31 2.75.6 4.12.9 7 1.49 14 2.85 21 4.14-2.18 9.22-4.37 18.46-6.68 27.69zm-1.9 7.56c-5.44-.45-10.86-.94-16.28-1.5-3.891525-.446359-7.754453-1.114108-11.57-2 .53-1.61 1.06-3.2 1.59-4.8 2.23.62 4.49 1.17 6.78 1.6 6.829023 1.182158 13.74017 1.827466 20.67 1.93-.39 1.61-.78 3.21-1.19 4.75zm-.72 2.76c-2.073333 8.04-4.216667 16.066667-6.43 24.08-10.011281-1.134607-19.950455-2.833982-29.77-5.09 2.93-7.47 5.65-15 8.22-22.64 3.27.74 6.55 1.36 9.82 1.77 6.02.76 12.08 1.35 18.16 1.86zm1.2-50.32-9.3-1.8-4.86-1.08c2.29-8.08 4.54-16.15 6.84-24.23 3.25.57 6.43 1.71 9.66 2.32h.21c.049838.0057003.100162.0057003.15 0 4.398109.3750573 8.735578 1.2747799 12.92 2.68-1.673333 8-3.403333 16-5.19 24-3.43-.65-6.94-1.26-10.43-1.89zm-16.82-3.48-5-1.1 6.39-23.16c1.78 0 3.57.07 5.38.25-2.24 7.96-4.47 15.97-6.74 23.96zm-2.92 10.18c-2.84 9.86-5.78 19.69-8.9 29.45-1.36-.41-2.71-.83-4-1.3l8.06-29.24zm-9.68 31.84c-.54 1.66-1.08 3.31-1.64 5-1.25-.31-2.5-.62-3.75-1 .49-1.75 1-3.5 1.47-5.27 1.34.39 2.64.81 3.95 1.22zm-2.5 7.53c-2.57 7.61-5.28 15.16-8.22 22.65-.85-.2-1.71-.41-2.57-.64 2.64-7.54 5-15.18 7.16-23 1.24.32 2.45.64 3.66.92zm-11.22 30.15c-2.6 6.28-5.33 12.49-8.28 18.65l-5 10.41c-.79-.26-1.56-.52-2.34-.82 1.42-2.826667 2.8433333-5.64 4.27-8.44 3.373969-6.635632 6.378553-13.452698 9-20.42zm-14.46 31.51c-.15.28-.28.57-.42.85-.79-.3-1.58-.58-2.35-.89.14-.28.27-.55.41-.82.77.31 1.56.6 2.36.86zm31.3 11.72c-9.873333-2.926667-19.61-6.233333-29.21-9.92.17-.34.33-.68.49-1 10.07 2.72 20 5.1 29.81 8.41-.418404.811659-.782536 1.650164-1.09 2.51zm25.55-44.38c2.206667-8.06 4.346667-16.136667 6.42-24.23l9.19.65c-1.810222 8.021601-3.099582 16.151914-3.86 24.34-3.913333-.16-7.83-.413333-11.75-.76zm7.13-27c.44-1.72.88-3.45 1.31-5.16h9.4c0 .12-.07.24-.1.36-.54 1.83-1 3.66-1.48 5.48zm2-8 .18-.71c2.16-8.61 4.2-17.26 6.2-25.91 2.93.51 5.88 1 8.82 1.5-1.55 8.48-3.43 16.9-5.73 25.16-3.12.05-6.29.04-9.46.01zm8.77-37c1.713333-7.7 3.38-15.4233333 5-23.17 1.247169.0190227 2.493181-.0848116 3.72-.31 1-.15 1.91-.28 2.8-.37-.94 8.54-2 17.1-3.34 25.61-2.71-.6-5.44-1.19-8.17-1.72zm16.69-53.37c-1.493333 8.7666667-2.983333 17.5333333-4.47 26.3-.014935.0860233-.014935.1739767 0 .26h-.38c-.61.08-1.22.19-1.88.31h-.31c1.37-8.91 2.58-17.85 5.27-26.48.53-.09 1.14-.22 1.78-.35zm-5.21.81c.62 0 1.23-.06 1.86-.12h.06c-2.6 8.6-3.78 17.49-5.16 26.36-.763353.0491185-1.529518.03239-2.29-.05 1.546688-4.1974447 2.744091-8.515453 3.58-12.91.84-4.29.57-9.06 1.96-13.24zm-1.45 0c-1.12 3.71-1 7.84-1.59 11.64-.807256 4.8649418-2.093512 9.6381565-3.84 14.25-.373333-.08-.743333-.17-1.11-.27l-.39-.11-.76-.23c1.626667-8.5066667 3.573333-16.9433333 5.84-25.31.67.11 1.24.11 1.86.11zm-3.18-.04c-2.22 8.2466667-4.136667 16.56-5.75 24.94-.62-.23-1.25-.46-1.91-.68-.26-.1-.53-.18-.8-.27 2.47-8 5.1-16 7.16-24.11.39.05.83.09 1.3.12zm-2.65-.3c-2.06 8-4.66 16-7.11 23.91-.48-.13-1-.27-1.44-.37 2.85-7.78 3.56-16.14 6.49-23.9.64.19 1.33.25 2.02.36zm-3.39-.66c-2.92 7.78-3.64 16.16-6.51 23.94-.63-.1-1.27-.2-1.9-.28 1.48899-3.767148 2.627149-7.6636704 3.4-11.64.45-1.93 1.55-3.73 2.12-5.65.66-2.18 1.1-4.45 1.59-6.69.39.12.82.22 1.26.32zm-4.82-1.36c.74.24 1.47.47 2.2.68-.704794 3.5548739-1.708356 7.0439229-3 10.43-1.81 4.4-2.11 9.19-4.11 13.6-.004698.0498897-.004698.1001103 0 .15l-1.67-.17c1.3-3.67 1.67-7.65 2.52-11.44 1.008028-4.5106502 2.35177-8.9396527 4.02-13.25zm-3.36-1.15c.69.25 1.36.49 2 .72-1.504028 3.9530097-2.766356 7.9937958-3.78 12.1-1.07 4.25-1.38 8.76-2.89 12.89-.7-.06-1.4-.12-2.11-.2l-.54-.11c1.655646-3.735137 2.928807-7.6283294 3.8-11.62 1-4.69 1.43-9.42 3.09-13.93zm-1.78-.6c-1.262021 3.7966503-2.162686 7.7039958-2.69 11.67-.821501 4.848741-2.256347 9.5733138-4.27 14.06l-2-.4c1.46-3.67 2-7.53 2.78-11.41 1.143754-4.944546 2.538899-9.8275529 4.18-14.63zm-3.35-1.14c-1.25 4.14-2.56 8.27-3.66 12.46-1.21 4.58-1.5 9.32-3.33 13.73l-2-.41c1.08-4.6666667 2.36-9.29 3.84-13.87 1.33-4.12 3-8.09 3.83-12.33zm-2.58-.84c-.76 4.26-2.49 8.29-3.85 12.39-1.53 4.58-2.78 9.25-3.87 14l-1-.22-.74-.12c0-1.64.83-3.83 1.09-5.21.46-2.42.963333-4.8333333 1.51-7.24 1.078103-4.9063306 2.711984-9.6737735 4.87-14.21zm-3.33-1.05c-2.129173 4.5627896-3.765111 9.3398626-4.88 14.25-.67 2.8-1.2 5.63-1.74 8.45-.370924 1.3583699-.661428 2.7374299-.87 4.13l-.63-.11c-.88-.14-1.76-.25-2.65-.35 1.58-4.75 3.12-9.51 4.29-14.38 1-4.37 1.59-8.81 3.31-13 1.1.35 2.15.69 3.21 1.01zm-4.45-1.37c-1.52 3.76-2.19 7.73-3 11.71-1.234223 5.3840091-2.786954 10.6900075-4.65 15.89-.42 0-.84-.09-1.28-.11h-.88c1.06-4.46 3.71-8.32 4.53-12.93.824328-5.0873627 1.969953-10.1174259 3.43-15.06zm-3.18-.89c-1.522423 4.9226703-2.669049 9.9537848-3.43 15.05-.73 4.75-3.59 8.65-4.61 13.27h-1.44c1.35-4.82 1.82-9.81 3.19-14.63s3.24-9.36 4.27-14.23c.68.19 1.34.43 2.02.56zm-3.33-.87c-1 4.85-2.82 9.47-4.27 14.2-1.49 4.92-1.86 10.07-3.3 15h-2.44c1.22-4.67 2.08-9.28 2.93-14 1-5.41 3-10.6 5-15.71zm-3.42-.86c-1.915481 4.69126983-3.492842 9.5135824-4.72 14.43-1.2 5.22-1.92 10.44-3.28 15.64-.8 0-1.61 0-2.42 0 1.093333-5.1733333 2.426667-10.2833333 4-15.33.78-2.49 1.64-5 2.5-7.42.23-.65 1.73-5.62 2.6-7.63zm-2.5-.6c-.018973.06160559-.042368.12176179-.07.18-1.2 3.27-2.39 6.54-3.53 9.83-2.331715 6.7364466-4.235507 13.6134773-5.7 20.59l-1.44-.07c-.183199.0099123-.366801.0099123-.55 0 1.84-4.21 2.22-9 3.27-13.46 1.468493-6.0188222 3.442159-11.90302273 5.9-17.59.76.2 1.48.38 2.12.54zm-5.57-1c.703713.02586644 1.4051.09600512 2.1.21-2.074844 4.89973108-3.825286 9.930582-5.24 15.06-1.43 5.25-1.66 11.23-4 16.17-.859562-.1323516-1.685008-.4312785-2.43-.88 2.24-4.58 3.58-9.59 5.16-14.41.84-2.57.59-4.9 1.09-7.5.53-2.86 2.11-5.83 3.32-8.61zm-9.81 20.54c1.12-4.29 2.24-8.59 3.36-12.87.35-1.44.75-2.85 1.17-4.26.437425-1.80095894 1.965582-3.12857042 3.81-3.31-.8 2-1.61 4-2.41 6-1.06 2.63-.82 4.77-1.24 7.5s-1.77 5.66-2.65 8.35c-.815352 2.636869-1.790489 5.2216508-2.92 7.74-.437088-.4245259-.819994-.9014793-1.14-1.42.68-2.54 1.34-5.12 2.02-7.69zm-3.6 11.54c4.91 2 9.77 2.38 15.15 2.34h3.74c-2.06 7.5333333-4.13 15.0633333-6.21 22.59l-3.78-.79c-5.166361-1.3127672-10.248908-2.9357094-15.22-4.86 2-6.4533333 4.106667-12.8666667 6.32-19.24zm-15.1 50c1.7-6.67 3.54-13.32 5.47-19.94 2.81.91 5.7 1.65 8.63 2.37 3.606667.8933333 7.233333 1.7566667 10.88 2.59-2.213333 8-4.426667 16.0333333-6.64 24.1-.45 1.61-.89 3.23-1.34 4.83-6.22-2.29-12.34-5-18.59-7.27.51-2.17 1.02-4.4 1.59-6.6zm-2.17 9.29c6.22 2.19 12.31 4.79 18.51 7.06-.5 1.82-1.006667 3.64-1.52 5.46-6.2-1.81-12.34-4-18.34-6.13.45-2.05.89-4.19 1.35-6.31zm-1.92 9c6 2.15 12 4.27 18.17 6-2.21 7.77-4.55 15.45-7.19 23-5.8-1.51-11.58-3.22-17.28-5.12 2.6291651-7.766749 4.7338984-15.701259 6.3-23.75zm-9 30.72c5.68 2.2 11.44 4.1 17.26 5.8-2.551823 6.752188-5.4660578 13.361792-8.73 19.8-1.48 3.02-2.9566667 5.99-4.43 8.91-5.93-2.64-11.61-6.32-17.3-9.56 4.8474804-8.024062 9.247531-16.310045 13.18-24.82zm-14.58 27.28c5.78 3.29 11.47 7 17.45 9.67-.15.3-.3.59-.43.87-6.24-2.506667-12.42-5.173333-18.54-8 .52-.83 1.02-1.69 1.52-2.54zm-11.76 19.68c2.89-5 5.88-9.87 8.84-14.8 6.1666667 2.853333 12.41 5.553333 18.73 8.1-5.14 10.34-10.31 20.77-15.83 31.05-7.14-2.613333-14.4033333-4.893333-21.79-6.84 3.41-5.84 6.7-11.77 10.05-17.51zm-26.9 42c4.6503123-5.477869 8.8632632-11.312472 12.6-17.45 6.6514503 3.627575 13.4911082 6.898861 20.49 9.8-5.0301919 8.951698-10.531239 17.630534-16.48 26-6.69-4.8-13.24-9.85-19.79-14.81 1.09-1.13 2.15-2.32 3.18-3.5zm-5 5.51c6.66 5 13.31 10.08 20.09 14.94-.8 1.09-1.59 2.18-2.41 3.25-7.55-4.42-15.16-8.72-22.65-13 1.63-1.73 3.31-3.44 4.94-5.15zm-7 7.24c7.56 4.466667 15.0966667 8.983333 22.61 13.55-2.2 2.78-4.48 5.53-6.83 8.19-8.2132323-4.646488-17.2442754-7.668152-26.6-8.9 3.2635693-4.542394 6.8779588-8.822152 10.81-12.8zm46.45 67.88c-9.13 5.27-20.82 6.19-31.12 5.42-21.31-1.62-35-18.2-34-39.12.25371392-4.646521 1.38355206-9.203196 3.33-13.43 6.14 1.17 12.34 2.21 18.43 3.71 2.6169694.6549 5.1501899 1.607793 7.55 2.84.8466667.413333 1.6766667.853333 2.49 1.32 1.73 1 3.4 2.05 5 3.15.75.5 1.48 1 2.22 1.54s1.51 1.08 2.25 1.63c11.07 8.05 20 18.87 26.63 30.78.0451172.07568.1025769.14328.17.2-.85.69-1.85 1.35-2.95 1.96zm19.53-19.8c-3.4060897 5.49642-7.5932178 10.468424-12.43 14.76-7.38-13.92-17-26.27-29-35.3 2.12-2.96 4.19-5.96 6.21-9 2.42 1.46 4.85 2.92 7.27 4.41 10.6124764 6.354234 20.8158506 13.36801 30.55 21-.85 1.37-1.72 2.75-2.6 4.13zm4.12-6.58c-11.66-9.53-24.42-17.9-37.48-25.78l1.85-2.81c2.77 1.89 5.55 3.75 8.39 5.51 10 6.26 20.78 11.37 29.67 19-.8 1.39-1.62 2.73-2.43 4.08zm3.86-6.43c-8.41-7.19-18.41-12.28-27.94-17.91-3.44-2-6.81-4.21-10.14-6.47 5.82-9.13 11.31-18.48 16.57-28 3.2 1.3 6.42 2.6 9.63 3.92 7.7401021 3.127028 15.3016143 6.679102 22.65 10.64 2.3 1.27 4.53 2.67 6.74 4.09-.61 2.4-1.21 4.79-1.83 7.17-5.38 8.79-10.44 17.73-15.68 26.56zm28-44.72c1.51-5.45 3.14-10.87 5-16.21.977052 2.607539 2.220289 5.107417 3.71 7.46-3.236583 2.568158-6.162973 5.504616-8.72 8.75zm34.44-24.49c-5.51 4.88-12.59 7.95-19.05 11.54-2.701103-3.778589-5.009719-7.822855-6.89-12.07-.48-1.09-.9-2.19-1.28-3.35-.738201-2.907204-.738201-5.952796 0-8.86l.15-.69c.15-.65.33-1.3.52-1.94s.49-1.54.77-2.27.7-1.7 1.09-2.49c.614751-1.302255 1.3656-2.535792 2.24-3.68.18-.22.36-.44.55-.64 1.914307-2.110453 4.220351-3.828948 6.79-5.06 5.55-2.77 12.46-4.09 18.72-4.53.92-.09 1.82-.13 2.7-.15 1.79-.07 3.51-.07 5.08 0 .14 12.75-1.24 25.19-11.4 34.19zm11.15-42.68c-1.55.25-3.07.51-4.58.77.08-2.24.17-4.48.3-6.71 1.37.27 2.74.54 4.1.83.01 1.68.08 3.35.18 5.11zm0-17.76c-1.21 0-2.41 0-3.62-.09.004941-.0365.004941-.0735 0-.11.749301-8.14642 2.153847-16.219213 4.2-24.14l2.29.17c-1.420789 7.994754-2.379049 16.064835-2.87 24.17zm3.38-26.89c-.69-.06-1.4-.1-2.09-.15.51-2 1.06-4 1.63-6.08h1.76c-.43 2.12-.85 4.17-1.26 6.25zm7.73-28.11c-2.264673 6.2955395-4.177624 12.7121054-5.73 19.22-.55 0-1.1 0-1.66 0 .09-.32.17-.64.27-1 2.2-7.78 4-15.71 5.44-23.74 1.19.2 2.39.38 3.57.57-.65 1.63-1.3 3.28-1.89 4.95zm5.34-13.87c-1.78-.56-3.57-1.06-5.37-1.54 1.35-8.75 2.4-17.57 3.33-26.32 1.129925.0919379 2.246495.3065339 3.33.64.49.15 1 .34 1.47.47-1 2.45-.61 5.34-.19 8.35.92 6.39-.49 12.44-2.57 18.37zm3.94-30.85c-.971984.2901421-1.994251.3719235-3 .24 2.41-8.92 3.16-18.1 3.75-27.3.878385-.0217164 1.750255.1560768 2.55.52-1.960993 8.7080615-3.066246 17.5869295-3.3 26.51zm4.26-11.36c-.31 3.45-.06 8.53-2.88 10.66.258873-8.3440225 1.289943-16.6461406 3.08-24.8.367804.6012021.555232 1.2953781.54 2 .04 4.03-.39 8.11-.74 12.11z" fill="#262626" transform="translate(61 4)"/></svg>